Yantramanav-Black.ufo
<glyph name="exclam" format="1">
  <advance width="768"/>
  <unicode hex="0021"/>
  <outline>
    <contour>
      <point x="539" y="464" type="line"/>
      <point x="233" y="464" type="line"/>
      <point x="233" y="1310" type="line"/>
      <point x="539" y="1310" type="line"/>
    </contour>
    <contour>
      <point x="539" y="0" type="line"/>
      <point x="233" y="0" type="line"/>
      <point x="233" y="255" type="line"/>
      <point x="539" y="255" type="line"/>
    </contour>
  </outline>
</glyph>
<glyph name="quotedbl" format="1">
  <advance width="844"/>
  <unicode hex="0022"/>
  <outline>
    <contour>
      <point x="375" y="1162" type="line"/>
      <point x="298" y="938" type="line"/>
      <point x="169" y="938" type="line"/>
      <point x="169" y="1404" type="line"/>
      <point x="375" y="1404" type="line"/>
    </contour>
    <contour>
      <point x="674" y="1162" type="line"/>
      <point x="599" y="938" type="line"/>
      <point x="470" y="938" type="line"/>
      <point x="470" y="1404" type="line"/>
      <point x="674" y="1404" type="line"/>
    </contour>
  </outline>
</glyph>
<glyph name="numbersign" format="1">
  <advance width="1071"/>
  <unicode hex="0023"/>
  <outline>
    <contour>
      <point x="557" y="369" type="line"/>
      <point x="412" y="369" type="line"/>
      <point x="352" y="0" type="line"/>
      <point x="173" y="0" type="line"/>
      <point x="233" y="369" type="line"/>
      <point x="33" y="369" type="line"/>
      <point x="33" y="534" type="line"/>
      <point x="260" y="534" type="line"/>
      <point x="300" y="771" type="line"/>
      <point x="101" y="771" type="line"/>
      <point x="101" y="936" type="line"/>
      <point x="327" y="936" type="line"/>
      <point x="389" y="1310" type="line"/>
      <point x="567" y="1310" type="line"/>
      <point x="506" y="936" type="line"/>
      <point x="651" y="936" type="line"/>
      <point x="713" y="1310" type="line"/>
      <point x="892" y="1310" type="line"/>
      <point x="830" y="936" type="line"/>
      <point x="1038" y="936" type="line"/>
      <point x="1038" y="771" type="line"/>
      <point x="803" y="771" type="line"/>
      <point x="763" y="534" type="line"/>
      <point x="969" y="534" type="line"/>
      <point x="969" y="369" type="line"/>
      <point x="736" y="369" type="line"/>
      <point x="676" y="0" type="line"/>
      <point x="497" y="0" type="line"/>
    </contour>
    <contour>
      <point x="439" y="534" type="line"/>
      <point x="584" y="534" type="line"/>
      <point x="624" y="771" type="line"/>
      <point x="479" y="771" type="line"/>
    </contour>
  </outline>
</glyph>
<glyph name="dollar" format="1">
  <advance width="1067"/>
  <unicode hex="0024"/>
  <outline>
    <contour>
      <point x="684" y="326" type="qcurve" smooth="yes"/>
      <point x="684" y="397"/>
      <point x="616" y="475"/>
      <point x="528" y="513" type="qcurve" smooth="yes"/>
      <point x="316" y="597"/>
      <point x="122" y="771"/>
      <point x="122" y="939" type="qcurve" smooth="yes"/>
      <point x="122" y="1092"/>
      <point x="328" y="1289"/>
      <point x="499" y="1305" type="qcurve"/>
      <point x="499" y="1495" type="line"/>
      <point x="642" y="1495" type="line"/>
      <point x="642" y="1301" type="line"/>
      <point x="804" y="1278"/>
      <point x="993" y="1058"/>
      <point x="990" y="888" type="qcurve"/>
      <point x="988" y="884" type="line"/>
      <point x="690" y="884" type="line"/>
      <point x="690" y="982"/>
      <point x="615" y="1078"/>
      <point x="552" y="1078" type="qcurve" smooth="yes"/>
      <point x="488" y="1078"/>
      <point x="427" y="999"/>
      <point x="427" y="938" type="qcurve" smooth="yes"/>
      <point x="427" y="876"/>
      <point x="492" y="798"/>
      <point x="582" y="759" type="qcurve" smooth="yes"/>
      <point x="791" y="669"/>
      <point x="987" y="492"/>
      <point x="987" y="327" type="qcurve" smooth="yes"/>
      <point x="987" y="171"/>
      <point x="790" y="-20"/>
      <point x="624" y="-37" type="qcurve"/>
      <point x="624" y="-218" type="line"/>
      <point x="481" y="-218" type="line"/>
      <point x="481" y="-36" type="line"/>
      <point x="306" y="-19"/>
      <point x="76" y="191"/>
      <point x="79" y="393" type="qcurve"/>
      <point x="82" y="399" type="line"/>
      <point x="378" y="399" type="line"/>
      <point x="378" y="287"/>
      <point x="475" y="189"/>
      <point x="553" y="189" type="qcurve" smooth="yes"/>
      <point x="617" y="189"/>
      <point x="684" y="264"/>
    </contour>
  </outline>
</glyph>
<glyph name="percent" format="1">
  <advance width="1369"/>
  <unicode hex="0025"/>
  <outline>
    <contour>
      <point x="82" y="1056" type="line" smooth="yes"/>
      <point x="82" y="1173"/>
      <point x="233" y="1327"/>
      <point x="373" y="1327" type="qcurve" smooth="yes"/>
      <point x="514" y="1327"/>
      <point x="665" y="1173"/>
      <point x="665" y="1056" type="qcurve" smooth="yes"/>
      <point x="665" y="987" type="line" smooth="yes"/>
      <point x="665" y="870"/>
      <point x="514" y="718"/>
      <point x="374" y="718" type="qcurve" smooth="yes"/>
      <point x="234" y="718"/>
      <point x="82" y="871"/>
      <point x="82" y="987" type="qcurve" smooth="yes"/>
    </contour>
    <contour>
      <point x="276" y="987" type="line" smooth="yes"/>
      <point x="276" y="942"/>
      <point x="327" y="882"/>
      <point x="374" y="882" type="qcurve" smooth="yes"/>
      <point x="420" y="882"/>
      <point x="470" y="942"/>
      <point x="470" y="987" type="qcurve" smooth="yes"/>
      <point x="470" y="1056" type="line" smooth="yes"/>
      <point x="470" y="1101"/>
      <point x="419" y="1164"/>
      <point x="373" y="1164" type="qcurve" smooth="yes"/>
      <point x="327" y="1164"/>
      <point x="276" y="1101"/>
      <point x="276" y="1056" type="qcurve" smooth="yes"/>
    </contour>
    <contour>
      <point x="704" y="319" type="line" smooth="yes"/>
      <point x="704" y="435"/>
      <point x="857" y="589"/>
      <point x="996" y="589" type="qcurve" smooth="yes"/>
      <point x="1138" y="589"/>
      <point x="1288" y="436"/>
      <point x="1288" y="319" type="qcurve" smooth="yes"/>
      <point x="1288" y="250" type="line" smooth="yes"/>
      <point x="1288" y="132"/>
      <point x="1138" y="-20"/>
      <point x="998" y="-20" type="qcurve" smooth="yes"/>
      <point x="858" y="-20"/>
      <point x="704" y="133"/>
      <point x="704" y="250" type="qcurve" smooth="yes"/>
    </contour>
    <contour>
      <point x="899" y="250" type="line" smooth="yes"/>
      <point x="899" y="207"/>
      <point x="957" y="144"/>
      <point x="998" y="144" type="qcurve" smooth="yes"/>
      <point x="1054" y="144"/>
      <point x="1094" y="200"/>
      <point x="1094" y="250" type="qcurve" smooth="yes"/>
      <point x="1094" y="319" type="line" smooth="yes"/>
      <point x="1094" y="363"/>
      <point x="1042" y="426"/>
      <point x="996" y="426" type="qcurve" smooth="yes"/>
      <point x="950" y="426"/>
      <point x="899" y="363"/>
      <point x="899" y="319" type="qcurve" smooth="yes"/>
    </contour>
    <contour>
      <point x="422" y="96" type="line"/>
      <point x="281" y="167" type="line"/>
      <point x="921" y="1191" type="line"/>
      <point x="1062" y="1120" type="line"/>
    </contour>
  </outline>
</glyph>
<glyph name="ampersand" format="1">
  <advance width="1242"/>
  <unicode hex="0026"/>
  <outline>
    <contour>
      <point x="284" y="688" type="line"/>
      <point x="226" y="769"/>
      <point x="169" y="904"/>
      <point x="169" y="974" type="qcurve" smooth="yes"/>
      <point x="169" y="1130"/>
      <point x="373" y="1327"/>
      <point x="540" y="1327" type="qcurve" smooth="yes"/>
      <point x="683" y="1327"/>
      <point x="862" y="1144"/>
      <point x="862" y="1012" type="qcurve" smooth="yes"/>
      <point x="862" y="924"/>
      <point x="780" y="773"/>
      <point x="710" y="722" type="qcurve" smooth="yes"/>
      <point x="632" y="668" type="line"/>
      <point x="851" y="416" type="line"/>
      <point x="883" y="466"/>
      <point x="917" y="587"/>
      <point x="917" y="653" type="qcurve"/>
      <point x="1131" y="653" type="line"/>
      <point x="1131" y="525"/>
      <point x="1075" y="313"/>
      <point x="1013" y="230" type="qcurve"/>
      <point x="1211" y="2" type="line"/>
      <point x="1209" y="-2" type="line"/>
      <point x="877" y="-2" type="line"/>
      <point x="810" y="74" type="line"/>
      <point x="732" y="25"/>
      <point x="576" y="-21"/>
      <point x="482" y="-21" type="qcurve" smooth="yes"/>
      <point x="286" y="-21"/>
      <point x="54" y="184"/>
      <point x="54" y="350" type="qcurve" smooth="yes"/>
      <point x="54" y="454"/>
      <point x="165" y="601"/>
      <point x="281" y="686" type="qcurve" smooth="yes"/>
    </contour>
    <contour>
      <point x="503" y="213" type="qcurve" smooth="yes"/>
      <point x="542" y="213"/>
      <point x="620" y="229"/>
      <point x="658" y="246" type="qcurve"/>
      <point x="418" y="518" type="line"/>
      <point x="410" y="513" type="line"/>
      <point x="382" y="479"/>
      <point x="359" y="411"/>
      <point x="359" y="371" type="qcurve" smooth="yes"/>
      <point x="359" y="301"/>
      <point x="443" y="213"/>
    </contour>
    <contour>
      <point x="432" y="977" type="qcurve" smooth="yes"/>
      <point x="432" y="942"/>
      <point x="466" y="869"/>
      <point x="500" y="826" type="qcurve"/>
      <point x="554" y="860" type="line" smooth="yes"/>
      <point x="605" y="893"/>
      <point x="639" y="954"/>
      <point x="639" y="991" type="qcurve" smooth="yes"/>
      <point x="639" y="1030"/>
      <point x="584" y="1093"/>
      <point x="539" y="1093" type="qcurve" smooth="yes"/>
      <point x="488" y="1093"/>
      <point x="432" y="1027"/>
    </contour>
  </outline>
</glyph>
<glyph name="quotesingle" format="1">
  <advance width="544"/>
  <unicode hex="0027"/>
  <outline>
    <contour>
      <point x="365" y="1141" type="line"/>
      <point x="298" y="886" type="line"/>
      <point x="169" y="886" type="line"/>
      <point x="169" y="1404" type="line"/>
      <point x="365" y="1404" type="line"/>
    </contour>
  </outline>
</glyph>
<glyph name="parenleft" format="1">
  <advance width="914"/>
  <unicode hex="0028"/>
  <outline>
    <contour>
      <point x="238" y="533" type="line"/>
      <point x="238" y="883"/>
      <point x="504" y="1370"/>
      <point x="684" y="1439" type="qcurve"/>
      <point x="690" y="1439" type="line"/>
      <point x="745" y="1296" type="line"/>
      <point x="629" y="1211"/>
      <point x="480" y="833"/>
      <point x="480" y="535" type="qcurve"/>
      <point x="480" y="506" type="line"/>
      <point x="480" y="206"/>
      <point x="629" y="-171"/>
      <point x="745" y="-256" type="qcurve"/>
      <point x="690" y="-399" type="line"/>
      <point x="684" y="-399" type="line"/>
      <point x="504" y="-329"/>
      <point x="238" y="157"/>
      <point x="238" y="508" type="qcurve"/>
    </contour>
  </outline>
</glyph>
<glyph name="parenright" format="1">
  <advance width="913"/>
  <unicode hex="0029"/>
  <outline>
    <contour>
      <point x="697" y="508" type="line"/>
      <point x="697" y="171"/>
      <point x="414" y="-330"/>
      <point x="230" y="-399" type="qcurve"/>
      <point x="224" y="-399" type="line"/>
      <point x="170" y="-256" type="line"/>
      <point x="283" y="-170"/>
      <point x="434" y="207"/>
      <point x="434" y="506" type="qcurve"/>
      <point x="434" y="535" type="line"/>
      <point x="434" y="833"/>
      <point x="283" y="1211"/>
      <point x="170" y="1296" type="qcurve"/>
      <point x="224" y="1439" type="line"/>
      <point x="230" y="1439" type="line"/>
      <point x="414" y="1371"/>
      <point x="697" y="868"/>
      <point x="697" y="533" type="qcurve"/>
    </contour>
  </outline>
</glyph>
<glyph name="plus" format="1">
  <advance width="985"/>
  <unicode hex="002B"/>
  <outline>
    <contour>
      <point x="632" y="758" type="line"/>
      <point x="939" y="758" type="line"/>
      <point x="939" y="498" type="line"/>
      <point x="632" y="498" type="line"/>
      <point x="632" y="146" type="line"/>
      <point x="348" y="146" type="line"/>
      <point x="348" y="498" type="line"/>
      <point x="41" y="498" type="line"/>
      <point x="41" y="758" type="line"/>
      <point x="348" y="758" type="line"/>
      <point x="348" y="1100" type="line"/>
      <point x="632" y="1100" type="line"/>
    </contour>
  </outline>
</glyph>
<glyph name="comma" format="1">
  <advance width="487"/>
  <unicode hex="002C"/>
  <outline>
    <contour>
      <point x="376" y="-40" type="line"/>
      <point x="230" y="-326" type="line"/>
      <point x="50" y="-326" type="line"/>
      <point x="113" y="-32" type="line"/>
      <point x="113" y="196" type="line"/>
      <point x="376" y="196" type="line"/>
    </contour>
  </outline>
</glyph>
<glyph name="hyphen" format="1">
  <advance width="829"/>
  <unicode hex="002D"/>
  <outline>
    <contour>
      <point x="678" y="497" type="line"/>
      <point x="137" y="497" type="line"/>
      <point x="137" y="732" type="line"/>
      <point x="678" y="732" type="line"/>
    </contour>
  </outline>
</glyph>
<glyph name="slash" format="1">
  <advance width="647"/>
  <unicode hex="002F"/>
  <outline>
    <contour>
      <point x="189" y="-125" type="line"/>
      <point x="-26" y="-125" type="line"/>
      <point x="421" y="1298" type="line"/>
      <point x="637" y="1298" type="line"/>
    </contour>
  </outline>
</glyph>
<glyph name="zero" format="1">
  <advance width="1067"/>
  <unicode hex="0030"/>
  <outline>
    <contour>
      <point x="990" y="515" type="line" smooth="yes"/>
      <point x="990" y="250"/>
      <point x="743" y="-21"/>
      <point x="535" y="-21" type="qcurve" smooth="yes"/>
      <point x="324" y="-21"/>
      <point x="77" y="250"/>
      <point x="77" y="515" type="qcurve" smooth="yes"/>
      <point x="77" y="791" type="line" smooth="yes"/>
      <point x="77" y="1056"/>
      <point x="322" y="1327"/>
      <point x="533" y="1327" type="qcurve" smooth="yes"/>
      <point x="743" y="1327"/>
      <point x="990" y="1055"/>
      <point x="990" y="791" type="qcurve" smooth="yes"/>
    </contour>
    <contour>
      <point x="687" y="812" type="line" smooth="yes"/>
      <point x="687" y="962"/>
      <point x="608" y="1093"/>
      <point x="533" y="1093" type="qcurve" smooth="yes"/>
      <point x="457" y="1093"/>
      <point x="381" y="962"/>
      <point x="381" y="812" type="qcurve" smooth="yes"/>
      <point x="381" y="497" type="line" smooth="yes"/>
      <point x="381" y="344"/>
      <point x="458" y="213"/>
      <point x="535" y="213" type="qcurve" smooth="yes"/>
      <point x="609" y="213"/>
      <point x="687" y="344"/>
      <point x="687" y="497" type="qcurve" smooth="yes"/>
    </contour>
  </outline>
</glyph>
<glyph name="one" format="1">
  <advance width="1067"/>
  <unicode hex="0031"/>
  <outline>
    <contour>
      <point x="725" y="0" type="line"/>
      <point x="422" y="0" type="line"/>
      <point x="422" y="1005" type="line"/>
      <point x="130" y="1005" type="line"/>
      <point x="130" y="1220" type="line"/>
      <point x="725" y="1311" type="line"/>
    </contour>
  </outline>
</glyph>
<glyph name="two" format="1">
  <advance width="1067"/>
  <unicode hex="0032"/>
  <outline>
    <contour>
      <point x="997" y="0" type="line"/>
      <point x="80" y="0" type="line"/>
      <point x="80" y="198" type="line"/>
      <point x="501" y="641" type="line" smooth="yes"/>
      <point x="581" y="733"/>
      <point x="657" y="877"/>
      <point x="657" y="930" type="qcurve" smooth="yes"/>
      <point x="657" y="1005"/>
      <point x="581" y="1095"/>
      <point x="504" y="1095" type="qcurve" smooth="yes"/>
      <point x="436" y="1095"/>
      <point x="357" y="979"/>
      <point x="357" y="889" type="qcurve"/>
      <point x="60" y="889" type="line"/>
      <point x="59" y="895" type="line"/>
      <point x="54" y="1076"/>
      <point x="301" y="1329"/>
      <point x="504" y="1329" type="qcurve" smooth="yes"/>
      <point x="720" y="1329"/>
      <point x="962" y="1117"/>
      <point x="962" y="932" type="qcurve" smooth="yes"/>
      <point x="962" y="808"/>
      <point x="833" y="617"/>
      <point x="661" y="429" type="qcurve" smooth="yes"/>
      <point x="483" y="239" type="line"/>
      <point x="486" y="234" type="line"/>
      <point x="997" y="234" type="line"/>
    </contour>
  </outline>
</glyph>
<glyph name="three" format="1">
  <advance width="1067"/>
  <unicode hex="0033"/>
  <outline>
    <contour>
      <point x="357" y="780" type="line"/>
      <point x="500" y="780" type="line" smooth="yes"/>
      <point x="582" y="780"/>
      <point x="671" y="868"/>
      <point x="671" y="947" type="qcurve" smooth="yes"/>
      <point x="671" y="1009"/>
      <point x="591" y="1093"/>
      <point x="516" y="1093" type="qcurve" smooth="yes"/>
      <point x="456" y="1093"/>
      <point x="366" y="1025"/>
      <point x="366" y="971" type="qcurve"/>
      <point x="71" y="971" type="line"/>
      <point x="69" y="976" type="line"/>
      <point x="64" y="1133"/>
      <point x="321" y="1327"/>
      <point x="505" y="1327" type="qcurve" smooth="yes"/>
      <point x="718" y="1327"/>
      <point x="974" y="1132"/>
      <point x="974" y="953" type="qcurve" smooth="yes"/>
      <point x="974" y="864"/>
      <point x="863" y="713"/>
      <point x="770" y="671" type="qcurve"/>
      <point x="876" y="632"/>
      <point x="995" y="475"/>
      <point x="995" y="365" type="qcurve" smooth="yes"/>
      <point x="995" y="185"/>
      <point x="719" y="-21"/>
      <point x="505" y="-21" type="qcurve" smooth="yes"/>
      <point x="320" y="-21"/>
      <point x="44" y="173"/>
      <point x="49" y="356" type="qcurve"/>
      <point x="50" y="362" type="line"/>
      <point x="347" y="362" type="line"/>
      <point x="347" y="299"/>
      <point x="446" y="213"/>
      <point x="516" y="213" type="qcurve" smooth="yes"/>
      <point x="596" y="213"/>
      <point x="691" y="303"/>
      <point x="691" y="371" type="qcurve" smooth="yes"/>
      <point x="691" y="467"/>
      <point x="591" y="554"/>
      <point x="500" y="554" type="qcurve" smooth="yes"/>
      <point x="357" y="554" type="line"/>
    </contour>
  </outline>
</glyph>
<glyph name="four" format="1">
  <advance width="1067"/>
  <unicode hex="0034"/>
  <outline>
    <contour>
      <point x="882" y="512" type="line"/>
      <point x="1014" y="512" type="line"/>
      <point x="1014" y="276" type="line"/>
      <point x="882" y="276" type="line"/>
      <point x="882" y="0" type="line"/>
      <point x="578" y="0" type="line"/>
      <point x="578" y="276" type="line"/>
      <point x="70" y="276" type="line"/>
      <point x="52" y="464" type="line"/>
      <point x="578" y="1308" type="line"/>
      <point x="578" y="1310" type="line"/>
      <point x="882" y="1310" type="line"/>
    </contour>
    <contour>
      <point x="324" y="512" type="line"/>
      <point x="578" y="512" type="line"/>
      <point x="578" y="915" type="line"/>
      <point x="572" y="917" type="line"/>
      <point x="549" y="880" type="line"/>
    </contour>
  </outline>
</glyph>
<glyph name="six" format="1">
  <advance width="1067"/>
  <unicode hex="0036"/>
  <outline>
    <contour>
      <point x="619" y="1327" type="qcurve" smooth="yes"/>
      <point x="697" y="1327"/>
      <point x="817" y="1301"/>
      <point x="890" y="1272" type="qcurve"/>
      <point x="840" y="1051" type="line"/>
      <point x="777" y="1070"/>
      <point x="682" y="1089"/>
      <point x="621" y="1089" type="qcurve" smooth="yes"/>
      <point x="513" y="1089"/>
      <point x="383" y="937"/>
      <point x="385" y="791" type="qcurve"/>
      <point x="388" y="786" type="line"/>
      <point x="428" y="831"/>
      <point x="559" y="882"/>
      <point x="643" y="882" type="qcurve" smooth="yes"/>
      <point x="818" y="882"/>
      <point x="1013" y="629"/>
      <point x="1013" y="432" type="qcurve" smooth="yes"/>
      <point x="1013" y="237"/>
      <point x="755" y="-21"/>
      <point x="554" y="-21" type="qcurve" smooth="yes"/>
      <point x="339" y="-21"/>
      <point x="75" y="262"/>
      <point x="75" y="507" type="qcurve" smooth="yes"/>
      <point x="75" y="771" type="line" smooth="yes"/>
      <point x="75" y="1030"/>
      <point x="380" y="1327"/>
    </contour>
    <contour>
      <point x="559" y="650" type="qcurve" smooth="yes"/>
      <point x="496" y="650"/>
      <point x="405" y="615"/>
      <point x="379" y="585" type="qcurve"/>
      <point x="379" y="507" type="line" smooth="yes"/>
      <point x="379" y="365"/>
      <point x="472" y="213"/>
      <point x="554" y="213" type="qcurve" smooth="yes"/>
      <point x="623" y="213"/>
      <point x="709" y="343"/>
      <point x="709" y="432" type="qcurve" smooth="yes"/>
      <point x="709" y="532"/>
      <point x="626" y="650"/>
    </contour>
  </outline>
</glyph>
<glyph name="eight" format="1">
  <advance width="1067"/>
  <unicode hex="0038"/>
  <outline>
    <contour>
      <point x="963" y="958" type="qcurve" smooth="yes"/>
      <point x="963" y="862"/>
      <point x="864" y="712"/>
      <point x="777" y="668" type="qcurve"/>
      <point x="877" y="623"/>
      <point x="990" y="462"/>
      <point x="990" y="359" type="qcurve" smooth="yes"/>
      <point x="990" y="175"/>
      <point x="738" y="-21"/>
      <point x="535" y="-21" type="qcurve" smooth="yes"/>
      <point x="331" y="-21"/>
      <point x="77" y="176"/>
      <point x="77" y="359" type="qcurve" smooth="yes"/>
      <point x="77" y="462"/>
      <point x="191" y="623"/>
      <point x="291" y="668" type="qcurve"/>
      <point x="202" y="712"/>
      <point x="104" y="862"/>
      <point x="104" y="958" type="qcurve" smooth="yes"/>
      <point x="104" y="1134"/>
      <point x="340" y="1327"/>
      <point x="533" y="1327" type="qcurve" smooth="yes"/>
      <point x="727" y="1327"/>
      <point x="963" y="1134"/>
    </contour>
    <contour>
      <point x="687" y="383" type="qcurve" smooth="yes"/>
      <point x="687" y="461"/>
      <point x="602" y="551"/>
      <point x="533" y="551" type="qcurve" smooth="yes"/>
      <point x="464" y="551"/>
      <point x="382" y="461"/>
      <point x="382" y="383" type="qcurve" smooth="yes"/>
      <point x="382" y="304"/>
      <point x="464" y="213"/>
      <point x="535" y="213" type="qcurve" smooth="yes"/>
      <point x="603" y="213"/>
      <point x="687" y="304"/>
    </contour>
    <contour>
      <point x="660" y="942" type="qcurve" smooth="yes"/>
      <point x="660" y="1012"/>
      <point x="595" y="1093"/>
      <point x="533" y="1093" type="qcurve" smooth="yes"/>
      <point x="473" y="1093"/>
      <point x="409" y="1013"/>
      <point x="409" y="942" type="qcurve" smooth="yes"/>
      <point x="409" y="870"/>
      <point x="473" y="785"/>
      <point x="535" y="785" type="qcurve" smooth="yes"/>
      <point x="596" y="785"/>
      <point x="660" y="869"/>
    </contour>
  </outline>
</glyph>
<glyph name="nine" format="1">
  <advance width="1067"/>
  <unicode hex="0039"/>
  <outline>
    <contour>
      <point x="472" y="213" type="qcurve" smooth="yes"/>
      <point x="563" y="213"/>
      <point x="681" y="344"/>
      <point x="681" y="459" type="qcurve" smooth="yes"/>
      <point x="681" y="516" type="line"/>
      <point x="637" y="462"/>
      <point x="520" y="407"/>
      <point x="455" y="407" type="qcurve" smooth="yes"/>
      <point x="275" y="407"/>
      <point x="73" y="650"/>
      <point x="73" y="859" type="qcurve" smooth="yes"/>
      <point x="73" y="1055"/>
      <point x="329" y="1327"/>
      <point x="530" y="1327" type="qcurve" smooth="yes"/>
      <point x="728" y="1327"/>
      <point x="985" y="1041"/>
      <point x="985" y="791" type="qcurve" smooth="yes"/>
      <point x="985" y="479" type="line" smooth="yes"/>
      <point x="985" y="253"/>
      <point x="693" y="-21"/>
      <point x="472" y="-21" type="qcurve" smooth="yes"/>
      <point x="404" y="-21"/>
      <point x="259" y="9"/>
      <point x="194" y="36" type="qcurve"/>
      <point x="225" y="253" type="line"/>
      <point x="288" y="232"/>
      <point x="401" y="213"/>
    </contour>
    <contour>
      <point x="521" y="626" type="qcurve" smooth="yes"/>
      <point x="572" y="626"/>
      <point x="654" y="662"/>
      <point x="681" y="694" type="qcurve"/>
      <point x="681" y="829" type="line" smooth="yes"/>
      <point x="681" y="957"/>
      <point x="596" y="1093"/>
      <point x="529" y="1093" type="qcurve" smooth="yes"/>
      <point x="459" y="1093"/>
      <point x="377" y="951"/>
      <point x="377" y="859" type="qcurve" smooth="yes"/>
      <point x="377" y="751"/>
      <point x="449" y="626"/>
    </contour>
  </outline>
</glyph>
<glyph name="less" format="1">
  <advance width="940"/>
  <unicode hex="003C"/>
  <outline>
    <contour>
      <point x="340" y="497" type="line"/>
      <point x="340" y="491" type="line"/>
      <point x="837" y="328" type="line"/>
      <point x="837" y="52" type="line"/>
      <point x="41" y="376" type="line"/>
      <point x="41" y="615" type="line"/>
      <point x="837" y="939" type="line"/>
      <point x="837" y="664" type="line"/>
    </contour>
  </outline>
</glyph>
<glyph name="equal" format="1">
  <advance width="1076"/>
  <unicode hex="003D"/>
  <outline>
    <contour>
      <point x="949" y="688" type="line"/>
      <point x="115" y="688" type="line"/>
      <point x="115" y="922" type="line"/>
      <point x="949" y="922" type="line"/>
    </contour>
    <contour>
      <point x="949" y="293" type="line"/>
      <point x="115" y="293" type="line"/>
      <point x="115" y="527" type="line"/>
      <point x="949" y="527" type="line"/>
    </contour>
  </outline>
</glyph>
<glyph name="greater" format="1">
  <advance width="940"/>
  <unicode hex="003E"/>
  <outline>
    <contour>
      <point x="103" y="664" type="line"/>
      <point x="103" y="939" type="line"/>
      <point x="898" y="615" type="line"/>
      <point x="898" y="376" type="line"/>
      <point x="103" y="52" type="line"/>
      <point x="103" y="328" type="line"/>
      <point x="599" y="491" type="line"/>
      <point x="599" y="497" type="line"/>
    </contour>
  </outline>
</glyph>
<glyph name="question" format="1">
  <advance width="1199"/>
  <unicode hex="003F"/>
  <outline>
    <contour>
      <point x="407" y="374" type="line"/>
      <point x="408" y="499"/>
      <point x="496" y="625"/>
      <point x="613" y="707" type="qcurve"/>
      <point x="674" y="745"/>
      <point x="743" y="857"/>
      <point x="743" y="930" type="qcurve"/>
      <point x="743" y="1005"/>
      <point x="662" y="1095"/>
      <point x="587" y="1095" type="qcurve"/>
      <point x="527" y="1095"/>
      <point x="446" y="1021"/>
      <point x="444" y="949" type="qcurve"/>
      <point x="148" y="949" type="line"/>
      <point x="146" y="954" type="line"/>
      <point x="143" y="1141"/>
      <point x="387" y="1329"/>
      <point x="587" y="1329" type="qcurve"/>
      <point x="801" y="1329"/>
      <point x="1047" y="1113"/>
      <point x="1047" y="930" type="qcurve"/>
      <point x="1047" y="817"/>
      <point x="913" y="628"/>
      <point x="809" y="574" type="qcurve"/>
      <point x="752" y="536"/>
      <point x="711" y="449"/>
      <point x="711" y="374" type="qcurve"/>
    </contour>
    <contour>
      <point x="710" y="0" type="line"/>
      <point x="408" y="0" type="line"/>
      <point x="408" y="243" type="line"/>
      <point x="710" y="243" type="line"/>
    </contour>
  </outline>
</glyph>
<glyph name="at" format="1">
  <advance width="1628"/>
  <unicode hex="0040"/>
  <outline>
    <contour>
      <point x="1556" y="423" type="qcurve" smooth="yes"/>
      <point x="1548" y="225"/>
      <point x="1327" y="-64"/>
      <point x="1107" y="-64" type="qcurve" smooth="yes"/>
      <point x="1034" y="-64"/>
      <point x="928" y="18"/>
      <point x="906" y="92" type="qcurve"/>
      <point x="869" y="16"/>
      <point x="757" y="-61"/>
      <point x="681" y="-61" type="qcurve" smooth="yes"/>
      <point x="547" y="-61"/>
      <point x="405" y="153"/>
      <point x="424" y="329" type="qcurve" smooth="yes"/>
      <point x="447" y="555"/>
      <point x="664" y="827"/>
      <point x="819" y="827" type="qcurve" smooth="yes"/>
      <point x="928" y="827"/>
      <point x="1060" y="780"/>
      <point x="1139" y="731" type="qcurve"/>
      <point x="1137" y="728" type="line"/>
      <point x="1141" y="728" type="line"/>
      <point x="1095" y="218" type="line" smooth="yes"/>
      <point x="1091" y="140"/>
      <point x="1121" y="82"/>
      <point x="1146" y="82" type="qcurve" smooth="yes"/>
      <point x="1247" y="82"/>
      <point x="1368" y="275"/>
      <point x="1375" y="423" type="qcurve" smooth="yes"/>
      <point x="1390" y="728"/>
      <point x="1121" y="1069"/>
      <point x="842" y="1069" type="qcurve" smooth="yes"/>
      <point x="570" y="1069"/>
      <point x="249" y="702"/>
      <point x="236" y="385" type="qcurve" smooth="yes"/>
      <point x="221" y="76"/>
      <point x="511" y="-282"/>
      <point x="783" y="-282" type="qcurve" smooth="yes"/>
      <point x="859" y="-282"/>
      <point x="1022" y="-249"/>
      <point x="1081" y="-224" type="qcurve"/>
      <point x="1115" y="-373" type="line"/>
      <point x="1055" y="-411"/>
      <point x="869" y="-453"/>
      <point x="779" y="-453" type="qcurve" smooth="yes"/>
      <point x="416" y="-453"/>
      <point x="23" y="-5"/>
      <point x="39" y="385" type="qcurve" smooth="yes"/>
      <point x="55" y="771"/>
      <point x="487" y="1224"/>
      <point x="845" y="1224" type="qcurve" smooth="yes"/>
      <point x="1197" y="1224"/>
      <point x="1571" y="795"/>
    </contour>
    <contour>
      <point x="647" y="329" type="qcurve" smooth="yes"/>
      <point x="639" y="221"/>
      <point x="687" y="110"/>
      <point x="741" y="110" type="qcurve" smooth="yes"/>
      <point x="789" y="110"/>
      <point x="866" y="164"/>
      <point x="895" y="237" type="qcurve"/>
      <point x="931" y="644" type="line"/>
      <point x="911" y="649"/>
      <point x="873" y="655"/>
      <point x="854" y="655" type="qcurve" smooth="yes"/>
      <point x="761" y="655"/>
      <point x="662" y="492"/>
    </contour>
  </outline>
</glyph>
<glyph name="A" format="1">
  <advance width="1170"/>
  <unicode hex="0041"/>
  <outline>
    <contour>
      <point x="799" y="255" type="line"/>
      <point x="386" y="255" type="line"/>
      <point x="312" y="0" type="line"/>
      <point x="6" y="0" type="line"/>
      <point x="429" y="1310" type="line"/>
      <point x="756" y="1310" type="line"/>
      <point x="1180" y="0" type="line"/>
      <point x="874" y="0" type="line"/>
    </contour>
    <contour>
      <point x="454" y="489" type="line"/>
      <point x="732" y="489" type="line"/>
      <point x="595" y="958" type="line"/>
      <point x="590" y="958" type="line"/>
    </contour>
  </outline>
</glyph>
<glyph name="B" format="1">
  <advance width="1184"/>
  <unicode hex="0042"/>
  <outline>
    <contour>
      <point x="103" y="0" type="line"/>
      <point x="103" y="1310" type="line"/>
      <point x="553" y="1310" type="line" smooth="yes"/>
      <point x="797" y="1310"/>
      <point x="1070" y="1130"/>
      <point x="1070" y="950" type="qcurve" smooth="yes"/>
      <point x="1070" y="857"/>
      <point x="982" y="711"/>
      <point x="890" y="674" type="qcurve"/>
      <point x="1005" y="648"/>
      <point x="1115" y="491"/>
      <point x="1115" y="388" type="qcurve" smooth="yes"/>
      <point x="1115" y="196"/>
      <point x="858" y="0"/>
      <point x="617" y="0" type="qcurve" smooth="yes"/>
    </contour>
    <contour>
      <point x="408" y="563" type="line"/>
      <point x="408" y="234" type="line"/>
      <point x="617" y="234" type="line" smooth="yes"/>
      <point x="715" y="234"/>
      <point x="812" y="311"/>
      <point x="812" y="390" type="qcurve" smooth="yes"/>
      <point x="812" y="475"/>
      <point x="728" y="563"/>
      <point x="635" y="563" type="qcurve" smooth="yes"/>
    </contour>
    <contour>
      <point x="408" y="764" type="line"/>
      <point x="559" y="764" type="line" smooth="yes"/>
      <point x="662" y="766"/>
      <point x="765" y="842"/>
      <point x="765" y="916" type="qcurve" smooth="yes"/>
      <point x="765" y="1000"/>
      <point x="661" y="1076"/>
      <point x="553" y="1076" type="qcurve" smooth="yes"/>
      <point x="408" y="1076" type="line"/>
    </contour>
  </outline>
</glyph>
<glyph name="C" format="1">
  <advance width="1184"/>
  <unicode hex="0043"/>
  <outline>
    <contour>
      <point x="1123" y="458" type="line"/>
      <point x="1125" y="452" type="line"/>
      <point x="1116" y="222"/>
      <point x="861" y="-21"/>
      <point x="619" y="-21" type="qcurve" smooth="yes"/>
      <point x="376" y="-21"/>
      <point x="72" y="278"/>
      <point x="72" y="516" type="qcurve" smooth="yes"/>
      <point x="72" y="790" type="line" smooth="yes"/>
      <point x="72" y="1028"/>
      <point x="365" y="1327"/>
      <point x="599" y="1327" type="qcurve" smooth="yes"/>
      <point x="847" y="1327"/>
      <point x="1110" y="1077"/>
      <point x="1127" y="847" type="qcurve"/>
      <point x="1125" y="841" type="line"/>
      <point x="829" y="841" type="line"/>
      <point x="823" y="969"/>
      <point x="721" y="1093"/>
      <point x="599" y="1093" type="qcurve" smooth="yes"/>
      <point x="495" y="1093"/>
      <point x="376" y="927"/>
      <point x="376" y="792" type="qcurve" smooth="yes"/>
      <point x="376" y="516" type="line" smooth="yes"/>
      <point x="376" y="380"/>
      <point x="506" y="213"/>
      <point x="619" y="213" type="qcurve" smooth="yes"/>
      <point x="729" y="213"/>
      <point x="821" y="330"/>
      <point x="827" y="458" type="qcurve"/>
    </contour>
  </outline>
</glyph>
<glyph name="D" format="1">
  <advance width="1204"/>
  <unicode hex="0044"/>
  <outline>
    <contour>
      <point x="103" y="0" type="line"/>
      <point x="103" y="1310" type="line"/>
      <point x="576" y="1310" type="line" smooth="yes"/>
      <point x="807" y="1310"/>
      <point x="1119" y="1009"/>
      <point x="1119" y="773" type="qcurve" smooth="yes"/>
      <point x="1119" y="537" type="line" smooth="yes"/>
      <point x="1119" y="301"/>
      <point x="807" y="0"/>
      <point x="576" y="0" type="qcurve" smooth="yes"/>
    </contour>
    <contour>
      <point x="408" y="1076" type="line"/>
      <point x="408" y="234" type="line"/>
      <point x="555" y="234" type="line" smooth="yes"/>
      <point x="677" y="234"/>
      <point x="814" y="401"/>
      <point x="814" y="537" type="qcurve" smooth="yes"/>
      <point x="814" y="775" type="line" smooth="yes"/>
      <point x="814" y="911"/>
      <point x="677" y="1076"/>
      <point x="555" y="1076" type="qcurve" smooth="yes"/>
    </contour>
  </outline>
</glyph>
<glyph name="E" format="1">
  <advance width="1049"/>
  <unicode hex="0045"/>
  <outline>
    <contour>
      <point x="922" y="561" type="line"/>
      <point x="408" y="561" type="line"/>
      <point x="408" y="234" type="line"/>
      <point x="1013" y="234" type="line"/>
      <point x="1013" y="0" type="line"/>
      <point x="103" y="0" type="line"/>
      <point x="103" y="1310" type="line"/>
      <point x="1015" y="1310" type="line"/>
      <point x="1015" y="1076" type="line"/>
      <point x="408" y="1076" type="line"/>
      <point x="408" y="795" type="line"/>
      <point x="922" y="795" type="line"/>
    </contour>
  </outline>
</glyph>
<glyph name="F" format="1">
  <advance width="1059"/>
  <unicode hex="0046"/>
  <outline>
    <contour>
      <point x="932" y="527" type="line"/>
      <point x="408" y="527" type="line"/>
      <point x="408" y="0" type="line"/>
      <point x="103" y="0" type="line"/>
      <point x="103" y="1310" type="line"/>
      <point x="1024" y="1310" type="line"/>
      <point x="1024" y="1076" type="line"/>
      <point x="408" y="1076" type="line"/>
      <point x="408" y="761" type="line"/>
      <point x="932" y="761" type="line"/>
    </contour>
  </outline>
</glyph>
<glyph name="G" format="1">
  <advance width="1220"/>
  <unicode hex="0047"/>
  <outline>
    <contour>
      <point x="1138" y="179" type="line"/>
      <point x="1071" y="100"/>
      <point x="817" y="-21"/>
      <point x="626" y="-21" type="qcurve" smooth="yes"/>
      <point x="383" y="-21"/>
      <point x="79" y="278"/>
      <point x="79" y="516" type="qcurve" smooth="yes"/>
      <point x="79" y="790" type="line" smooth="yes"/>
      <point x="79" y="1027"/>
      <point x="375" y="1327"/>
      <point x="608" y="1327" type="qcurve" smooth="yes"/>
      <point x="861" y="1327"/>
      <point x="1113" y="1093"/>
      <point x="1130" y="891" type="qcurve"/>
      <point x="1129" y="885" type="line"/>
      <point x="843" y="885" type="line"/>
      <point x="828" y="989"/>
      <point x="725" y="1093"/>
      <point x="618" y="1093" type="qcurve" smooth="yes"/>
      <point x="512" y="1093"/>
      <point x="383" y="925"/>
      <point x="383" y="792" type="qcurve" smooth="yes"/>
      <point x="383" y="516" type="line" smooth="yes"/>
      <point x="383" y="380"/>
      <point x="510" y="213"/>
      <point x="626" y="213" type="qcurve" smooth="yes"/>
      <point x="709" y="213"/>
      <point x="805" y="240"/>
      <point x="833" y="263" type="qcurve"/>
      <point x="833" y="470" type="line"/>
      <point x="626" y="470" type="line"/>
      <point x="626" y="671" type="line"/>
      <point x="1138" y="671" type="line"/>
    </contour>
  </outline>
</glyph>
<glyph name="H" format="1">
  <advance width="1300"/>
  <unicode hex="0048"/>
  <outline>
    <contour>
      <point x="1196" y="0" type="line"/>
      <point x="893" y="0" type="line"/>
      <point x="893" y="527" type="line"/>
      <point x="408" y="527" type="line"/>
      <point x="408" y="0" type="line"/>
      <point x="103" y="0" type="line"/>
      <point x="103" y="1310" type="line"/>
      <point x="408" y="1310" type="line"/>
      <point x="408" y="761" type="line"/>
      <point x="893" y="761" type="line"/>
      <point x="893" y="1310" type="line"/>
      <point x="1196" y="1310" type="line"/>
    </contour>
  </outline>
</glyph>
<glyph name="I" format="1">
  <advance width="550"/>
  <unicode hex="0049"/>
  <outline>
    <contour>
      <point x="427" y="0" type="line"/>
      <point x="123" y="0" type="line"/>
      <point x="123" y="1310" type="line"/>
      <point x="427" y="1310" type="line"/>
    </contour>
  </outline>
</glyph>
<glyph name="J" format="1">
  <advance width="1069"/>
  <unicode hex="004A"/>
  <outline>
    <contour>
      <point x="663" y="1308" type="line"/>
      <point x="967" y="1308" type="line"/>
      <point x="967" y="409" type="line" smooth="yes"/>
      <point x="967" y="211"/>
      <point x="707" y="-21"/>
      <point x="511" y="-21" type="qcurve" smooth="yes"/>
      <point x="298" y="-21"/>
      <point x="50" y="184"/>
      <point x="55" y="385" type="qcurve"/>
      <point x="57" y="390" type="line"/>
      <point x="354" y="390" type="line"/>
      <point x="354" y="295"/>
      <point x="442" y="213"/>
      <point x="511" y="213" type="qcurve" smooth="yes"/>
      <point x="573" y="213"/>
      <point x="663" y="316"/>
      <point x="663" y="409" type="qcurve" smooth="yes"/>
    </contour>
  </outline>
</glyph>
<glyph name="K" format="1">
  <advance width="1193"/>
  <unicode hex="004B"/>
  <outline>
    <contour>
      <point x="548" y="526" type="line"/>
      <point x="408" y="526" type="line"/>
      <point x="408" y="0" type="line"/>
      <point x="103" y="0" type="line"/>
      <point x="103" y="1310" type="line"/>
      <point x="408" y="1310" type="line"/>
      <point x="408" y="797" type="line"/>
      <point x="511" y="797" type="line"/>
      <point x="799" y="1310" type="line"/>
      <point x="1177" y="1310" type="line"/>
      <point x="771" y="717" type="line"/>
      <point x="1212" y="0" type="line"/>
      <point x="842" y="0" type="line"/>
    </contour>
  </outline>
</glyph>
<glyph name="L" format="1">
  <advance width="998"/>
  <unicode hex="004C"/>
  <outline>
    <contour>
      <point x="408" y="234" type="line"/>
      <point x="972" y="234" type="line"/>
      <point x="972" y="0" type="line"/>
      <point x="103" y="0" type="line"/>
      <point x="103" y="1310" type="line"/>
      <point x="408" y="1310" type="line"/>
    </contour>
  </outline>
</glyph>
<glyph name="M" format="1">
  <advance width="1602"/>
  <unicode hex="004D"/>
  <outline>
    <contour>
      <point x="502" y="1310" type="line"/>
      <point x="796" y="393" type="line"/>
      <point x="801" y="393" type="line"/>
      <point x="1098" y="1310" type="line"/>
      <point x="1499" y="1310" type="line"/>
      <point x="1499" y="0" type="line"/>
      <point x="1194" y="0" type="line"/>
      <point x="1194" y="325" type="line"/>
      <point x="1223" y="923" type="line"/>
      <point x="1218" y="924" type="line"/>
      <point x="902" y="0" type="line"/>
      <point x="697" y="0" type="line"/>
      <point x="384" y="916" type="line"/>
      <point x="379" y="915" type="line"/>
      <point x="408" y="325" type="line"/>
      <point x="408" y="0" type="line"/>
      <point x="103" y="0" type="line"/>
      <point x="103" y="1310" type="line"/>
    </contour>
  </outline>
</glyph>
<glyph name="N" format="1">
  <advance width="1300"/>
  <unicode hex="004E"/>
  <outline>
    <contour>
      <point x="1196" y="0" type="line"/>
      <point x="893" y="0" type="line"/>
      <point x="413" y="835" type="line"/>
      <point x="408" y="833" type="line"/>
      <point x="408" y="0" type="line"/>
      <point x="103" y="0" type="line"/>
      <point x="103" y="1310" type="line"/>
      <point x="408" y="1310" type="line"/>
      <point x="887" y="475" type="line"/>
      <point x="893" y="477" type="line"/>
      <point x="893" y="1310" type="line"/>
      <point x="1196" y="1310" type="line"/>
    </contour>
  </outline>
</glyph>
<glyph name="O" format="1">
  <advance width="1260"/>
  <unicode hex="004F"/>
  <outline>
    <contour>
      <point x="1186" y="535" type="line" smooth="yes"/>
      <point x="1186" y="293"/>
      <point x="879" y="-21"/>
      <point x="632" y="-21" type="qcurve" smooth="yes"/>
      <point x="383" y="-21"/>
      <point x="73" y="293"/>
      <point x="73" y="535" type="qcurve" smooth="yes"/>
      <point x="73" y="771" type="line" smooth="yes"/>
      <point x="73" y="1012"/>
      <point x="382" y="1327"/>
      <point x="630" y="1327" type="qcurve" smooth="yes"/>
      <point x="877" y="1327"/>
      <point x="1186" y="1012"/>
      <point x="1186" y="771" type="qcurve" smooth="yes"/>
    </contour>
    <contour>
      <point x="883" y="773" type="line" smooth="yes"/>
      <point x="883" y="913"/>
      <point x="751" y="1093"/>
      <point x="630" y="1093" type="qcurve" smooth="yes"/>
      <point x="507" y="1093"/>
      <point x="376" y="914"/>
      <point x="376" y="773" type="qcurve" smooth="yes"/>
      <point x="376" y="535" type="line" smooth="yes"/>
      <point x="376" y="393"/>
      <point x="509" y="213"/>
      <point x="632" y="213" type="qcurve" smooth="yes"/>
      <point x="752" y="213"/>
      <point x="883" y="393"/>
      <point x="883" y="535" type="qcurve" smooth="yes"/>
    </contour>
  </outline>
</glyph>
<glyph name="P" format="1">
  <advance width="1210"/>
  <unicode hex="0050"/>
  <outline>
    <contour>
      <point x="408" y="449" type="line"/>
      <point x="408" y="0" type="line"/>
      <point x="103" y="0" type="line"/>
      <point x="103" y="1310" type="line"/>
      <point x="635" y="1310" type="line" smooth="yes"/>
      <point x="868" y="1310"/>
      <point x="1141" y="1072"/>
      <point x="1141" y="879" type="qcurve" smooth="yes"/>
      <point x="1141" y="686"/>
      <point x="868" y="449"/>
      <point x="635" y="449" type="qcurve" smooth="yes"/>
    </contour>
    <contour>
      <point x="408" y="683" type="line"/>
      <point x="635" y="683" type="line" smooth="yes"/>
      <point x="734" y="683"/>
      <point x="837" y="792"/>
      <point x="837" y="878" type="qcurve" smooth="yes"/>
      <point x="837" y="965"/>
      <point x="734" y="1076"/>
      <point x="635" y="1076" type="qcurve" smooth="yes"/>
      <point x="408" y="1076" type="line"/>
    </contour>
  </outline>
</glyph>
<glyph name="Q" format="1">
  <advance width="1306"/>
  <unicode hex="0051"/>
  <outline>
    <contour>
      <point x="1193" y="514" type="line" smooth="yes"/>
      <point x="1193" y="400"/>
      <point x="1121" y="202"/>
      <point x="1053" y="128" type="qcurve"/>
      <point x="1273" y="-85" type="line"/>
      <point x="1087" y="-235" type="line"/>
      <point x="852" y="-6" type="line"/>
      <point x="803" y="-24"/>
      <point x="696" y="-42"/>
      <point x="639" y="-42" type="qcurve" smooth="yes"/>
      <point x="390" y="-42"/>
      <point x="80" y="272"/>
      <point x="80" y="514" type="qcurve" smooth="yes"/>
      <point x="80" y="750" type="line" smooth="yes"/>
      <point x="80" y="991"/>
      <point x="389" y="1306"/>
      <point x="637" y="1306" type="qcurve" smooth="yes"/>
      <point x="884" y="1306"/>
      <point x="1193" y="991"/>
      <point x="1193" y="750" type="qcurve" smooth="yes"/>
    </contour>
    <contour>
      <point x="890" y="751" type="line" smooth="yes"/>
      <point x="890" y="892"/>
      <point x="758" y="1072"/>
      <point x="637" y="1072" type="qcurve" smooth="yes"/>
      <point x="514" y="1072"/>
      <point x="383" y="893"/>
      <point x="383" y="751" type="qcurve" smooth="yes"/>
      <point x="383" y="514" type="line" smooth="yes"/>
      <point x="383" y="372"/>
      <point x="516" y="192"/>
      <point x="639" y="192" type="qcurve" smooth="yes"/>
      <point x="759" y="192"/>
      <point x="890" y="372"/>
      <point x="890" y="514" type="qcurve" smooth="yes"/>
    </contour>
  </outline>
</glyph>
<glyph name="R" format="1">
  <advance width="1217"/>
  <unicode hex="0052"/>
  <outline>
    <contour>
      <point x="408" y="502" type="line"/>
      <point x="408" y="0" type="line"/>
      <point x="103" y="0" type="line"/>
      <point x="103" y="1310" type="line"/>
      <point x="607" y="1310" type="line" smooth="yes"/>
      <point x="834" y="1310"/>
      <point x="1101" y="1100"/>
      <point x="1101" y="917" type="qcurve" smooth="yes"/>
      <point x="1101" y="815"/>
      <point x="994" y="670"/>
      <point x="889" y="624" type="qcurve"/>
      <point x="1010" y="590"/>
      <point x="1115" y="430"/>
      <point x="1115" y="311" type="qcurve" smooth="yes"/>
      <point x="1115" y="229" type="line" smooth="yes"/>
      <point x="1115" y="177"/>
      <point x="1146" y="46"/>
      <point x="1184" y="18" type="qcurve"/>
      <point x="1184" y="0" type="line"/>
      <point x="870" y="0" type="line"/>
      <point x="834" y="28"/>
      <point x="812" y="170"/>
      <point x="812" y="230" type="qcurve" smooth="yes"/>
      <point x="812" y="310" type="line" smooth="yes"/>
      <point x="812" y="403"/>
      <point x="713" y="502"/>
      <point x="617" y="502" type="qcurve" smooth="yes"/>
    </contour>
    <contour>
      <point x="408" y="736" type="line"/>
      <point x="608" y="736" type="line" smooth="yes"/>
      <point x="700" y="736"/>
      <point x="797" y="820"/>
      <point x="797" y="898" type="qcurve" smooth="yes"/>
      <point x="797" y="978"/>
      <point x="698" y="1076"/>
      <point x="607" y="1076" type="qcurve" smooth="yes"/>
      <point x="408" y="1076" type="line"/>
    </contour>
  </outline>
</glyph>
<glyph name="S" format="1">
  <advance width="1164"/>
  <unicode hex="0053"/>
  <outline>
    <contour>
      <point x="798" y="345" type="qcurve" smooth="yes"/>
      <point x="798" y="415"/>
      <point x="707" y="490"/>
      <point x="588" y="533" type="qcurve" smooth="yes"/>
      <point x="339" y="611"/>
      <point x="100" y="790"/>
      <point x="100" y="959" type="qcurve" smooth="yes"/>
      <point x="100" y="1124"/>
      <point x="385" y="1327"/>
      <point x="605" y="1327" type="qcurve" smooth="yes"/>
      <point x="823" y="1327"/>
      <point x="1101" y="1103"/>
      <point x="1096" y="927" type="qcurve"/>
      <point x="1094" y="921" type="line"/>
      <point x="799" y="921" type="line"/>
      <point x="799" y="1000"/>
      <point x="693" y="1098"/>
      <point x="599" y="1098" type="qcurve" smooth="yes"/>
      <point x="508" y="1098"/>
      <point x="403" y="1017"/>
      <point x="403" y="957" type="qcurve" smooth="yes"/>
      <point x="403" y="900"/>
      <point x="509" y="830"/>
      <point x="653" y="778" type="qcurve"/>
      <point x="877" y="712"/>
      <point x="1103" y="517"/>
      <point x="1103" y="347" type="qcurve" smooth="yes"/>
      <point x="1103" y="174"/>
      <point x="833" y="-21"/>
      <point x="611" y="-21" type="qcurve" smooth="yes"/>
      <point x="388" y="-21"/>
      <point x="62" y="203"/>
      <point x="67" y="414" type="qcurve"/>
      <point x="68" y="419" type="line"/>
      <point x="365" y="419" type="line"/>
      <point x="365" y="306"/>
      <point x="487" y="209"/>
      <point x="611" y="209" type="qcurve" smooth="yes"/>
      <point x="706" y="209"/>
      <point x="798" y="284"/>
    </contour>
  </outline>
</glyph>
<glyph name="T" format="1">
  <advance width="1038"/>
  <unicode hex="0054"/>
  <outline>
    <contour>
      <point x="1017" y="1076" type="line"/>
      <point x="671" y="1076" type="line"/>
      <point x="671" y="0" type="line"/>
      <point x="366" y="0" type="line"/>
      <point x="366" y="1076" type="line"/>
      <point x="23" y="1076" type="line"/>
      <point x="23" y="1310" type="line"/>
      <point x="1017" y="1310" type="line"/>
    </contour>
  </outline>
</glyph>
<glyph name="U" format="1">
  <advance width="1275"/>
  <unicode hex="0055"/>
  <outline>
    <contour>
      <point x="1178" y="1308" type="line"/>
      <point x="1178" y="450" type="line" smooth="yes"/>
      <point x="1178" y="226"/>
      <point x="880" y="-21"/>
      <point x="639" y="-21" type="qcurve" smooth="yes"/>
      <point x="395" y="-21"/>
      <point x="96" y="226"/>
      <point x="96" y="450" type="qcurve" smooth="yes"/>
      <point x="96" y="1308" type="line"/>
      <point x="401" y="1308" type="line"/>
      <point x="401" y="450" type="line" smooth="yes"/>
      <point x="401" y="329"/>
      <point x="526" y="213"/>
      <point x="639" y="213" type="qcurve" smooth="yes"/>
      <point x="752" y="213"/>
      <point x="873" y="328"/>
      <point x="873" y="450" type="qcurve" smooth="yes"/>
      <point x="873" y="1308" type="line"/>
    </contour>
  </outline>
</glyph>
<glyph name="V" format="1">
  <advance width="1175"/>
  <unicode hex="0056"/>
  <outline>
    <contour>
      <point x="573" y="356" type="line"/>
      <point x="582" y="308" type="line"/>
      <point x="588" y="308" type="line"/>
      <point x="597" y="352" type="line"/>
      <point x="857" y="1310" type="line"/>
      <point x="1175" y="1310" type="line"/>
      <point x="751" y="0" type="line"/>
      <point x="422" y="0" type="line"/>
      <point x="-1" y="1310" type="line"/>
      <point x="317" y="1310" type="line"/>
    </contour>
  </outline>
</glyph>
<glyph name="W" format="1">
  <advance width="1637"/>
  <unicode hex="0057"/>
  <outline>
    <contour>
      <point x="1157" y="451" type="line"/>
      <point x="1162" y="451" type="line"/>
      <point x="1334" y="1310" type="line"/>
      <point x="1628" y="1310" type="line"/>
      <point x="1328" y="0" type="line"/>
      <point x="1041" y="0" type="line"/>
      <point x="821" y="808" type="line"/>
      <point x="815" y="808" type="line"/>
      <point x="597" y="0" type="line"/>
      <point x="311" y="0" type="line"/>
      <point x="9" y="1310" type="line"/>
      <point x="304" y="1310" type="line"/>
      <point x="476" y="451" type="line"/>
      <point x="482" y="451" type="line"/>
      <point x="713" y="1310" type="line"/>
      <point x="924" y="1310" type="line"/>
    </contour>
  </outline>
</glyph>
<glyph name="X" format="1">
  <advance width="1176"/>
  <unicode hex="0058"/>
  <outline>
    <contour>
      <point x="583" y="869" type="line"/>
      <point x="799" y="1310" type="line"/>
      <point x="1150" y="1310" type="line"/>
      <point x="775" y="661" type="line"/>
      <point x="1179" y="0" type="line"/>
      <point x="810" y="0" type="line"/>
      <point x="587" y="451" type="line"/>
      <point x="364" y="0" type="line"/>
      <point x="13" y="0" type="line"/>
      <point x="398" y="661" type="line"/>
      <point x="23" y="1310" type="line"/>
      <point x="371" y="1310" type="line"/>
    </contour>
  </outline>
</glyph>
<glyph name="Y" format="1">
  <advance width="1179"/>
  <unicode hex="0059"/>
  <outline>
    <contour>
      <point x="586" y="738" type="line"/>
      <point x="591" y="738" type="line"/>
      <point x="852" y="1310" type="line"/>
      <point x="1183" y="1310" type="line"/>
      <point x="737" y="461" type="line"/>
      <point x="737" y="0" type="line"/>
      <point x="434" y="0" type="line"/>
      <point x="434" y="476" type="line"/>
      <point x="-3" y="1310" type="line"/>
      <point x="326" y="1310" type="line"/>
    </contour>
  </outline>
</glyph>
<glyph name="Z" format="1">
  <advance width="1076"/>
  <unicode hex="005A"/>
  <outline>
    <contour>
      <point x="435" y="234" type="line"/>
      <point x="1031" y="234" type="line"/>
      <point x="1031" y="0" type="line"/>
      <point x="60" y="0" type="line"/>
      <point x="60" y="137" type="line"/>
      <point x="646" y="1076" type="line"/>
      <point x="58" y="1076" type="line"/>
      <point x="58" y="1310" type="line"/>
      <point x="1023" y="1310" type="line"/>
      <point x="1023" y="1179" type="line"/>
    </contour>
  </outline>
</glyph>
<glyph name="bracketleft" format="1">
  <advance width="779"/>
  <unicode hex="005B"/>
  <outline>
    <contour>
      <point x="638" y="1314" type="line"/>
      <point x="531" y="1314" type="line"/>
      <point x="531" y="-94" type="line"/>
      <point x="638" y="-94" type="line"/>
      <point x="638" y="-314" type="line"/>
      <point x="227" y="-314" type="line"/>
      <point x="227" y="1535" type="line"/>
      <point x="638" y="1535" type="line"/>
    </contour>
  </outline>
</glyph>
<glyph name="backslash" format="1">
  <advance width="784"/>
  <unicode hex="005C"/>
  <outline>
    <contour>
      <point x="-14" y="1298" type="line"/>
      <point x="290" y="1298" type="line"/>
      <point x="837" y="-125" type="line"/>
      <point x="532" y="-125" type="line"/>
    </contour>
  </outline>
</glyph>
<glyph name="bracketright" format="1">
  <advance width="779"/>
  <unicode hex="005D"/>
  <outline>
    <contour>
      <point x="143" y="1535" type="line"/>
      <point x="553" y="1535" type="line"/>
      <point x="553" y="-314" type="line"/>
      <point x="143" y="-314" type="line"/>
      <point x="143" y="-94" type="line"/>
      <point x="250" y="-94" type="line"/>
      <point x="250" y="1314" type="line"/>
      <point x="143" y="1314" type="line"/>
    </contour>
  </outline>
</glyph>
<glyph name="asciicircum" format="1">
  <advance width="824"/>
  <unicode hex="005E"/>
  <outline>
    <contour>
      <point x="260" y="729" type="line"/>
      <point x="32" y="729" type="line"/>
      <point x="302" y="1383" type="line"/>
      <point x="526" y="1383" type="line"/>
      <point x="796" y="729" type="line"/>
      <point x="567" y="729" type="line"/>
      <point x="419" y="1101" type="line"/>
      <point x="415" y="1117" type="line"/>
      <point x="410" y="1117" type="line"/>
      <point x="406" y="1101" type="line"/>
    </contour>
  </outline>
</glyph>
<glyph name="underscore" format="1">
  <advance width="814"/>
  <unicode hex="005F"/>
  <outline>
    <contour>
      <point x="813" y="-251" type="line"/>
      <point x="0" y="-251" type="line"/>
      <point x="0" y="-25" type="line"/>
      <point x="813" y="-25" type="line"/>
    </contour>
  </outline>
</glyph>
<glyph name="grave" format="1">
  <advance width="626"/>
  <unicode hex="0060"/>
  <outline>
    <contour>
      <point x="568" y="1212" type="line"/>
      <point x="320" y="1212" type="line"/>
      <point x="67" y="1446" type="line"/>
      <point x="68" y="1451" type="line"/>
      <point x="381" y="1451" type="line"/>
    </contour>
  </outline>
</glyph>
<glyph name="a" format="1">
  <advance width="977"/>
  <unicode hex="0061"/>
  <outline>
    <contour>
      <point x="646" y="-1" type="line"/>
      <point x="634" y="22"/>
      <point x="613" y="80"/>
      <point x="606" y="110" type="qcurve"/>
      <point x="563" y="50"/>
      <point x="440" y="-21"/>
      <point x="353" y="-21" type="qcurve" smooth="yes"/>
      <point x="214" y="-21"/>
      <point x="41" y="139"/>
      <point x="41" y="272" type="qcurve" smooth="yes"/>
      <point x="41" y="417"/>
      <point x="257" y="575"/>
      <point x="479" y="575" type="qcurve" smooth="yes"/>
      <point x="590" y="575" type="line"/>
      <point x="590" y="644" type="line" smooth="yes"/>
      <point x="590" y="706"/>
      <point x="531" y="773"/>
      <point x="470" y="773" type="qcurve" smooth="yes"/>
      <point x="418" y="773"/>
      <point x="366" y="723"/>
      <point x="366" y="671" type="qcurve"/>
      <point x="72" y="672" type="line"/>
      <point x="70" y="677" type="line"/>
      <point x="64" y="811"/>
      <point x="298" y="990"/>
      <point x="491" y="990" type="qcurve" smooth="yes"/>
      <point x="671" y="990"/>
      <point x="895" y="810"/>
      <point x="895" y="642" type="qcurve" smooth="yes"/>
      <point x="895" y="275" type="line" smooth="yes"/>
      <point x="895" y="197"/>
      <point x="921" y="64"/>
      <point x="947" y="-2" type="qcurve"/>
    </contour>
    <contour>
      <point x="446" y="196" type="qcurve" smooth="yes"/>
      <point x="491" y="196"/>
      <point x="566" y="232"/>
      <point x="590" y="261" type="qcurve"/>
      <point x="590" y="413" type="line"/>
      <point x="482" y="413" type="line" smooth="yes"/>
      <point x="410" y="413"/>
      <point x="344" y="343"/>
      <point x="344" y="289" type="qcurve" smooth="yes"/>
      <point x="344" y="247"/>
      <point x="401" y="196"/>
    </contour>
  </outline>
</glyph>
<glyph name="b" format="1">
  <advance width="1036"/>
  <unicode hex="0062"/>
  <outline>
    <contour>
      <point x="988" y="464" type="line" smooth="yes"/>
      <point x="988" y="242"/>
      <point x="797" y="-21"/>
      <point x="610" y="-21" type="qcurve" smooth="yes"/>
      <point x="530" y="-21"/>
      <point x="411" y="48"/>
      <point x="370" y="113" type="qcurve"/>
      <point x="350" y="-2" type="line"/>
      <point x="86" y="-2" type="line"/>
      <point x="86" y="1402" type="line"/>
      <point x="391" y="1402" type="line"/>
      <point x="391" y="877" type="line"/>
      <point x="431" y="931"/>
      <point x="538" y="990"/>
      <point x="608" y="990" type="qcurve" smooth="yes"/>
      <point x="797" y="990"/>
      <point x="988" y="714"/>
      <point x="988" y="483" type="qcurve" smooth="yes"/>
    </contour>
    <contour>
      <point x="685" y="483" type="line" smooth="yes"/>
      <point x="685" y="613"/>
      <point x="620" y="756"/>
      <point x="532" y="756" type="qcurve" smooth="yes"/>
      <point x="482" y="756"/>
      <point x="411" y="719"/>
      <point x="391" y="684" type="qcurve"/>
      <point x="391" y="275" type="line"/>
      <point x="412" y="244"/>
      <point x="482" y="213"/>
      <point x="534" y="213" type="qcurve" smooth="yes"/>
      <point x="624" y="213"/>
      <point x="685" y="338"/>
      <point x="685" y="464" type="qcurve" smooth="yes"/>
    </contour>
  </outline>
</glyph>
<glyph name="c" format="1">
  <advance width="941"/>
  <unicode hex="0063"/>
  <outline>
    <contour>
      <point x="502" y="213" type="qcurve" smooth="yes"/>
      <point x="563" y="213"/>
      <point x="623" y="280"/>
      <point x="623" y="344" type="qcurve"/>
      <point x="901" y="344" type="line"/>
      <point x="903" y="339" type="line"/>
      <point x="906" y="180"/>
      <point x="679" y="-21"/>
      <point x="502" y="-21" type="qcurve" smooth="yes"/>
      <point x="281" y="-21"/>
      <point x="41" y="254"/>
      <point x="41" y="474" type="qcurve" smooth="yes"/>
      <point x="41" y="495" type="line" smooth="yes"/>
      <point x="41" y="713"/>
      <point x="280" y="990"/>
      <point x="500" y="990" type="qcurve" smooth="yes"/>
      <point x="685" y="990"/>
      <point x="906" y="783"/>
      <point x="903" y="605" type="qcurve"/>
      <point x="901" y="599" type="line"/>
      <point x="623" y="599" type="line"/>
      <point x="623" y="668"/>
      <point x="562" y="756"/>
      <point x="500" y="756" type="qcurve" smooth="yes"/>
      <point x="413" y="756"/>
      <point x="344" y="614"/>
      <point x="344" y="495" type="qcurve" smooth="yes"/>
      <point x="344" y="474" type="line" smooth="yes"/>
      <point x="344" y="352"/>
      <point x="413" y="213"/>
    </contour>
  </outline>
</glyph>
<glyph name="d" format="1">
  <advance width="1036"/>
  <unicode hex="0064"/>
  <outline>
    <contour>
      <point x="46" y="483" type="line" smooth="yes"/>
      <point x="46" y="711"/>
      <point x="245" y="990"/>
      <point x="426" y="990" type="qcurve" smooth="yes"/>
      <point x="493" y="990"/>
      <point x="602" y="928"/>
      <point x="645" y="870" type="qcurve"/>
      <point x="645" y="1402" type="line"/>
      <point x="950" y="1402" type="line"/>
      <point x="950" y="-2" type="line"/>
      <point x="686" y="-2" type="line"/>
      <point x="664" y="118" type="line"/>
      <point x="619" y="50"/>
      <point x="500" y="-21"/>
      <point x="424" y="-21" type="qcurve" smooth="yes"/>
      <point x="244" y="-21"/>
      <point x="46" y="245"/>
      <point x="46" y="464" type="qcurve" smooth="yes"/>
    </contour>
    <contour>
      <point x="350" y="464" type="line" smooth="yes"/>
      <point x="350" y="345"/>
      <point x="419" y="213"/>
      <point x="501" y="213" type="qcurve" smooth="yes"/>
      <point x="549" y="213"/>
      <point x="622" y="248"/>
      <point x="645" y="282" type="qcurve"/>
      <point x="645" y="676" type="line"/>
      <point x="622" y="714"/>
      <point x="550" y="756"/>
      <point x="503" y="756" type="qcurve" smooth="yes"/>
      <point x="422" y="756"/>
      <point x="350" y="606"/>
      <point x="350" y="483" type="qcurve" smooth="yes"/>
    </contour>
  </outline>
</glyph>
<glyph name="e" format="1">
  <advance width="975"/>
  <unicode hex="0065"/>
  <outline>
    <contour>
      <point x="531" y="-21" type="qcurve" smooth="yes"/>
      <point x="316" y="-21"/>
      <point x="59" y="249"/>
      <point x="59" y="452" type="qcurve" smooth="yes"/>
      <point x="59" y="487" type="line" smooth="yes"/>
      <point x="59" y="709"/>
      <point x="293" y="991"/>
      <point x="509" y="990" type="qcurve" smooth="yes"/>
      <point x="707" y="990"/>
      <point x="932" y="752"/>
      <point x="932" y="549" type="qcurve" smooth="yes"/>
      <point x="932" y="389" type="line"/>
      <point x="376" y="389" type="line"/>
      <point x="374" y="384" type="line"/>
      <point x="384" y="309"/>
      <point x="487" y="213"/>
      <point x="572" y="213" type="qcurve" smooth="yes"/>
      <point x="659" y="213"/>
      <point x="762" y="240"/>
      <point x="842" y="273" type="qcurve"/>
      <point x="914" y="88" type="line"/>
      <point x="850" y="41"/>
      <point x="647" y="-21"/>
    </contour>
    <contour>
      <point x="509" y="756" type="qcurve" smooth="yes"/>
      <point x="444" y="756"/>
      <point x="378" y="662"/>
      <point x="371" y="584" type="qcurve"/>
      <point x="374" y="579" type="line"/>
      <point x="635" y="579" type="line"/>
      <point x="635" y="603" type="line" smooth="yes"/>
      <point x="635" y="677"/>
      <point x="574" y="756"/>
    </contour>
  </outline>
</glyph>
<glyph name="f" format="1">
  <advance width="669"/>
  <unicode hex="0066"/>
  <outline>
    <contour>
      <point x="151" y="0" type="line"/>
      <point x="151" y="763" type="line"/>
      <point x="11" y="763" type="line"/>
      <point x="11" y="974" type="line"/>
      <point x="151" y="974" type="line"/>
      <point x="151" y="1075" type="line" smooth="yes"/>
      <point x="151" y="1243"/>
      <point x="353" y="1423"/>
      <point x="537" y="1423" type="qcurve" smooth="yes"/>
      <point x="572" y="1423"/>
      <point x="644" y="1413"/>
      <point x="688" y="1404" type="qcurve"/>
      <point x="665" y="1180" type="line"/>
      <point x="641" y="1184"/>
      <point x="602" y="1189"/>
      <point x="574" y="1189" type="qcurve" smooth="yes"/>
      <point x="518" y="1189"/>
      <point x="456" y="1130"/>
      <point x="456" y="1075" type="qcurve" smooth="yes"/>
      <point x="456" y="974" type="line"/>
      <point x="645" y="974" type="line"/>
      <point x="645" y="763" type="line"/>
      <point x="456" y="763" type="line"/>
      <point x="456" y="0" type="line"/>
    </contour>
  </outline>
</glyph>
<glyph name="g" format="1">
  <advance width="1036"/>
  <unicode hex="0067"/>
  <outline>
    <contour>
      <point x="46" y="441" type="line" smooth="yes"/>
      <point x="46" y="669"/>
      <point x="244" y="948"/>
      <point x="425" y="948" type="qcurve" smooth="yes"/>
      <point x="502" y="948"/>
      <point x="619" y="875"/>
      <point x="662" y="808" type="qcurve"/>
      <point x="682" y="930" type="line"/>
      <point x="949" y="930" type="line"/>
      <point x="949" y="-6" type="line" smooth="yes"/>
      <point x="949" y="-201"/>
      <point x="680" y="-437"/>
      <point x="454" y="-437" type="qcurve" smooth="yes"/>
      <point x="378" y="-437"/>
      <point x="212" y="-396"/>
      <point x="138" y="-361" type="qcurve"/>
      <point x="187" y="-136" type="line"/>
      <point x="254" y="-164"/>
      <point x="374" y="-192"/>
      <point x="452" y="-192" type="qcurve" smooth="yes"/>
      <point x="545" y="-192"/>
      <point x="644" y="-91"/>
      <point x="644" y="-4" type="qcurve" smooth="yes"/>
      <point x="644" y="45" type="line"/>
      <point x="603" y="-8"/>
      <point x="493" y="-63"/>
      <point x="423" y="-63" type="qcurve" smooth="yes"/>
      <point x="243" y="-63"/>
      <point x="46" y="204"/>
      <point x="46" y="423" type="qcurve" smooth="yes"/>
    </contour>
    <contour>
      <point x="349" y="423" type="line" smooth="yes"/>
      <point x="349" y="304"/>
      <point x="419" y="171"/>
      <point x="500" y="171" type="qcurve" smooth="yes"/>
      <point x="550" y="171"/>
      <point x="621" y="202"/>
      <point x="644" y="234" type="qcurve"/>
      <point x="644" y="642" type="line"/>
      <point x="622" y="676"/>
      <point x="551" y="714"/>
      <point x="502" y="714" type="qcurve" smooth="yes"/>
      <point x="421" y="714"/>
      <point x="349" y="565"/>
      <point x="349" y="441" type="qcurve" smooth="yes"/>
    </contour>
  </outline>
</glyph>
<glyph name="h" format="1">
  <advance width="1036"/>
  <unicode hex="0068"/>
  <outline>
    <contour>
      <point x="382" y="853" type="line"/>
      <point x="426" y="919"/>
      <point x="553" y="992"/>
      <point x="629" y="992" type="qcurve" smooth="yes"/>
      <point x="780" y="992"/>
      <point x="953" y="781"/>
      <point x="953" y="560" type="qcurve" smooth="yes"/>
      <point x="953" y="0" type="line"/>
      <point x="649" y="0" type="line"/>
      <point x="649" y="562" type="line" smooth="yes"/>
      <point x="649" y="673"/>
      <point x="581" y="758"/>
      <point x="512" y="758" type="qcurve" smooth="yes"/>
      <point x="468" y="758"/>
      <point x="403" y="732"/>
      <point x="382" y="708" type="qcurve"/>
      <point x="382" y="0" type="line"/>
      <point x="77" y="0" type="line"/>
      <point x="77" y="1404" type="line"/>
      <point x="382" y="1404" type="line"/>
    </contour>
  </outline>
</glyph>
<glyph name="i" format="1">
  <advance width="505"/>
  <unicode hex="0069"/>
  <outline>
    <contour>
      <point x="405" y="0" type="line"/>
      <point x="100" y="0" type="line"/>
      <point x="100" y="974" type="line"/>
      <point x="405" y="974" type="line"/>
    </contour>
    <contour>
      <point x="405" y="1200" type="line"/>
      <point x="100" y="1200" type="line"/>
      <point x="100" y="1404" type="line"/>
      <point x="405" y="1404" type="line"/>
    </contour>
  </outline>
</glyph>
<glyph name="j" format="1">
  <advance width="493"/>
  <unicode hex="006A"/>
  <outline>
    <contour>
      <point x="409" y="930" type="line"/>
      <point x="409" y="-57" type="line" smooth="yes"/>
      <point x="409" y="-239"/>
      <point x="213" y="-437"/>
      <point x="40" y="-437" type="qcurve" smooth="yes"/>
      <point x="0" y="-437"/>
      <point x="-66" y="-430"/>
      <point x="-104" y="-422" type="qcurve"/>
      <point x="-91" y="-192" type="line"/>
      <point x="-65" y="-198"/>
      <point x="-28" y="-203"/>
      <point x="0" y="-203" type="qcurve" smooth="yes"/>
      <point x="50" y="-203"/>
      <point x="104" y="-129"/>
      <point x="104" y="-57" type="qcurve" smooth="yes"/>
      <point x="104" y="930" type="line"/>
    </contour>
    <contour>
      <point x="403" y="1157" type="line"/>
      <point x="98" y="1157" type="line"/>
      <point x="98" y="1360" type="line"/>
      <point x="403" y="1360" type="line"/>
    </contour>
  </outline>
</glyph>
<glyph name="k" format="1">
  <advance width="1007"/>
  <unicode hex="006B"/>
  <outline>
    <contour>
      <point x="442" y="387" type="line"/>
      <point x="391" y="387" type="line"/>
      <point x="391" y="0" type="line"/>
      <point x="86" y="0" type="line"/>
      <point x="86" y="1404" type="line"/>
      <point x="391" y="1404" type="line"/>
      <point x="391" y="617" type="line"/>
      <point x="431" y="617" type="line"/>
      <point x="639" y="974" type="line"/>
      <point x="987" y="974" type="line"/>
      <point x="685" y="534" type="line"/>
      <point x="1035" y="0" type="line"/>
      <point x="689" y="0" type="line"/>
    </contour>
  </outline>
</glyph>
<glyph name="l" format="1">
  <advance width="505"/>
  <unicode hex="006C"/>
  <outline>
    <contour>
      <point x="405" y="0" type="line"/>
      <point x="100" y="0" type="line"/>
      <point x="100" y="1404" type="line"/>
      <point x="405" y="1404" type="line"/>
    </contour>
  </outline>
</glyph>
<glyph name="m" format="1">
  <advance width="1588"/>
  <unicode hex="006D"/>
  <outline>
    <contour>
      <point x="373" y="974" type="line"/>
      <point x="383" y="845" type="line"/>
      <point x="429" y="915"/>
      <point x="569" y="992"/>
      <point x="659" y="992" type="qcurve" smooth="yes"/>
      <point x="750" y="992"/>
      <point x="881" y="913"/>
      <point x="914" y="832" type="qcurve"/>
      <point x="959" y="908"/>
      <point x="1101" y="992"/>
      <point x="1195" y="992" type="qcurve" smooth="yes"/>
      <point x="1337" y="992"/>
      <point x="1500" y="797"/>
      <point x="1500" y="593" type="qcurve" smooth="yes"/>
      <point x="1500" y="0" type="line"/>
      <point x="1195" y="0" type="line"/>
      <point x="1195" y="593" type="line" smooth="yes"/>
      <point x="1195" y="688"/>
      <point x="1137" y="758"/>
      <point x="1078" y="758" type="qcurve" smooth="yes"/>
      <point x="1034" y="758"/>
      <point x="967" y="726"/>
      <point x="943" y="698" type="qcurve"/>
      <point x="943" y="683"/>
      <point x="945" y="661"/>
      <point x="945" y="650" type="qcurve" smooth="yes"/>
      <point x="945" y="0" type="line"/>
      <point x="641" y="0" type="line"/>
      <point x="641" y="593" type="line" smooth="yes"/>
      <point x="641" y="688"/>
      <point x="583" y="758"/>
      <point x="523" y="758" type="qcurve" smooth="yes"/>
      <point x="482" y="758"/>
      <point x="414" y="726"/>
      <point x="391" y="698" type="qcurve"/>
      <point x="391" y="0" type="line"/>
      <point x="86" y="0" type="line"/>
      <point x="86" y="974" type="line"/>
    </contour>
  </outline>
</glyph>
<glyph name="n" format="1">
  <advance width="1036"/>
  <unicode hex="006E"/>
  <outline>
    <contour>
      <point x="366" y="974" type="line"/>
      <point x="378" y="837" type="line"/>
      <point x="426" y="910"/>
      <point x="566" y="992"/>
      <point x="653" y="992" type="qcurve" smooth="yes"/>
      <point x="796" y="992"/>
      <point x="957" y="806"/>
      <point x="957" y="604" type="qcurve" smooth="yes"/>
      <point x="957" y="0" type="line"/>
      <point x="653" y="0" type="line"/>
      <point x="653" y="605" type="line" smooth="yes"/>
      <point x="653" y="689"/>
      <point x="583" y="758"/>
      <point x="516" y="758" type="qcurve" smooth="yes"/>
      <point x="473" y="758"/>
      <point x="408" y="727"/>
      <point x="384" y="700" type="qcurve"/>
      <point x="384" y="0" type="line"/>
      <point x="81" y="0" type="line"/>
      <point x="81" y="974" type="line"/>
    </contour>
  </outline>
</glyph>
<glyph name="o" format="1">
  <advance width="1036"/>
  <unicode hex="006F"/>
  <outline>
    <contour>
      <point x="46" y="494" type="line" smooth="yes"/>
      <point x="46" y="713"/>
      <point x="294" y="990"/>
      <point x="517" y="990" type="qcurve" smooth="yes"/>
      <point x="740" y="990"/>
      <point x="988" y="713"/>
      <point x="988" y="494" type="qcurve" smooth="yes"/>
      <point x="988" y="475" type="line" smooth="yes"/>
      <point x="988" y="254"/>
      <point x="740" y="-21"/>
      <point x="518" y="-21" type="qcurve" smooth="yes"/>
      <point x="294" y="-21"/>
      <point x="46" y="254"/>
      <point x="46" y="475" type="qcurve" smooth="yes"/>
    </contour>
    <contour>
      <point x="350" y="475" type="line" smooth="yes"/>
      <point x="350" y="353"/>
      <point x="427" y="213"/>
      <point x="518" y="213" type="qcurve" smooth="yes"/>
      <point x="608" y="213"/>
      <point x="685" y="353"/>
      <point x="685" y="475" type="qcurve" smooth="yes"/>
      <point x="685" y="494" type="line" smooth="yes"/>
      <point x="685" y="613"/>
      <point x="608" y="756"/>
      <point x="517" y="756" type="qcurve" smooth="yes"/>
      <point x="427" y="756"/>
      <point x="350" y="612"/>
      <point x="350" y="494" type="qcurve" smooth="yes"/>
    </contour>
  </outline>
</glyph>
<glyph name="p" format="1">
  <advance width="1036"/>
  <unicode hex="0070"/>
  <outline>
    <contour>
      <point x="988" y="425" type="line" smooth="yes"/>
      <point x="988" y="205"/>
      <point x="790" y="-60"/>
      <point x="610" y="-60" type="qcurve" smooth="yes"/>
      <point x="540" y="-60"/>
      <point x="431" y="-6"/>
      <point x="391" y="45" type="qcurve"/>
      <point x="391" y="-416" type="line"/>
      <point x="86" y="-416" type="line"/>
      <point x="86" y="932" type="line"/>
      <point x="371" y="932" type="line"/>
      <point x="382" y="825" type="line"/>
      <point x="423" y="885"/>
      <point x="535" y="950"/>
      <point x="608" y="950" type="qcurve" smooth="yes"/>
      <point x="789" y="950"/>
      <point x="988" y="671"/>
      <point x="988" y="444" type="qcurve" smooth="yes"/>
    </contour>
    <contour>
      <point x="685" y="444" type="line" smooth="yes"/>
      <point x="685" y="567"/>
      <point x="613" y="716"/>
      <point x="534" y="716" type="qcurve" smooth="yes"/>
      <point x="482" y="716"/>
      <point x="411" y="678"/>
      <point x="391" y="642" type="qcurve"/>
      <point x="391" y="236" type="line"/>
      <point x="412" y="204"/>
      <point x="483" y="174"/>
      <point x="536" y="174" type="qcurve" smooth="yes"/>
      <point x="616" y="174"/>
      <point x="685" y="306"/>
      <point x="685" y="425" type="qcurve" smooth="yes"/>
    </contour>
  </outline>
</glyph>
<glyph name="q" format="1">
  <advance width="1036"/>
  <unicode hex="0071"/>
  <outline>
    <contour>
      <point x="46" y="444" type="line" smooth="yes"/>
      <point x="46" y="671"/>
      <point x="245" y="950"/>
      <point x="426" y="950" type="qcurve" smooth="yes"/>
      <point x="502" y="950"/>
      <point x="620" y="877"/>
      <point x="662" y="810" type="qcurve"/>
      <point x="687" y="932" type="line"/>
      <point x="950" y="932" type="line"/>
      <point x="950" y="-416" type="line"/>
      <point x="646" y="-416" type="line"/>
      <point x="646" y="48" type="line"/>
      <point x="605" y="-5"/>
      <point x="494" y="-60"/>
      <point x="424" y="-60" type="qcurve" smooth="yes"/>
      <point x="244" y="-60"/>
      <point x="46" y="206"/>
      <point x="46" y="425" type="qcurve" smooth="yes"/>
    </contour>
    <contour>
      <point x="350" y="425" type="line" smooth="yes"/>
      <point x="350" y="306"/>
      <point x="419" y="174"/>
      <point x="501" y="174" type="qcurve" smooth="yes"/>
      <point x="552" y="174"/>
      <point x="624" y="205"/>
      <point x="646" y="237" type="qcurve"/>
      <point x="646" y="642" type="line"/>
      <point x="624" y="678"/>
      <point x="553" y="716"/>
      <point x="503" y="716" type="qcurve" smooth="yes"/>
      <point x="422" y="716"/>
      <point x="350" y="567"/>
      <point x="350" y="444" type="qcurve" smooth="yes"/>
    </contour>
  </outline>
</glyph>
<glyph name="r" format="1">
  <advance width="681"/>
  <unicode hex="0072"/>
  <outline>
    <contour>
      <point x="636" y="706" type="line"/>
      <point x="526" y="707" type="line" smooth="yes"/>
      <point x="473" y="707"/>
      <point x="407" y="671"/>
      <point x="391" y="639" type="qcurve"/>
      <point x="391" y="0" type="line"/>
      <point x="86" y="0" type="line"/>
      <point x="86" y="974" type="line"/>
      <point x="373" y="974" type="line"/>
      <point x="383" y="831" type="line"/>
      <point x="414" y="907"/>
      <point x="515" y="992"/>
      <point x="582" y="992" type="qcurve" smooth="yes"/>
      <point x="604" y="992"/>
      <point x="649" y="986"/>
      <point x="666" y="981" type="qcurve"/>
    </contour>
  </outline>
</glyph>
<glyph name="s" format="1">
  <advance width="943"/>
  <unicode hex="0073"/>
  <outline>
    <contour>
      <point x="594" y="272" type="qcurve" smooth="yes"/>
      <point x="594" y="308"/>
      <point x="512" y="364"/>
      <point x="404" y="387" type="qcurve" smooth="yes"/>
      <point x="234" y="420"/>
      <point x="61" y="560"/>
      <point x="61" y="682" type="qcurve" smooth="yes"/>
      <point x="61" y="811"/>
      <point x="277" y="990"/>
      <point x="462" y="990" type="qcurve" smooth="yes"/>
      <point x="656" y="990"/>
      <point x="887" y="816"/>
      <point x="881" y="678" type="qcurve"/>
      <point x="879" y="673" type="line"/>
      <point x="584" y="673" type="line"/>
      <point x="584" y="731"/>
      <point x="526" y="790"/>
      <point x="461" y="790" type="qcurve" smooth="yes"/>
      <point x="413" y="790"/>
      <point x="348" y="738"/>
      <point x="348" y="697" type="qcurve" smooth="yes"/>
      <point x="348" y="659"/>
      <point x="423" y="605"/>
      <point x="536" y="583" type="qcurve" smooth="yes"/>
      <point x="715" y="548"/>
      <point x="887" y="408"/>
      <point x="887" y="281" type="qcurve" smooth="yes"/>
      <point x="887" y="149"/>
      <point x="653" y="-21"/>
      <point x="462" y="-21" type="qcurve" smooth="yes"/>
      <point x="263" y="-21"/>
      <point x="32" y="181"/>
      <point x="37" y="305" type="qcurve"/>
      <point x="39" y="310" type="line"/>
      <point x="314" y="310" type="line"/>
      <point x="316" y="241"/>
      <point x="396" y="180"/>
      <point x="470" y="180" type="qcurve" smooth="yes"/>
      <point x="531" y="180"/>
      <point x="594" y="227"/>
    </contour>
  </outline>
</glyph>
<glyph name="t" format="1">
  <advance width="668"/>
  <unicode hex="0074"/>
  <outline>
    <contour>
      <point x="446" y="1214" type="line"/>
      <point x="446" y="972" type="line"/>
      <point x="611" y="972" type="line"/>
      <point x="611" y="761" type="line"/>
      <point x="446" y="761" type="line"/>
      <point x="446" y="315" type="line" smooth="yes"/>
      <point x="446" y="263"/>
      <point x="489" y="217"/>
      <point x="525" y="217" type="qcurve" smooth="yes"/>
      <point x="554" y="217"/>
      <point x="587" y="220"/>
      <point x="613" y="226" type="qcurve"/>
      <point x="635" y="1" type="line"/>
      <point x="584" y="-11"/>
      <point x="503" y="-21"/>
      <point x="448" y="-21" type="qcurve" smooth="yes"/>
      <point x="298" y="-21"/>
      <point x="143" y="139"/>
      <point x="143" y="313" type="qcurve" smooth="yes"/>
      <point x="143" y="761" type="line"/>
      <point x="6" y="761" type="line"/>
      <point x="6" y="972" type="line"/>
      <point x="143" y="972" type="line"/>
      <point x="143" y="1214" type="line"/>
    </contour>
  </outline>
</glyph>
<glyph name="u" format="1">
  <advance width="1036"/>
  <unicode hex="0075"/>
  <outline>
    <contour>
      <point x="671" y="113" type="line"/>
      <point x="624" y="48"/>
      <point x="488" y="-21"/>
      <point x="402" y="-21" type="qcurve" smooth="yes"/>
      <point x="251" y="-21"/>
      <point x="79" y="173"/>
      <point x="79" y="378" type="qcurve" smooth="yes"/>
      <point x="79" y="972" type="line"/>
      <point x="383" y="972" type="line"/>
      <point x="383" y="376" type="line" smooth="yes"/>
      <point x="383" y="294"/>
      <point x="445" y="213"/>
      <point x="502" y="213" type="qcurve" smooth="yes"/>
      <point x="551" y="213"/>
      <point x="625" y="240"/>
      <point x="651" y="267" type="qcurve"/>
      <point x="651" y="972" type="line"/>
      <point x="955" y="972" type="line"/>
      <point x="955" y="-2" type="line"/>
      <point x="689" y="-2" type="line"/>
    </contour>
  </outline>
</glyph>
<glyph name="v" format="1">
  <advance width="948"/>
  <unicode hex="0076"/>
  <outline>
    <contour>
      <point x="451" y="401" type="line"/>
      <point x="469" y="298" type="line"/>
      <point x="474" y="297" type="line"/>
      <point x="494" y="401" type="line"/>
      <point x="623" y="974" type="line"/>
      <point x="942" y="974" type="line"/>
      <point x="626" y="0" type="line"/>
      <point x="317" y="0" type="line"/>
      <point x="0" y="974" type="line"/>
      <point x="320" y="974" type="line"/>
    </contour>
  </outline>
</glyph>
<glyph name="w" format="1">
  <advance width="1337"/>
  <unicode hex="0077"/>
  <outline>
    <contour>
      <point x="923" y="410" type="line"/>
      <point x="928" y="410" type="line"/>
      <point x="1033" y="974" type="line"/>
      <point x="1314" y="974" type="line"/>
      <point x="1085" y="0" type="line"/>
      <point x="828" y="0" type="line"/>
      <point x="670" y="517" type="line"/>
      <point x="664" y="517" type="line"/>
      <point x="505" y="0" type="line"/>
      <point x="248" y="0" type="line"/>
      <point x="19" y="974" type="line"/>
      <point x="300" y="974" type="line"/>
      <point x="407" y="405" type="line"/>
      <point x="412" y="405" type="line"/>
      <point x="571" y="974" type="line"/>
      <point x="762" y="974" type="line"/>
    </contour>
  </outline>
</glyph>
<glyph name="x" format="1">
  <advance width="948"/>
  <unicode hex="0078"/>
  <outline>
    <contour>
      <point x="472" y="687" type="line"/>
      <point x="477" y="687" type="line"/>
      <point x="600" y="974" type="line"/>
      <point x="941" y="974" type="line"/>
      <point x="659" y="492" type="line"/>
      <point x="951" y="0" type="line"/>
      <point x="610" y="0" type="line"/>
      <point x="481" y="296" type="line"/>
      <point x="475" y="296" type="line"/>
      <point x="346" y="0" type="line"/>
      <point x="5" y="0" type="line"/>
      <point x="297" y="492" type="line"/>
      <point x="14" y="974" type="line"/>
      <point x="353" y="974" type="line"/>
    </contour>
  </outline>
</glyph>
<glyph name="y" format="1">
  <advance width="948"/>
  <unicode hex="0079"/>
  <outline>
    <contour>
      <point x="464" y="386" type="line"/>
      <point x="464" y="378" type="line"/>
      <point x="470" y="378" type="line"/>
      <point x="631" y="930" type="line"/>
      <point x="955" y="930" type="line"/>
      <point x="567" y="-189" type="line"/>
      <point x="522" y="-297"/>
      <point x="380" y="-437"/>
      <point x="225" y="-437" type="qcurve" smooth="yes"/>
      <point x="185" y="-437"/>
      <point x="135" y="-427"/>
      <point x="81" y="-414" type="qcurve"/>
      <point x="118" y="-197" type="line"/>
      <point x="131" y="-199"/>
      <point x="143" y="-202"/>
      <point x="153" y="-202" type="qcurve" smooth="yes"/>
      <point x="225" y="-202"/>
      <point x="292" y="-160"/>
      <point x="308" y="-117" type="qcurve" smooth="yes"/>
      <point x="332" y="-54" type="line"/>
      <point x="-5" y="930" type="line"/>
      <point x="319" y="930" type="line"/>
    </contour>
  </outline>
</glyph>
<glyph name="z" format="1">
  <advance width="948"/>
  <unicode hex="007A"/>
  <outline>
    <contour>
      <point x="443" y="234" type="line"/>
      <point x="886" y="234" type="line"/>
      <point x="886" y="0" type="line"/>
      <point x="59" y="0" type="line"/>
      <point x="59" y="169" type="line"/>
      <point x="491" y="740" type="line"/>
      <point x="77" y="740" type="line"/>
      <point x="77" y="974" type="line"/>
      <point x="877" y="974" type="line"/>
      <point x="877" y="810" type="line"/>
    </contour>
  </outline>
</glyph>
<glyph name="bar" format="1">
  <advance width="731"/>
  <unicode hex="007C"/>
  <outline>
    <contour>
      <point x="450" y="-243" type="line"/>
      <point x="285" y="-243" type="line"/>
      <point x="285" y="1310" type="line"/>
      <point x="450" y="1310" type="line"/>
    </contour>
  </outline>
</glyph>
<glyph name="braceright" format="1">
  <advance width="858"/>
  <unicode hex="007D"/>
  <outline>
    <contour>
      <point x="167" y="-165" type="line"/>
      <point x="232" y="-139"/>
      <point x="285" y="-5"/>
      <point x="285" y="95" type="qcurve"/>
      <point x="285" y="278" type="line"/>
      <point x="285" y="371"/>
      <point x="367" y="516"/>
      <point x="452" y="557" type="qcurve"/>
      <point x="367" y="598"/>
      <point x="285" y="742"/>
      <point x="285" y="836" type="qcurve"/>
      <point x="285" y="1019" type="line"/>
      <point x="285" y="1120"/>
      <point x="232" y="1253"/>
      <point x="167" y="1279" type="qcurve"/>
      <point x="224" y="1437" type="line"/>
      <point x="398" y="1388"/>
      <point x="548" y="1173"/>
      <point x="548" y="1019" type="qcurve"/>
      <point x="548" y="836" type="line"/>
      <point x="548" y="751"/>
      <point x="619" y="659"/>
      <point x="693" y="659" type="qcurve"/>
      <point x="693" y="454" type="line"/>
      <point x="619" y="454"/>
      <point x="548" y="361"/>
      <point x="548" y="278" type="qcurve"/>
      <point x="548" y="95" type="line"/>
      <point x="548" y="-59"/>
      <point x="398" y="-275"/>
      <point x="224" y="-324" type="qcurve"/>
    </contour>
  </outline>
</glyph>
<glyph name="asciitilde" format="1">
  <advance width="1166"/>
  <unicode hex="007E"/>
  <outline>
    <contour>
      <point x="1077" y="729" type="line"/>
      <point x="1077" y="571"/>
      <point x="918" y="367"/>
      <point x="794" y="367" type="qcurve" smooth="yes"/>
      <point x="719" y="367"/>
      <point x="591" y="422"/>
      <point x="524" y="484" type="qcurve" smooth="yes"/>
      <point x="482" y="523"/>
      <point x="423" y="555"/>
      <point x="386" y="555" type="qcurve" smooth="yes"/>
      <point x="347" y="555"/>
      <point x="293" y="465"/>
      <point x="293" y="401" type="qcurve"/>
      <point x="85" y="428" type="line"/>
      <point x="85" y="586"/>
      <point x="241" y="789"/>
      <point x="366" y="789" type="qcurve" smooth="yes"/>
      <point x="439" y="789"/>
      <point x="574" y="731"/>
      <point x="639" y="673" type="qcurve" smooth="yes"/>
      <point x="678" y="635"/>
      <point x="738" y="602"/>
      <point x="773" y="602" type="qcurve" smooth="yes"/>
      <point x="812" y="602"/>
      <point x="869" y="692"/>
      <point x="869" y="757" type="qcurve"/>
    </contour>
  </outline>
</glyph>
<glyph name="exclamdown" format="1">
  <advance width="554"/>
  <unicode hex="00A1"/>
  <outline>
    <contour>
      <point x="154" y="524" type="line"/>
      <point x="400" y="524" type="line"/>
      <point x="438" y="-372" type="line"/>
      <point x="115" y="-372" type="line"/>
    </contour>
    <contour>
      <point x="447" y="803" type="qcurve" smooth="yes"/>
      <point x="447" y="736"/>
      <point x="351" y="650"/>
      <point x="279" y="650" type="qcurve" smooth="yes" name="inserted"/>
      <point x="207" y="650"/>
      <point x="111" y="736"/>
      <point x="111" y="803" type="qcurve" smooth="yes" name="inserted"/>
      <point x="111" y="869"/>
      <point x="207" y="955"/>
      <point x="279" y="955" type="qcurve" smooth="yes" name="inserted"/>
      <point x="351" y="955"/>
      <point x="447" y="869"/>
    </contour>
  </outline>
</glyph>
<glyph name="cent" format="1">
  <advance width="1088"/>
  <unicode hex="00A2"/>
  <outline>
    <contour>
      <point x="538" y="192" type="qcurve" smooth="yes"/>
      <point x="602" y="192"/>
      <point x="672" y="261"/>
      <point x="671" y="323" type="qcurve"/>
      <point x="956" y="323" type="line"/>
      <point x="956" y="183"/>
      <point x="781" y="-9"/>
      <point x="639" y="-34" type="qcurve"/>
      <point x="639" y="-245" type="line"/>
      <point x="459" y="-245" type="line"/>
      <point x="459" y="-36" type="line"/>
      <point x="285" y="-11"/>
      <point x="88" y="247"/>
      <point x="88" y="456" type="qcurve" smooth="yes"/>
      <point x="88" y="472" type="line" smooth="yes"/>
      <point x="88" y="674"/>
      <point x="284" y="936"/>
      <point x="459" y="961" type="qcurve"/>
      <point x="459" y="1162" type="line"/>
      <point x="639" y="1162" type="line"/>
      <point x="639" y="959" type="line"/>
      <point x="788" y="933"/>
      <point x="956" y="731"/>
      <point x="956" y="577" type="qcurve"/>
      <point x="671" y="577" type="line"/>
      <point x="671" y="652"/>
      <point x="598" y="733"/>
      <point x="536" y="733" type="qcurve" smooth="yes"/>
      <point x="477" y="733" name="inserted"/>
      <point x="408" y="658"/>
      <point x="398" y="583" type="qcurve" smooth="yes"/>
      <point x="395" y="559" name="inserted"/>
      <point x="392" y="493"/>
      <point x="392" y="452" type="qcurve" smooth="yes"/>
      <point x="392" y="305"/>
      <point x="462" y="192"/>
    </contour>
  </outline>
</glyph>
<glyph name="sterling" format="1">
  <advance width="1106"/>
  <unicode hex="00A3"/>
  <outline>
    <contour>
      <point x="559" y="505" type="line"/>
      <point x="563" y="404" type="line" smooth="yes"/>
      <point x="563" y="353" name="inserted"/>
      <point x="537" y="272"/>
      <point x="510" y="243" type="qcurve"/>
      <point x="1058" y="243" type="line"/>
      <point x="1058" y="0" type="line"/>
      <point x="95" y="0" type="line"/>
      <point x="95" y="243" type="line"/>
      <point x="188" y="243" type="line"/>
      <point x="214" y="250" name="inserted"/>
      <point x="241" y="296"/>
      <point x="242" y="336" type="qcurve" smooth="yes"/>
      <point x="243" y="383" type="line"/>
      <point x="239" y="505" type="line"/>
      <point x="93" y="505" type="line"/>
      <point x="93" y="740" type="line"/>
      <point x="231" y="740" type="line"/>
      <point x="226" y="935" type="line" smooth="yes"/>
      <point x="226" y="1120"/>
      <point x="446" y="1328"/>
      <point x="635" y="1328" type="qcurve" smooth="yes"/>
      <point x="836" y="1328"/>
      <point x="1062" y="1121"/>
      <point x="1062" y="943" type="qcurve"/>
      <point x="765" y="943" type="line"/>
      <point x="765" y="1014" name="inserted"/>
      <point x="704" y="1085"/>
      <point x="643" y="1085" type="qcurve" smooth="yes"/>
      <point x="597" y="1085"/>
      <point x="541" y="1012"/>
      <point x="541" y="935" type="qcurve" smooth="yes"/>
      <point x="549" y="740" type="line"/>
      <point x="825" y="740" type="line"/>
      <point x="825" y="505" type="line"/>
    </contour>
  </outline>
</glyph>
<glyph name="currency" format="1">
  <advance width="1257"/>
  <unicode hex="00A4"/>
  <outline>
    <contour>
      <point x="955" y="94" type="line"/>
      <point x="883" y="36" name="inserted"/>
      <point x="721" y="-21"/>
      <point x="630" y="-21" type="qcurve" smooth="yes"/>
      <point x="539" y="-21" name="inserted"/>
      <point x="376" y="36"/>
      <point x="305" y="93" type="qcurve"/>
      <point x="189" y="-26" type="line"/>
      <point x="62" y="104" type="line"/>
      <point x="184" y="227" type="line"/>
      <point x="139" y="297" name="inserted"/>
      <point x="94" y="456"/>
      <point x="94" y="545" type="qcurve" smooth="yes"/>
      <point x="94" y="636" name="inserted"/>
      <point x="143" y="801"/>
      <point x="192" y="873" type="qcurve"/>
      <point x="62" y="1005" type="line"/>
      <point x="189" y="1135" type="line"/>
      <point x="317" y="1004" type="line"/>
      <point x="387" y="1056" name="inserted"/>
      <point x="543" y="1108"/>
      <point x="630" y="1108" type="qcurve" smooth="yes"/>
      <point x="717" y="1108" name="inserted"/>
      <point x="874" y="1055"/>
      <point x="944" y="1003" type="qcurve"/>
      <point x="1074" y="1136" type="line"/>
      <point x="1202" y="1005" type="line"/>
      <point x="1068" y="869" type="line"/>
      <point x="1116" y="798" name="inserted"/>
      <point x="1165" y="635"/>
      <point x="1165" y="545" type="qcurve" smooth="yes"/>
      <point x="1165" y="458" name="inserted"/>
      <point x="1121" y="301"/>
      <point x="1076" y="230" type="qcurve"/>
      <point x="1202" y="104" type="line"/>
      <point x="1074" y="-27" type="line"/>
    </contour>
    <contour>
      <point x="261" y="545" type="qcurve" smooth="yes"/>
      <point x="261" y="438"/>
      <point x="358" y="257"/>
      <point x="444" y="205" type="qcurve" smooth="yes" name="inserted"/>
      <point x="486" y="179" name="inserted"/>
      <point x="580" y="153"/>
      <point x="630" y="153" type="qcurve" smooth="yes"/>
      <point x="730" y="153"/>
      <point x="901" y="257"/>
      <point x="950" y="348" type="qcurve" smooth="yes" name="inserted"/>
      <point x="974" y="393" name="inserted"/>
      <point x="998" y="491"/>
      <point x="998" y="545" type="qcurve" smooth="yes"/>
      <point x="998" y="652"/>
      <point x="900" y="833"/>
      <point x="815" y="884" type="qcurve" smooth="yes" name="inserted"/>
      <point x="772" y="909" name="inserted"/>
      <point x="680" y="935"/>
      <point x="630" y="935" type="qcurve" smooth="yes"/>
      <point x="529" y="935"/>
      <point x="359" y="833"/>
      <point x="310" y="742" type="qcurve" smooth="yes" name="inserted"/>
      <point x="286" y="697" name="inserted"/>
      <point x="261" y="598"/>
    </contour>
  </outline>
</glyph>
<glyph name="yen" format="1">
  <advance width="1133"/>
  <unicode hex="00A5"/>
  <outline>
    <contour>
      <point x="570" y="792" type="line"/>
      <point x="782" y="1310" type="line"/>
      <point x="1123" y="1310" type="line"/>
      <point x="798" y="668" type="line"/>
      <point x="981" y="668" type="line"/>
      <point x="981" y="497" type="line"/>
      <point x="723" y="497" type="line"/>
      <point x="723" y="407" type="line"/>
      <point x="981" y="407" type="line"/>
      <point x="981" y="237" type="line"/>
      <point x="723" y="237" type="line"/>
      <point x="723" y="0" type="line"/>
      <point x="409" y="0" type="line"/>
      <point x="409" y="237" type="line"/>
      <point x="122" y="237" type="line"/>
      <point x="122" y="407" type="line"/>
      <point x="409" y="407" type="line"/>
      <point x="409" y="497" type="line"/>
      <point x="122" y="497" type="line"/>
      <point x="122" y="668" type="line"/>
      <point x="340" y="668" type="line"/>
      <point x="14" y="1310" type="line"/>
      <point x="356" y="1310" type="line"/>
    </contour>
  </outline>
</glyph>
<glyph name="brokenbar" format="1">
  <advance width="472"/>
  <unicode hex="00A6"/>
  <outline>
    <contour>
      <point x="107" y="-270" type="line"/>
      <point x="107" y="446" type="line"/>
      <point x="370" y="446" type="line"/>
      <point x="370" y="-270" type="line"/>
    </contour>
    <contour>
      <point x="370" y="601" type="line"/>
      <point x="107" y="601" type="line"/>
      <point x="107" y="1283" type="line"/>
      <point x="370" y="1283" type="line"/>
    </contour>
  </outline>
</glyph>
<glyph name="section" format="1">
  <advance width="1171"/>
  <unicode hex="00A7"/>
  <outline>
    <contour>
      <point x="1076" y="406" type="qcurve" smooth="yes"/>
      <point x="1076" y="327" name="inserted"/>
      <point x="1007" y="206"/>
      <point x="937" y="165" type="qcurve"/>
      <point x="999" y="119" name="inserted"/>
      <point x="1061" y="-13"/>
      <point x="1061" y="-99" type="qcurve" smooth="yes"/>
      <point x="1061" y="-258"/>
      <point x="806" y="-437"/>
      <point x="583" y="-437" type="qcurve" smooth="yes"/>
      <point x="342" y="-437"/>
      <point x="85" y="-244"/>
      <point x="85" y="-66" type="qcurve"/>
      <point x="389" y="-66" type="line"/>
      <point x="389" y="-134"/>
      <point x="480" y="-202"/>
      <point x="583" y="-202" type="qcurve" smooth="yes"/>
      <point x="670" y="-202" name="inserted"/>
      <point x="757" y="-151"/>
      <point x="757" y="-100" type="qcurve" smooth="yes"/>
      <point x="757" y="-47"/>
      <point x="653" y="18"/>
      <point x="492" y="63" type="qcurve" smooth="yes" name="inserted"/>
      <point x="331" y="108"/>
      <point x="167" y="206"/>
      <point x="126" y="273" type="qcurve" smooth="yes" name="inserted"/>
      <point x="105" y="306" name="inserted"/>
      <point x="85" y="386"/>
      <point x="85" y="432" type="qcurve" smooth="yes"/>
      <point x="85" y="511" name="inserted"/>
      <point x="155" y="632"/>
      <point x="226" y="675" type="qcurve"/>
      <point x="162" y="722" name="inserted"/>
      <point x="99" y="854"/>
      <point x="99" y="937" type="qcurve" smooth="yes"/>
      <point x="99" y="1094"/>
      <point x="360" y="1285"/>
      <point x="580" y="1285" type="qcurve" smooth="yes"/>
      <point x="805" y="1285"/>
      <point x="1058" y="1083"/>
      <point x="1058" y="902" type="qcurve"/>
      <point x="755" y="902" type="line"/>
      <point x="755" y="970"/>
      <point x="662" y="1051"/>
      <point x="580" y="1051" type="qcurve" smooth="yes"/>
      <point x="494" y="1051"/>
      <point x="404" y="991"/>
      <point x="404" y="939" type="qcurve" smooth="yes"/>
      <point x="404" y="880"/>
      <point x="505" y="819"/>
      <point x="636" y="785" type="qcurve" smooth="yes" name="inserted"/>
      <point x="768" y="751"/>
      <point x="923" y="684"/>
      <point x="973" y="640" type="qcurve" smooth="yes" name="inserted"/>
      <point x="1024" y="596"/>
      <point x="1076" y="482"/>
    </contour>
    <contour>
      <point x="537" y="543" type="qcurve" smooth="yes"/>
      <point x="509" y="550" name="inserted"/>
      <point x="457" y="567"/>
      <point x="432" y="576" type="qcurve"/>
      <point x="410" y="558" name="inserted"/>
      <point x="388" y="504"/>
      <point x="388" y="468" type="qcurve" smooth="yes"/>
      <point x="388" y="406"/>
      <point x="468" y="342"/>
      <point x="621" y="295" type="qcurve" smooth="yes"/>
      <point x="727" y="264" type="line"/>
      <point x="752" y="284" name="inserted"/>
      <point x="778" y="338"/>
      <point x="778" y="372" type="qcurve" smooth="yes"/>
      <point x="778" y="428"/>
      <point x="679" y="499"/>
    </contour>
  </outline>
</glyph>
<glyph name="dieresis" format="1">
  <advance width="912"/>
  <unicode hex="00A8"/>
  <outline>
    <contour>
      <point x="220" y="1471" type="qcurve" smooth="yes"/>
      <point x="276" y="1471"/>
      <point x="355" y="1401"/>
      <point x="355" y="1352" type="qcurve" smooth="yes" name="inserted"/>
      <point x="355" y="1302"/>
      <point x="276" y="1232"/>
      <point x="220" y="1232" type="qcurve" smooth="yes"/>
      <point x="162" y="1232"/>
      <point x="84" y="1302"/>
      <point x="84" y="1352" type="qcurve" smooth="yes" name="inserted"/>
      <point x="84" y="1401"/>
      <point x="162" y="1471"/>
    </contour>
    <contour>
      <point x="687" y="1471" type="qcurve" smooth="yes"/>
      <point x="743" y="1471"/>
      <point x="822" y="1401"/>
      <point x="822" y="1352" type="qcurve" smooth="yes" name="inserted"/>
      <point x="822" y="1302"/>
      <point x="743" y="1232"/>
      <point x="687" y="1232" type="qcurve" smooth="yes"/>
      <point x="629" y="1232"/>
      <point x="551" y="1302"/>
      <point x="551" y="1352" type="qcurve" smooth="yes" name="inserted"/>
      <point x="551" y="1401"/>
      <point x="629" y="1471"/>
    </contour>
  </outline>
</glyph>
<glyph name="copyright" format="1">
  <advance width="1447"/>
  <unicode hex="00A9"/>
  <outline>
    <contour>
      <point x="997" y="534" type="line"/>
      <point x="999" y="529" type="line"/>
      <point x="1003" y="393"/>
      <point x="844" y="252"/>
      <point x="703" y="252" type="qcurve" smooth="yes"/>
      <point x="559" y="252"/>
      <point x="389" y="443"/>
      <point x="389" y="600" type="qcurve" smooth="yes"/>
      <point x="389" y="707" type="line" smooth="yes"/>
      <point x="389" y="863"/>
      <point x="559" y="1055"/>
      <point x="703" y="1055" type="qcurve" smooth="yes"/>
      <point x="844" y="1055"/>
      <point x="1004" y="912"/>
      <point x="1000" y="778" type="qcurve"/>
      <point x="998" y="773" type="line"/>
      <point x="865" y="773" type="line"/>
      <point x="865" y="857"/>
      <point x="784" y="934"/>
      <point x="703" y="934" type="qcurve" smooth="yes"/>
      <point x="618" y="934"/>
      <point x="528" y="810"/>
      <point x="528" y="708" type="qcurve" smooth="yes"/>
      <point x="528" y="600" type="line" smooth="yes"/>
      <point x="528" y="497"/>
      <point x="618" y="373"/>
      <point x="703" y="373" type="qcurve" smooth="yes"/>
      <point x="784" y="373"/>
      <point x="864" y="448"/>
      <point x="864" y="534" type="qcurve"/>
    </contour>
    <contour>
      <point x="186" y="654" type="qcurve" smooth="yes"/>
      <point x="186" y="416"/>
      <point x="495" y="92"/>
      <point x="716" y="92" type="qcurve" smooth="yes"/>
      <point x="935" y="92"/>
      <point x="1244" y="416"/>
      <point x="1244" y="654" type="qcurve" smooth="yes"/>
      <point x="1244" y="891"/>
      <point x="935" y="1214"/>
      <point x="716" y="1214" type="qcurve" smooth="yes"/>
      <point x="494" y="1214"/>
      <point x="186" y="891"/>
    </contour>
    <contour>
      <point x="77" y="654" type="qcurve" smooth="yes"/>
      <point x="77" y="938"/>
      <point x="449" y="1326"/>
      <point x="716" y="1326" type="qcurve" smooth="yes"/>
      <point x="981" y="1326"/>
      <point x="1355" y="938"/>
      <point x="1355" y="654" type="qcurve" smooth="yes"/>
      <point x="1355" y="370"/>
      <point x="980" y="-21"/>
      <point x="716" y="-21" type="qcurve" smooth="yes"/>
      <point x="449" y="-21"/>
      <point x="77" y="370"/>
    </contour>
  </outline>
</glyph>
<glyph name="ordfeminine" format="1">
  <advance width="814"/>
  <unicode hex="00AA"/>
  <outline>
    <contour>
      <point x="540" y="704" type="line"/>
      <point x="536" y="716" name="inserted"/>
      <point x="528" y="746"/>
      <point x="525" y="765" type="qcurve"/>
      <point x="490" y="728" name="inserted"/>
      <point x="400" y="691"/>
      <point x="344" y="691" type="qcurve" smooth="yes"/>
      <point x="238" y="691"/>
      <point x="120" y="802"/>
      <point x="120" y="896" type="qcurve" smooth="yes"/>
      <point x="120" y="995"/>
      <point x="271" y="1104"/>
      <point x="427" y="1104" type="qcurve" smooth="yes"/>
      <point x="518" y="1104" type="line"/>
      <point x="518" y="1150" type="line" smooth="yes"/>
      <point x="518" y="1207" name="inserted"/>
      <point x="466" y="1264"/>
      <point x="414" y="1264" type="qcurve" smooth="yes"/>
      <point x="356" y="1264"/>
      <point x="290" y="1218"/>
      <point x="290" y="1175" type="qcurve"/>
      <point x="134" y="1188" type="line"/>
      <point x="134" y="1281"/>
      <point x="292" y="1398"/>
      <point x="414" y="1398" type="qcurve" smooth="yes"/>
      <point x="536" y="1398"/>
      <point x="676" y="1268"/>
      <point x="676" y="1148" type="qcurve" smooth="yes"/>
      <point x="676" y="864" type="line" smooth="yes"/>
      <point x="676" y="820" name="inserted"/>
      <point x="688" y="740"/>
      <point x="699" y="704" type="qcurve"/>
    </contour>
    <contour>
      <point x="383" y="821" type="qcurve" smooth="yes"/>
      <point x="419" y="821"/>
      <point x="494" y="854"/>
      <point x="518" y="876" type="qcurve"/>
      <point x="518" y="999" type="line"/>
      <point x="423" y="999" type="line" smooth="yes"/>
      <point x="355" y="998"/>
      <point x="277" y="944"/>
      <point x="277" y="900" type="qcurve" smooth="yes"/>
      <point x="277" y="860" name="inserted"/>
      <point x="330" y="821"/>
    </contour>
  </outline>
</glyph>
<glyph name="logicalnot" format="1">
  <advance width="1012"/>
  <unicode hex="00AC"/>
  <outline>
    <contour>
      <point x="864" y="374" type="line"/>
      <point x="684" y="374" type="line"/>
      <point x="684" y="608" type="line"/>
      <point x="113" y="608" type="line"/>
      <point x="113" y="762" type="line"/>
      <point x="864" y="762" type="line"/>
    </contour>
  </outline>
</glyph>
<glyph name="registered" format="1">
  <advance width="1447"/>
  <unicode hex="00AE"/>
  <outline>
    <contour>
      <point x="77" y="654" type="qcurve" smooth="yes"/>
      <point x="77" y="836"/>
      <point x="245" y="1147"/>
      <point x="394" y="1237" type="qcurve" smooth="yes" name="inserted"/>
      <point x="543" y="1326"/>
      <point x="888" y="1326"/>
      <point x="1037" y="1237" type="qcurve" smooth="yes" name="inserted"/>
      <point x="1186" y="1147"/>
      <point x="1355" y="836"/>
      <point x="1355" y="654" type="qcurve" smooth="yes"/>
      <point x="1355" y="471"/>
      <point x="1184" y="158"/>
      <point x="1035" y="69" type="qcurve" smooth="yes" name="inserted"/>
      <point x="961" y="25" name="inserted"/>
      <point x="801" y="-20"/>
      <point x="716" y="-20" type="qcurve" smooth="yes"/>
      <point x="542" y="-20"/>
      <point x="246" y="160"/>
      <point x="161" y="316" type="qcurve" smooth="yes" name="inserted"/>
      <point x="119" y="394" name="inserted"/>
      <point x="77" y="563"/>
    </contour>
    <contour>
      <point x="186" y="654" type="qcurve" smooth="yes"/>
      <point x="186" y="506"/>
      <point x="320" y="248"/>
      <point x="444" y="170" type="qcurve" smooth="yes" name="inserted"/>
      <point x="505" y="131" name="inserted"/>
      <point x="641" y="93"/>
      <point x="716" y="93" type="qcurve" smooth="yes"/>
      <point x="863" y="93"/>
      <point x="1109" y="247"/>
      <point x="1176" y="376" type="qcurve" smooth="yes" name="inserted"/>
      <point x="1244" y="505"/>
      <point x="1244" y="804"/>
      <point x="1176" y="932" type="qcurve" smooth="yes" name="inserted"/>
      <point x="1109" y="1060"/>
      <point x="862" y="1214"/>
      <point x="716" y="1214" type="qcurve" smooth="yes"/>
      <point x="572" y="1214"/>
      <point x="327" y="1066"/>
      <point x="257" y="937" type="qcurve" smooth="yes" name="inserted"/>
      <point x="221" y="872" name="inserted"/>
      <point x="186" y="731"/>
    </contour>
    <contour>
      <point x="586" y="586" type="line"/>
      <point x="586" y="282" type="line"/>
      <point x="450" y="282" type="line"/>
      <point x="450" y="1047" type="line"/>
      <point x="703" y="1047" type="line" smooth="yes"/>
      <point x="842" y="1047"/>
      <point x="995" y="921"/>
      <point x="995" y="810" type="qcurve" smooth="yes"/>
      <point x="995" y="760" name="inserted"/>
      <point x="947" y="684"/>
      <point x="899" y="657" type="qcurve"/>
      <point x="951" y="628"/>
      <point x="993" y="527"/>
      <point x="993" y="453" type="qcurve" smooth="yes" name="inserted"/>
      <point x="993" y="379"/>
      <point x="999" y="318"/>
      <point x="1008" y="297" type="qcurve"/>
      <point x="1008" y="282" type="line"/>
      <point x="869" y="282" type="line"/>
      <point x="863" y="298" name="inserted"/>
      <point x="857" y="385"/>
      <point x="857" y="457" type="qcurve" smooth="yes"/>
      <point x="857" y="525"/>
      <point x="797" y="586"/>
      <point x="728" y="586" type="qcurve" smooth="yes"/>
    </contour>
    <contour>
      <point x="586" y="706" type="line"/>
      <point x="701" y="706" type="line" smooth="yes"/>
      <point x="770" y="706"/>
      <point x="860" y="763"/>
      <point x="860" y="811" type="qcurve" smooth="yes"/>
      <point x="860" y="874"/>
      <point x="797" y="927"/>
      <point x="713" y="928" type="qcurve" smooth="yes"/>
      <point x="586" y="928" type="line"/>
    </contour>
  </outline>
</glyph>
<glyph name="macron" format="1">
  <advance width="959"/>
  <unicode hex="00AF"/>
  <outline>
    <contour>
      <point x="806" y="1285" type="line"/>
      <point x="145" y="1285" type="line"/>
      <point x="145" y="1441" type="line"/>
      <point x="806" y="1441" type="line"/>
    </contour>
  </outline>
</glyph>
<glyph name="degree" format="1">
  <advance width="732"/>
  <unicode hex="00B0"/>
  <outline>
    <contour>
      <point x="113" y="1167" type="qcurve" smooth="yes"/>
      <point x="113" y="1273"/>
      <point x="263" y="1420"/>
      <point x="365" y="1420" type="qcurve" smooth="yes"/>
      <point x="466" y="1420"/>
      <point x="613" y="1273"/>
      <point x="613" y="1167" type="qcurve" smooth="yes"/>
      <point x="613" y="1063"/>
      <point x="468" y="918"/>
      <point x="365" y="918" type="qcurve" smooth="yes"/>
      <point x="261" y="918"/>
      <point x="113" y="1063"/>
    </contour>
    <contour>
      <point x="365" y="1056" type="qcurve" smooth="yes"/>
      <point x="413" y="1056"/>
      <point x="474" y="1121"/>
      <point x="474" y="1167" type="qcurve" smooth="yes" name="inserted"/>
      <point x="474" y="1214"/>
      <point x="413" y="1283"/>
      <point x="365" y="1283" type="qcurve" smooth="yes" name="inserted"/>
      <point x="318" y="1283"/>
      <point x="252" y="1215"/>
      <point x="252" y="1167" type="qcurve" smooth="yes" name="inserted"/>
      <point x="252" y="1120"/>
      <point x="320" y="1056"/>
    </contour>
  </outline>
</glyph>
<glyph name="plusminus" format="1">
  <advance width="992"/>
  <unicode hex="00B1"/>
  <outline>
    <contour>
      <point x="619" y="877" type="line"/>
      <point x="900" y="877" type="line"/>
      <point x="900" y="633" type="line"/>
      <point x="619" y="633" type="line"/>
      <point x="619" y="320" type="line"/>
      <point x="355" y="320" type="line"/>
      <point x="355" y="633" type="line"/>
      <point x="76" y="633" type="line"/>
      <point x="76" y="877" type="line"/>
      <point x="355" y="877" type="line"/>
      <point x="355" y="1164" type="line"/>
      <point x="619" y="1164" type="line"/>
    </contour>
    <contour>
      <point x="881" y="1" type="line"/>
      <point x="91" y="1" type="line"/>
      <point x="91" y="239" type="line"/>
      <point x="881" y="239" type="line"/>
    </contour>
  </outline>
</glyph>
<glyph name="acute" format="1">
  <advance width="622"/>
  <unicode hex="00B4"/>
  <outline>
    <contour>
      <point x="258" y="1505" type="line"/>
      <point x="579" y="1505" type="line"/>
      <point x="329" y="1222" type="line"/>
      <point x="81" y="1222" type="line"/>
    </contour>
  </outline>
</glyph>
<glyph name="uni00B5" format="1">
  <advance width="1182"/>
  <unicode hex="00B5"/>
  <outline>
    <contour>
      <point x="423" y="932" type="line"/>
      <point x="423" y="363" type="line" smooth="yes"/>
      <point x="424" y="267"/>
      <point x="488" y="177"/>
      <point x="570" y="177" type="qcurve" smooth="yes"/>
      <point x="627" y="177" name="inserted"/>
      <point x="709" y="218"/>
      <point x="733" y="259" type="qcurve"/>
      <point x="733" y="932" type="line"/>
      <point x="1036" y="932" type="line"/>
      <point x="1036" y="-42" type="line"/>
      <point x="751" y="-42" type="line"/>
      <point x="746" y="6" type="line"/>
      <point x="706" y="-27" name="inserted"/>
      <point x="612" y="-60"/>
      <point x="557" y="-60" type="qcurve" smooth="yes"/>
      <point x="519" y="-60" name="inserted"/>
      <point x="452" y="-45"/>
      <point x="423" y="-30" type="qcurve"/>
      <point x="423" y="-416" type="line"/>
      <point x="119" y="-416" type="line"/>
      <point x="119" y="932" type="line"/>
    </contour>
  </outline>
</glyph>
<glyph name="paragraph" format="1">
  <advance width="901"/>
  <unicode hex="00B6"/>
  <outline>
    <contour>
      <point x="591" y="0" type="line"/>
      <point x="591" y="468" type="line"/>
      <point x="519" y="468" type="line" smooth="yes"/>
      <point x="312" y="468"/>
      <point x="74" y="697"/>
      <point x="74" y="889" type="qcurve" smooth="yes"/>
      <point x="74" y="1081"/>
      <point x="313" y="1310"/>
      <point x="520" y="1310" type="qcurve" smooth="yes"/>
      <point x="797" y="1310" type="line"/>
      <point x="797" y="0" type="line"/>
    </contour>
  </outline>
</glyph>
<glyph name="periodcentered" format="1">
  <advance width="591"/>
  <unicode hex="00B7"/>
  <outline>
    <contour>
      <point x="292" y="820" type="qcurve" smooth="yes"/>
      <point x="365" y="820"/>
      <point x="459" y="734"/>
      <point x="459" y="668" type="qcurve" smooth="yes" name="inserted"/>
      <point x="459" y="602"/>
      <point x="365" y="516"/>
      <point x="292" y="516" type="qcurve" smooth="yes"/>
      <point x="220" y="516"/>
      <point x="124" y="602"/>
      <point x="124" y="668" type="qcurve" smooth="yes" name="inserted"/>
      <point x="124" y="735"/>
      <point x="220" y="820"/>
    </contour>
  </outline>
</glyph>
<glyph name="cedilla" format="1">
  <advance width="512"/>
  <unicode hex="00B8"/>
  <outline>
    <contour>
      <point x="336" y="-38" type="line"/>
      <point x="327" y="-93" type="line"/>
      <point x="394" y="-106" name="inserted"/>
      <point x="462" y="-184"/>
      <point x="462" y="-249" type="qcurve" smooth="yes"/>
      <point x="462" y="-353"/>
      <point x="284" y="-472"/>
      <point x="125" y="-472" type="qcurve"/>
      <point x="119" y="-305" type="line"/>
      <point x="158" y="-305" name="inserted"/>
      <point x="198" y="-270"/>
      <point x="198" y="-235" type="qcurve" smooth="yes"/>
      <point x="198" y="-201"/>
      <point x="141" y="-174"/>
      <point x="77" y="-170" type="qcurve"/>
      <point x="105" y="-38" type="line"/>
    </contour>
  </outline>
</glyph>
<glyph name="ordmasculine" format="1">
  <advance width="844"/>
  <unicode hex="00BA"/>
  <outline>
    <contour>
      <point x="105" y="1078" type="line" smooth="yes"/>
      <point x="105" y="1222"/>
      <point x="277" y="1397"/>
      <point x="417" y="1397" type="qcurve" smooth="yes" name="inserted"/>
      <point x="556" y="1397"/>
      <point x="729" y="1223"/>
      <point x="729" y="1073" type="qcurve" smooth="yes"/>
      <point x="729" y="1009" type="line" smooth="yes"/>
      <point x="729" y="866"/>
      <point x="560" y="690"/>
      <point x="419" y="690" type="qcurve" smooth="yes"/>
      <point x="276" y="690"/>
      <point x="105" y="866"/>
      <point x="105" y="1013" type="qcurve" smooth="yes"/>
    </contour>
    <contour>
      <point x="263" y="1009" type="line" smooth="yes"/>
      <point x="263" y="920"/>
      <point x="347" y="821"/>
      <point x="419" y="821" type="qcurve" smooth="yes"/>
      <point x="489" y="821"/>
      <point x="571" y="919"/>
      <point x="572" y="1006" type="qcurve" smooth="yes"/>
      <point x="572" y="1078" type="line" smooth="yes"/>
      <point x="572" y="1165"/>
      <point x="488" y="1264"/>
      <point x="417" y="1264" type="qcurve" smooth="yes"/>
      <point x="347" y="1264"/>
      <point x="263" y="1166"/>
      <point x="263" y="1074" type="qcurve" smooth="yes"/>
    </contour>
  </outline>
</glyph>
<glyph name="questiondown" format="1">
  <advance width="939"/>
  <unicode hex="00BF"/>
  <outline>
    <contour>
      <point x="633" y="529" type="line"/>
      <point x="633" y="394"/>
      <point x="578" y="249"/>
      <point x="513" y="194" type="qcurve" smooth="yes"/>
      <point x="454" y="139" type="line" smooth="yes"/>
      <point x="412" y="98" name="inserted"/>
      <point x="370" y="15"/>
      <point x="370" y="-29" type="qcurve" smooth="yes"/>
      <point x="370" y="-93"/>
      <point x="430" y="-151"/>
      <point x="478" y="-151" type="qcurve" smooth="yes"/>
      <point x="538" y="-151"/>
      <point x="606" y="-75"/>
      <point x="608" y="-4" type="qcurve"/>
      <point x="913" y="-4" type="line"/>
      <point x="909" y="-185"/>
      <point x="687" y="-385"/>
      <point x="485" y="-385" type="qcurve" smooth="yes"/>
      <point x="284" y="-385"/>
      <point x="66" y="-199"/>
      <point x="66" y="-29" type="qcurve" smooth="yes"/>
      <point x="66" y="46"/>
      <point x="134" y="178"/>
      <point x="217" y="256" type="qcurve" smooth="yes"/>
      <point x="293" y="326" type="line" smooth="yes"/>
      <point x="328" y="356" name="inserted"/>
      <point x="367" y="425"/>
      <point x="371" y="464" type="qcurve" smooth="yes"/>
      <point x="375" y="529" type="line"/>
    </contour>
    <contour>
      <point x="512" y="650" type="qcurve" smooth="yes"/>
      <point x="440" y="650"/>
      <point x="344" y="736"/>
      <point x="344" y="802" type="qcurve" smooth="yes" name="inserted"/>
      <point x="344" y="869"/>
      <point x="440" y="954"/>
      <point x="512" y="954" type="qcurve" smooth="yes"/>
      <point x="586" y="954"/>
      <point x="680" y="867"/>
      <point x="680" y="802" type="qcurve" smooth="yes" name="inserted"/>
      <point x="680" y="737"/>
      <point x="586" y="650"/>
    </contour>
  </outline>
</glyph>
<glyph name="AE" format="1">
  <advance width="1733"/>
  <unicode hex="00C6"/>
  <outline>
    <contour>
      <point x="1666" y="0" type="line"/>
      <point x="859" y="0" type="line"/>
      <point x="846" y="296" type="line"/>
      <point x="502" y="296" type="line"/>
      <point x="365" y="0" type="line"/>
      <point x="14" y="0" type="line"/>
      <point x="676" y="1310" type="line"/>
      <point x="1611" y="1310" type="line"/>
      <point x="1611" y="1073" type="line"/>
      <point x="1117" y="1073" type="line"/>
      <point x="1129" y="788" type="line"/>
      <point x="1538" y="788" type="line"/>
      <point x="1538" y="551" type="line"/>
      <point x="1139" y="551" type="line"/>
      <point x="1152" y="238" type="line"/>
      <point x="1666" y="238" type="line"/>
    </contour>
    <contour>
      <point x="615" y="539" type="line"/>
      <point x="836" y="539" type="line"/>
      <point x="817" y="977" type="line"/>
    </contour>
  </outline>
</glyph>
<glyph name="Eth" format="1">
  <advance width="1219"/>
  <unicode hex="00D0"/>
  <outline>
    <contour>
      <point x="126" y="0" type="line"/>
      <point x="126" y="572" type="line"/>
      <point x="-27" y="572" type="line"/>
      <point x="-27" y="743" type="line"/>
      <point x="126" y="743" type="line"/>
      <point x="126" y="1310" type="line"/>
      <point x="548" y="1310" type="line" smooth="yes"/>
      <point x="722" y="1310"/>
      <point x="999" y="1153"/>
      <point x="1077" y="1009" type="qcurve" smooth="yes" name="inserted"/>
      <point x="1116" y="938" name="inserted"/>
      <point x="1155" y="777"/>
      <point x="1156" y="688" type="qcurve" smooth="yes"/>
      <point x="1156" y="627" type="line" smooth="yes"/>
      <point x="1156" y="447"/>
      <point x="1004" y="162"/>
      <point x="865" y="81" type="qcurve" smooth="yes" name="inserted"/>
      <point x="796" y="41" name="inserted"/>
      <point x="642" y="0"/>
      <point x="557" y="0" type="qcurve" smooth="yes"/>
    </contour>
    <contour>
      <point x="630" y="572" type="line"/>
      <point x="442" y="572" type="line"/>
      <point x="442" y="243" type="line"/>
      <point x="552" y="243" type="line" smooth="yes"/>
      <point x="688" y="243"/>
      <point x="833" y="437"/>
      <point x="833" y="627" type="qcurve" smooth="yes"/>
      <point x="833" y="684" type="line" smooth="yes"/>
      <point x="833" y="874"/>
      <point x="688" y="1067"/>
      <point x="548" y="1067" type="qcurve" smooth="yes"/>
      <point x="442" y="1067" type="line"/>
      <point x="442" y="743" type="line"/>
      <point x="630" y="743" type="line"/>
    </contour>
  </outline>
</glyph>
<glyph name="multiply" format="1">
  <advance width="975"/>
  <unicode hex="00D7"/>
  <outline>
    <contour>
      <point x="48" y="363" type="line"/>
      <point x="317" y="637" type="line"/>
      <point x="48" y="913" type="line"/>
      <point x="221" y="1077" type="line"/>
      <point x="485" y="808" type="line"/>
      <point x="749" y="1077" type="line"/>
      <point x="923" y="913" type="line"/>
      <point x="653" y="637" type="line"/>
      <point x="923" y="363" type="line"/>
      <point x="749" y="198" type="line"/>
      <point x="485" y="466" type="line"/>
      <point x="221" y="198" type="line"/>
    </contour>
  </outline>
</glyph>
<glyph name="Oslash" format="1">
  <advance width="1268"/>
  <unicode hex="00D8"/>
  <outline>
    <contour>
      <point x="1219" y="619" type="line" smooth="yes"/>
      <point x="1219" y="427"/>
      <point x="1076" y="132"/>
      <point x="945" y="52" type="qcurve" smooth="yes" name="inserted"/>
      <point x="880" y="12" name="inserted"/>
      <point x="731" y="-28"/>
      <point x="647" y="-28" type="qcurve" smooth="yes"/>
      <point x="574" y="-28" name="inserted"/>
      <point x="443" y="2"/>
      <point x="384" y="31" type="qcurve"/>
      <point x="311" y="-95" type="line"/>
      <point x="125" y="-95" type="line"/>
      <point x="252" y="126" type="line"/>
      <point x="162" y="215" name="inserted"/>
      <point x="73" y="465"/>
      <point x="73" y="626" type="qcurve" smooth="yes"/>
      <point x="73" y="672" type="line" smooth="yes"/>
      <point x="73" y="865"/>
      <point x="214" y="1159"/>
      <point x="345" y="1239" type="qcurve" smooth="yes" name="inserted"/>
      <point x="411" y="1279" name="inserted"/>
      <point x="561" y="1319"/>
      <point x="645" y="1319" type="qcurve" smooth="yes"/>
      <point x="716" y="1319" name="inserted"/>
      <point x="845" y="1290"/>
      <point x="904" y="1261" type="qcurve"/>
      <point x="959" y="1357" type="line"/>
      <point x="1146" y="1357" type="line"/>
      <point x="1037" y="1167" type="line"/>
      <point x="1128" y="1077" name="inserted"/>
      <point x="1219" y="826"/>
      <point x="1219" y="665" type="qcurve" smooth="yes"/>
    </contour>
    <contour>
      <point x="897" y="674" type="line" smooth="yes"/>
      <point x="897" y="733" name="inserted"/>
      <point x="884" y="837"/>
      <point x="871" y="880" type="qcurve"/>
      <point x="515" y="260" type="line"/>
      <point x="542" y="239" name="inserted"/>
      <point x="608" y="219"/>
      <point x="647" y="219" type="qcurve" smooth="yes"/>
      <point x="768" y="219"/>
      <point x="896" y="423"/>
      <point x="897" y="613" type="qcurve" smooth="yes"/>
    </contour>
    <contour>
      <point x="393" y="619" type="line" smooth="yes"/>
      <point x="393" y="559" name="inserted"/>
      <point x="405" y="457"/>
      <point x="418" y="414" type="qcurve"/>
      <point x="772" y="1033" type="line"/>
      <point x="745" y="1052" name="inserted"/>
      <point x="682" y="1071"/>
      <point x="645" y="1071" type="qcurve" smooth="yes"/>
      <point x="520" y="1071"/>
      <point x="394" y="872"/>
      <point x="393" y="679" type="qcurve"/>
    </contour>
  </outline>
</glyph>
<glyph name="Thorn" format="1">
  <advance width="1139"/>
  <unicode hex="00DE"/>
  <outline>
    <contour>
      <point x="410" y="1310" type="line"/>
      <point x="410" y="1078" type="line"/>
      <point x="594" y="1078" type="line" smooth="yes"/>
      <point x="748" y="1077"/>
      <point x="974" y="975"/>
      <point x="1033" y="881" type="qcurve" smooth="yes" name="inserted"/>
      <point x="1063" y="834" name="inserted"/>
      <point x="1093" y="726"/>
      <point x="1093" y="664" type="qcurve" smooth="yes"/>
      <point x="1093" y="476"/>
      <point x="825" y="252"/>
      <point x="594" y="250" type="qcurve" smooth="yes"/>
      <point x="410" y="250" type="line"/>
      <point x="410" y="0" type="line"/>
      <point x="104" y="0" type="line"/>
      <point x="104" y="1310" type="line"/>
    </contour>
    <contour>
      <point x="410" y="844" type="line"/>
      <point x="410" y="484" type="line"/>
      <point x="588" y="484" type="line" smooth="yes"/>
      <point x="680" y="484"/>
      <point x="788" y="578"/>
      <point x="788" y="662" type="qcurve" smooth="yes"/>
      <point x="788" y="748"/>
      <point x="681" y="844"/>
      <point x="590" y="844" type="qcurve" smooth="yes"/>
    </contour>
  </outline>
</glyph>
<glyph name="germandbls" format="1">
  <advance width="1197.0"/>
  <unicode hex="00DF"/>
  <outline>
    <contour>
      <point x="425" y="-2" type="line"/>
      <point x="121" y="-2" type="line"/>
      <point x="121" y="987" type="line" smooth="yes"/>
      <point x="121" y="1186"/>
      <point x="361" y="1403"/>
      <point x="583" y="1403" type="qcurve" smooth="yes"/>
      <point x="760" y="1403"/>
      <point x="981" y="1216"/>
      <point x="981" y="1061" type="qcurve" smooth="yes"/>
      <point x="981" y="965"/>
      <point x="896" y="828"/>
      <point x="896" y="750" type="qcurve" smooth="yes"/>
      <point x="896" y="722"/>
      <point x="940" y="662"/>
      <point x="1015" y="588" type="qcurve" smooth="yes"/>
      <point x="1080" y="526" name="inserted"/>
      <point x="1144" y="396"/>
      <point x="1144" y="329" type="qcurve" smooth="yes"/>
      <point x="1144" y="161"/>
      <point x="920" y="-20"/>
      <point x="715" y="-20" type="qcurve" smooth="yes"/>
      <point x="647" y="-20"/>
      <point x="511" y="4"/>
      <point x="473" y="26" type="qcurve"/>
      <point x="527" y="254" type="line"/>
      <point x="565" y="234" name="inserted"/>
      <point x="660" y="214"/>
      <point x="716" y="214" type="qcurve" smooth="yes"/>
      <point x="770" y="214"/>
      <point x="842" y="273"/>
      <point x="842" y="327" type="qcurve" smooth="yes"/>
      <point x="842" y="363"/>
      <point x="797" y="428"/>
      <point x="725" y="490" type="qcurve" smooth="yes" name="inserted"/>
      <point x="653" y="552"/>
      <point x="592" y="667"/>
      <point x="592" y="733" type="qcurve" smooth="yes"/>
      <point x="592" y="826"/>
      <point x="677" y="977"/>
      <point x="677" y="1048" type="qcurve" smooth="yes"/>
      <point x="677" y="1101"/>
      <point x="605" y="1170"/>
      <point x="550" y="1170" type="qcurve" smooth="yes"/>
      <point x="483" y="1170"/>
      <point x="425" y="1076"/>
      <point x="425" y="983" type="qcurve" smooth="yes"/>
    </contour>
  </outline>
</glyph>
<glyph name="ae" format="1">
  <advance width="1557.0"/>
  <unicode hex="00E6"/>
  <outline>
    <contour>
      <point x="1114" y="-20" type="qcurve" smooth="yes"/>
      <point x="1006" y="-20" name="inserted"/>
      <point x="835" y="40"/>
      <point x="772" y="101" type="qcurve"/>
      <point x="713" y="41"/>
      <point x="536" y="-20"/>
      <point x="436" y="-20" type="qcurve" smooth="yes"/>
      <point x="257" y="-20"/>
      <point x="55" y="145"/>
      <point x="55" y="290" type="qcurve" smooth="yes"/>
      <point x="55" y="432"/>
      <point x="288" y="587"/>
      <point x="518" y="588" type="qcurve" smooth="yes"/>
      <point x="645" y="588" type="line"/>
      <point x="645" y="629" type="line" smooth="yes"/>
      <point x="645" y="688"/>
      <point x="584" y="756"/>
      <point x="526" y="756" type="qcurve" smooth="yes"/>
      <point x="461" y="756"/>
      <point x="392" y="703"/>
      <point x="392" y="664" type="qcurve"/>
      <point x="89" y="681" type="line"/>
      <point x="89" y="817"/>
      <point x="330" y="990"/>
      <point x="529" y="990" type="qcurve" smooth="yes"/>
      <point x="620" y="990" name="inserted"/>
      <point x="764" y="949"/>
      <point x="816" y="908" type="qcurve"/>
      <point x="873" y="950" name="inserted"/>
      <point x="1017" y="991"/>
      <point x="1104" y="990" type="qcurve" smooth="yes"/>
      <point x="1295" y="990"/>
      <point x="1517" y="750"/>
      <point x="1517" y="546" type="qcurve" smooth="yes"/>
      <point x="1517" y="390" type="line"/>
      <point x="941" y="390" type="line"/>
      <point x="954" y="301"/>
      <point x="1064" y="214"/>
      <point x="1156" y="214" type="qcurve" smooth="yes"/>
      <point x="1212" y="214" name="inserted"/>
      <point x="1313" y="232"/>
      <point x="1356" y="250" type="qcurve" smooth="yes"/>
      <point x="1412" y="274" type="line"/>
      <point x="1485" y="89" type="line"/>
      <point x="1425" y="42"/>
      <point x="1219" y="-20"/>
    </contour>
    <contour>
      <point x="493" y="189" type="qcurve" smooth="yes"/>
      <point x="533" y="189" name="inserted"/>
      <point x="609" y="217"/>
      <point x="645" y="246" type="qcurve"/>
      <point x="645" y="404" type="line"/>
      <point x="520" y="404" type="line" smooth="yes"/>
      <point x="450" y="403"/>
      <point x="358" y="338"/>
      <point x="358" y="286" type="qcurve" smooth="yes"/>
      <point x="358" y="237" name="inserted"/>
      <point x="426" y="189"/>
    </contour>
    <contour>
      <point x="1104" y="756" type="qcurve" smooth="yes"/>
      <point x="1031" y="756"/>
      <point x="952" y="669"/>
      <point x="942" y="579" type="qcurve"/>
      <point x="1220" y="579" type="line"/>
      <point x="1220" y="603" type="line" smooth="yes"/>
      <point x="1220" y="676"/>
      <point x="1161" y="756"/>
    </contour>
  </outline>
</glyph>
<glyph name="eth" format="1">
  <advance width="1049"/>
  <unicode hex="00F0"/>
  <outline>
    <contour>
      <point x="776" y="1175" type="line"/>
      <point x="893" y="1059" name="inserted"/>
      <point x="1011" y="763"/>
      <point x="1011" y="583" type="qcurve" smooth="yes"/>
      <point x="1011" y="532" type="line" smooth="yes"/>
      <point x="1011" y="372"/>
      <point x="884" y="118"/>
      <point x="772" y="49" type="qcurve" smooth="yes" name="inserted"/>
      <point x="716" y="14" name="inserted"/>
      <point x="592" y="-20"/>
      <point x="523" y="-20" type="qcurve" smooth="yes"/>
      <point x="390" y="-20"/>
      <point x="176" y="94"/>
      <point x="117" y="196" type="qcurve" smooth="yes" name="inserted"/>
      <point x="87" y="246" name="inserted"/>
      <point x="58" y="358"/>
      <point x="58" y="419" type="qcurve" smooth="yes"/>
      <point x="58" y="629"/>
      <point x="274" y="863"/>
      <point x="466" y="863" type="qcurve" smooth="yes"/>
      <point x="523" y="863" name="inserted"/>
      <point x="626" y="835"/>
      <point x="671" y="807" type="qcurve"/>
      <point x="649" y="870" name="inserted"/>
      <point x="579" y="978"/>
      <point x="531" y="1024" type="qcurve"/>
      <point x="371" y="925" type="line"/>
      <point x="301" y="1031" type="line"/>
      <point x="423" y="1107" type="line"/>
      <point x="374" y="1137" name="inserted"/>
      <point x="265" y="1183"/>
      <point x="203" y="1200" type="qcurve"/>
      <point x="301" y="1419" type="line"/>
      <point x="407" y="1398" name="inserted"/>
      <point x="594" y="1318"/>
      <point x="674" y="1261" type="qcurve"/>
      <point x="821" y="1352" type="line"/>
      <point x="890" y="1245" type="line"/>
    </contour>
    <contour>
      <point x="527" y="214" type="qcurve" smooth="yes"/>
      <point x="611" y="214"/>
      <point x="707" y="363"/>
      <point x="707" y="499" type="qcurve" smooth="yes"/>
      <point x="707" y="587" type="line"/>
      <point x="677" y="616" name="inserted"/>
      <point x="590" y="646"/>
      <point x="532" y="646" type="qcurve" smooth="yes"/>
      <point x="444" y="646"/>
      <point x="362" y="525"/>
      <point x="362" y="419" type="qcurve" smooth="yes"/>
      <point x="362" y="327"/>
      <point x="452" y="214"/>
    </contour>
  </outline>
</glyph>
<glyph name="divide" format="1">
  <advance width="1049"/>
  <unicode hex="00F7"/>
  <outline>
    <contour>
      <point x="993" y="523" type="line"/>
      <point x="53" y="523" type="line"/>
      <point x="53" y="742" type="line"/>
      <point x="993" y="742" type="line"/>
    </contour>
    <contour>
      <point x="677" y="881" type="line"/>
      <point x="372" y="881" type="line"/>
      <point x="372" y="1101" type="line"/>
      <point x="677" y="1101" type="line"/>
    </contour>
    <contour>
      <point x="677" y="158" type="line"/>
      <point x="372" y="158" type="line"/>
      <point x="372" y="379" type="line"/>
      <point x="677" y="379" type="line"/>
    </contour>
  </outline>
</glyph>
<glyph name="oslash" format="1">
  <advance width="1036"/>
  <unicode hex="00F8"/>
  <outline>
    <contour>
      <point x="47" y="481" type="qcurve" smooth="yes"/>
      <point x="47" y="627"/>
      <point x="160" y="855"/>
      <point x="266" y="916" type="qcurve" smooth="yes" name="inserted"/>
      <point x="320" y="947" name="inserted"/>
      <point x="444" y="977"/>
      <point x="516" y="977" type="qcurve" smooth="yes"/>
      <point x="558" y="977" name="inserted"/>
      <point x="638" y="966"/>
      <point x="675" y="955" type="qcurve"/>
      <point x="737" y="1083" type="line"/>
      <point x="896" y="1083" type="line"/>
      <point x="804" y="892" type="line"/>
      <point x="895" y="825" name="inserted"/>
      <point x="986" y="611"/>
      <point x="986" y="463" type="qcurve" smooth="yes"/>
      <point x="986" y="235"/>
      <point x="734" y="-33"/>
      <point x="518" y="-33" type="qcurve" smooth="yes"/>
      <point x="476" y="-33" name="inserted"/>
      <point x="399" y="-23"/>
      <point x="364" y="-13" type="qcurve"/>
      <point x="300" y="-145" type="line"/>
      <point x="140" y="-145" type="line"/>
      <point x="234" y="49" type="line"/>
      <point x="140" y="115" name="inserted"/>
      <point x="47" y="331"/>
    </contour>
    <contour>
      <point x="350" y="463" type="line"/>
      <point x="350" y="419" name="inserted"/>
      <point x="358" y="349"/>
      <point x="366" y="321" type="qcurve"/>
      <point x="568" y="735" type="line"/>
      <point x="556" y="739" name="inserted"/>
      <point x="530" y="743"/>
      <point x="516" y="743" type="qcurve" smooth="yes"/>
      <point x="440" y="743" name="inserted"/>
      <point x="357" y="630"/>
      <point x="351" y="517" type="qcurve" smooth="yes"/>
    </contour>
    <contour>
      <point x="683" y="481" type="line" smooth="yes"/>
      <point x="683" y="520" name="inserted"/>
      <point x="675" y="586"/>
      <point x="668" y="614" type="qcurve"/>
      <point x="471" y="207" type="line"/>
      <point x="481" y="204" name="inserted"/>
      <point x="504" y="202"/>
      <point x="518" y="202" type="qcurve" smooth="yes"/>
      <point x="599" y="202" name="inserted"/>
      <point x="681" y="326"/>
      <point x="683" y="451" type="qcurve" smooth="yes"/>
    </contour>
  </outline>
</glyph>
<glyph name="thorn" format="1">
  <advance width="1033"/>
  <unicode hex="00FE"/>
  <outline>
    <contour>
      <point x="986" y="438" type="line" smooth="yes"/>
      <point x="986" y="212"/>
      <point x="784" y="-60"/>
      <point x="609" y="-60" type="qcurve" smooth="yes"/>
      <point x="542" y="-60" name="inserted"/>
      <point x="432" y="-11"/>
      <point x="390" y="37" type="qcurve"/>
      <point x="390" y="-416" type="line"/>
      <point x="86" y="-416" type="line"/>
      <point x="86" y="1341" type="line"/>
      <point x="390" y="1341" type="line"/>
      <point x="390" y="856" type="line"/>
      <point x="432" y="903" name="inserted"/>
      <point x="541" y="950"/>
      <point x="608" y="950" type="qcurve" smooth="yes"/>
      <point x="785" y="950"/>
      <point x="986" y="688"/>
      <point x="986" y="453" type="qcurve" smooth="yes"/>
    </contour>
    <contour>
      <point x="683" y="457" type="line" smooth="yes"/>
      <point x="683" y="587" name="inserted"/>
      <point x="608" y="716"/>
      <point x="532" y="716" type="qcurve" smooth="yes"/>
      <point x="480" y="716" name="inserted"/>
      <point x="409" y="678"/>
      <point x="390" y="641" type="qcurve"/>
      <point x="390" y="253" type="line"/>
      <point x="409" y="214" name="inserted"/>
      <point x="481" y="174"/>
      <point x="534" y="174" type="qcurve" smooth="yes"/>
      <point x="606" y="174" name="inserted"/>
      <point x="681" y="299"/>
      <point x="683" y="423" type="qcurve" smooth="yes"/>
    </contour>
  </outline>
</glyph>
<glyph name="Aogonek" format="1">
  <advance width="1256"/>
  <unicode hex="0104"/>
  <outline>
    <contour>
      <point x="775" y="1269" type="line"/>
      <point x="1259" y="-42" type="line"/>
      <point x="1163" y="-42" type="line"/>
      <point x="1093" y="-77"/>
      <point x="1032" y="-141"/>
      <point x="1032" y="-187" type="qcurve" smooth="yes"/>
      <point x="1032" y="-215" name="inserted"/>
      <point x="1059" y="-242"/>
      <point x="1086" y="-242" type="qcurve" smooth="yes"/>
      <point x="1100" y="-242" name="inserted"/>
      <point x="1131" y="-234"/>
      <point x="1148" y="-226" type="qcurve"/>
      <point x="1183" y="-377" type="line"/>
      <point x="1150" y="-397" name="inserted"/>
      <point x="1075" y="-417"/>
      <point x="1033" y="-417" type="qcurve" smooth="yes"/>
      <point x="934" y="-417"/>
      <point x="815" y="-313"/>
      <point x="815" y="-224" type="qcurve" smooth="yes"/>
      <point x="815" y="-166" name="inserted"/>
      <point x="866" y="-70"/>
      <point x="917" y="-33" type="qcurve"/>
      <point x="843" y="203" type="line"/>
      <point x="410" y="203" type="line"/>
      <point x="335" y="-42" type="line"/>
      <point x="-3" y="-42" type="line"/>
      <point x="478" y="1269" type="line"/>
    </contour>
    <contour>
      <point x="486" y="447" type="line"/>
      <point x="768" y="447" type="line"/>
      <point x="626" y="902" type="line"/>
    </contour>
  </outline>
</glyph>
<glyph name="aogonek" format="1">
  <advance width="978"/>
  <unicode hex="0105"/>
  <outline>
    <contour>
      <point x="632" y="-39" type="qcurve"/>
      <point x="623" y="-21" name="inserted"/>
      <point x="610" y="21"/>
      <point x="605" y="46" type="qcurve"/>
      <point x="563" y="-7" name="inserted"/>
      <point x="446" y="-60"/>
      <point x="371" y="-60" type="qcurve" smooth="yes"/>
      <point x="233" y="-60"/>
      <point x="41" y="107"/>
      <point x="41" y="233" type="qcurve" smooth="yes"/>
      <point x="41" y="391"/>
      <point x="275" y="553"/>
      <point x="498" y="553" type="qcurve" smooth="yes"/>
      <point x="591" y="553" type="line"/>
      <point x="591" y="605" type="line" smooth="yes"/>
      <point x="591" y="672" name="inserted"/>
      <point x="533" y="739"/>
      <point x="475" y="739" type="qcurve" smooth="yes"/>
      <point x="421" y="739" name="inserted"/>
      <point x="367" y="686"/>
      <point x="367" y="632" type="qcurve"/>
      <point x="64" y="632" type="line"/>
      <point x="64" y="774"/>
      <point x="304" y="950"/>
      <point x="491" y="950" type="qcurve" smooth="yes" name="inserted"/>
      <point x="677" y="950"/>
      <point x="893" y="768"/>
      <point x="896" y="610" type="qcurve" smooth="yes"/>
      <point x="896" y="179" type="line" smooth="yes"/>
      <point x="896" y="112" name="inserted"/>
      <point x="917" y="9"/>
      <point x="937" y="-26" type="qcurve"/>
      <point x="937" y="-42" type="line"/>
      <point x="887" y="-42" type="line"/>
      <point x="817" y="-77"/>
      <point x="757" y="-141"/>
      <point x="757" y="-187" type="qcurve" smooth="yes"/>
      <point x="757" y="-215" name="inserted"/>
      <point x="784" y="-242"/>
      <point x="811" y="-242" type="qcurve" smooth="yes"/>
      <point x="824" y="-242" name="inserted"/>
      <point x="855" y="-234"/>
      <point x="873" y="-226" type="qcurve"/>
      <point x="907" y="-377" type="line"/>
      <point x="874" y="-397" name="inserted"/>
      <point x="800" y="-417"/>
      <point x="758" y="-417" type="qcurve" smooth="yes"/>
      <point x="659" y="-417"/>
      <point x="539" y="-313"/>
      <point x="539" y="-224" type="qcurve" smooth="yes"/>
      <point x="539" y="-167" name="inserted"/>
      <point x="585" y="-75"/>
    </contour>
    <contour>
      <point x="444" y="156" type="qcurve" smooth="yes"/>
      <point x="500" y="156"/>
      <point x="575" y="205"/>
      <point x="591" y="236" type="qcurve"/>
      <point x="591" y="391" type="line"/>
      <point x="503" y="391" type="line" smooth="yes"/>
      <point x="424" y="391" name="inserted"/>
      <point x="345" y="320"/>
      <point x="345" y="249" type="qcurve" smooth="yes"/>
      <point x="345" y="208"/>
      <point x="401" y="156"/>
    </contour>
  </outline>
</glyph>
<glyph name="dcroat" format="1">
  <advance width="1064"/>
  <unicode hex="0111"/>
  <outline>
    <contour>
      <point x="1076" y="1092" type="line"/>
      <point x="950" y="1092" type="line"/>
      <point x="950" y="-2" type="line"/>
      <point x="677" y="-2" type="line"/>
      <point x="662" y="102" type="line"/>
      <point x="615" y="41" name="inserted"/>
      <point x="496" y="-20"/>
      <point x="424" y="-20" type="qcurve" smooth="yes"/>
      <point x="250" y="-20"/>
      <point x="47" y="246"/>
      <point x="47" y="492" type="qcurve" smooth="yes"/>
      <point x="47" y="723"/>
      <point x="247" y="990"/>
      <point x="426" y="990" type="qcurve" smooth="yes"/>
      <point x="491" y="990" name="inserted"/>
      <point x="601" y="939"/>
      <point x="645" y="887" type="qcurve"/>
      <point x="645" y="1092" type="line"/>
      <point x="419" y="1092" type="line"/>
      <point x="419" y="1263" type="line"/>
      <point x="645" y="1263" type="line"/>
      <point x="645" y="1380" type="line"/>
      <point x="950" y="1380" type="line"/>
      <point x="950" y="1263" type="line"/>
      <point x="1076" y="1263" type="line"/>
    </contour>
    <contour>
      <point x="350" y="473" type="line"/>
      <point x="350" y="344" name="inserted"/>
      <point x="426" y="214"/>
      <point x="501" y="214" type="qcurve" smooth="yes"/>
      <point x="552" y="214" name="inserted"/>
      <point x="624" y="256"/>
      <point x="645" y="299" type="qcurve"/>
      <point x="645" y="669" type="line"/>
      <point x="625" y="713" name="inserted"/>
      <point x="554" y="756"/>
      <point x="503" y="756" type="qcurve" smooth="yes"/>
      <point x="433" y="756" name="inserted"/>
      <point x="357" y="642"/>
      <point x="351" y="529" type="qcurve" smooth="yes"/>
    </contour>
  </outline>
</glyph>
<glyph name="Eogonek" format="1">
  <advance width="1031"/>
  <unicode hex="0118"/>
  <outline>
    <contour>
      <point x="912" y="514" type="line"/>
      <point x="415" y="514" type="line"/>
      <point x="415" y="201" type="line"/>
      <point x="1002" y="201" type="line"/>
      <point x="1002" y="-42" type="line"/>
      <point x="826" y="-42" type="line"/>
      <point x="756" y="-77"/>
      <point x="696" y="-141"/>
      <point x="696" y="-187" type="qcurve" smooth="yes"/>
      <point x="696" y="-215" name="inserted"/>
      <point x="723" y="-242"/>
      <point x="750" y="-242" type="qcurve" smooth="yes"/>
      <point x="763" y="-242" name="inserted"/>
      <point x="794" y="-234"/>
      <point x="812" y="-226" type="qcurve"/>
      <point x="846" y="-377" type="line"/>
      <point x="813" y="-397" name="inserted"/>
      <point x="738" y="-417"/>
      <point x="697" y="-417" type="qcurve" smooth="yes"/>
      <point x="598" y="-417"/>
      <point x="478" y="-313"/>
      <point x="478" y="-224" type="qcurve" smooth="yes"/>
      <point x="478" y="-169" name="inserted"/>
      <point x="523" y="-77"/>
      <point x="568" y="-42" type="qcurve"/>
      <point x="99" y="-42" type="line"/>
      <point x="99" y="1269" type="line"/>
      <point x="1004" y="1269" type="line"/>
      <point x="1004" y="1025" type="line"/>
      <point x="415" y="1025" type="line"/>
      <point x="415" y="749" type="line"/>
      <point x="912" y="749" type="line"/>
    </contour>
  </outline>
</glyph>
<glyph name="eogonek" format="1">
  <advance width="1004"/>
  <unicode hex="0119"/>
  <outline>
    <contour>
      <point x="941" y="115" type="line"/>
      <point x="915" y="78" name="inserted"/>
      <point x="839" y="18"/>
      <point x="789" y="-6" type="qcurve"/>
      <point x="792" y="-7" type="line"/>
      <point x="722" y="-42"/>
      <point x="662" y="-106"/>
      <point x="662" y="-152" type="qcurve" smooth="yes"/>
      <point x="662" y="-180" name="inserted"/>
      <point x="689" y="-207"/>
      <point x="716" y="-207" type="qcurve" smooth="yes"/>
      <point x="729" y="-207" name="inserted"/>
      <point x="760" y="-199"/>
      <point x="778" y="-191" type="qcurve"/>
      <point x="812" y="-342" type="line"/>
      <point x="779" y="-362" name="inserted"/>
      <point x="704" y="-382"/>
      <point x="662" y="-382" type="qcurve" smooth="yes"/>
      <point x="563" y="-382"/>
      <point x="444" y="-278"/>
      <point x="444" y="-189" type="qcurve" smooth="yes"/>
      <point x="444" y="-148" name="inserted"/>
      <point x="466" y="-80"/>
      <point x="488" y="-53" type="qcurve"/>
      <point x="293" y="-32"/>
      <point x="55" y="227"/>
      <point x="55" y="424" type="qcurve" smooth="yes"/>
      <point x="55" y="451" type="line" smooth="yes"/>
      <point x="55" y="600"/>
      <point x="166" y="829"/>
      <point x="272" y="891" type="qcurve" smooth="yes" name="inserted"/>
      <point x="325" y="922" name="inserted"/>
      <point x="451" y="954"/>
      <point x="524" y="954" type="qcurve" smooth="yes"/>
      <point x="729" y="954"/>
      <point x="967" y="699"/>
      <point x="967" y="471" type="qcurve" smooth="yes"/>
      <point x="967" y="353" type="line"/>
      <point x="364" y="353" type="line"/>
      <point x="380" y="271"/>
      <point x="490" y="178"/>
      <point x="577" y="178" type="qcurve" smooth="yes"/>
      <point x="649" y="178" name="inserted"/>
      <point x="761" y="228"/>
      <point x="802" y="279" type="qcurve"/>
    </contour>
    <contour>
      <point x="522" y="720" type="qcurve" smooth="yes"/>
      <point x="455" y="720" name="inserted"/>
      <point x="376" y="631"/>
      <point x="364" y="543" type="qcurve"/>
      <point x="670" y="543" type="line"/>
      <point x="670" y="567" type="line" smooth="yes"/>
      <point x="671" y="640"/>
      <point x="594" y="720"/>
    </contour>
  </outline>
</glyph>
<glyph name="dotlessi" format="1">
  <advance width="526"/>
  <unicode hex="0131"/>
  <outline>
    <contour>
      <point x="416" y="0" type="line"/>
      <point x="111" y="0" type="line"/>
      <point x="111" y="974" type="line"/>
      <point x="416" y="974" type="line"/>
    </contour>
  </outline>
</glyph>
<glyph name="Lslash" format="1">
  <advance width="1044.0"/>
  <unicode hex="0141"/>
  <outline>
    <contour>
      <point x="461" y="823" type="line"/>
      <point x="635" y="870" type="line"/>
      <point x="635" y="710" type="line"/>
      <point x="461" y="662" type="line"/>
      <point x="461" y="243" type="line"/>
      <point x="1011" y="243" type="line"/>
      <point x="1011" y="0" type="line"/>
      <point x="145" y="0" type="line"/>
      <point x="145" y="575" type="line"/>
      <point x="23" y="542" type="line"/>
      <point x="23" y="702" type="line"/>
      <point x="145" y="735" type="line"/>
      <point x="145" y="1310" type="line"/>
      <point x="461" y="1310" type="line"/>
    </contour>
  </outline>
</glyph>
<glyph name="lslash" format="1">
  <advance width="596"/>
  <unicode hex="0142"/>
  <outline>
    <contour>
      <point x="445" y="833" type="line"/>
      <point x="566" y="870" type="line"/>
      <point x="566" y="708" type="line"/>
      <point x="445" y="671" type="line"/>
      <point x="445" y="0" type="line"/>
      <point x="140" y="0" type="line"/>
      <point x="140" y="576" type="line"/>
      <point x="23" y="540" type="line"/>
      <point x="23" y="702" type="line"/>
      <point x="140" y="738" type="line"/>
      <point x="140" y="1382" type="line"/>
      <point x="445" y="1382" type="line"/>
    </contour>
  </outline>
</glyph>
<glyph name="OE" format="1">
  <advance width="1795"/>
  <unicode hex="0152"/>
  <outline>
    <contour>
      <point x="1726" y="-2" type="line"/>
      <point x="909" y="-2" type="line"/>
      <point x="834" y="-11" name="inserted"/>
      <point x="704" y="-20"/>
      <point x="650" y="-20" type="qcurve" smooth="yes"/>
      <point x="485" y="-20"/>
      <point x="226" y="115"/>
      <point x="154" y="238" type="qcurve" smooth="yes" name="inserted"/>
      <point x="119" y="299" name="inserted"/>
      <point x="83" y="438"/>
      <point x="83" y="516" type="qcurve" smooth="yes"/>
      <point x="83" y="790" type="line" smooth="yes"/>
      <point x="83" y="946"/>
      <point x="225" y="1192"/>
      <point x="355" y="1259" type="qcurve" smooth="yes" name="inserted"/>
      <point x="419" y="1293" name="inserted"/>
      <point x="566" y="1326"/>
      <point x="648" y="1326" type="qcurve" smooth="yes"/>
      <point x="703" y="1326" name="inserted"/>
      <point x="834" y="1317"/>
      <point x="909" y="1308" type="qcurve"/>
      <point x="1728" y="1308" type="line"/>
      <point x="1728" y="1065" type="line"/>
      <point x="1139" y="1065" type="line"/>
      <point x="1139" y="788" type="line"/>
      <point x="1636" y="788" type="line"/>
      <point x="1636" y="553" type="line"/>
      <point x="1139" y="553" type="line"/>
      <point x="1139" y="241" type="line"/>
      <point x="1726" y="241" type="line"/>
    </contour>
    <contour>
      <point x="650" y="214" type="qcurve" smooth="yes"/>
      <point x="695" y="214" name="inserted"/>
      <point x="782" y="219"/>
      <point x="824" y="225" type="qcurve"/>
      <point x="824" y="1081" type="line"/>
      <point x="778" y="1087" name="inserted"/>
      <point x="690" y="1092"/>
      <point x="648" y="1092" type="qcurve" smooth="yes"/>
      <point x="527" y="1092"/>
      <point x="387" y="943"/>
      <point x="387" y="792" type="qcurve" smooth="yes"/>
      <point x="387" y="516" type="line" smooth="yes"/>
      <point x="387" y="365"/>
      <point x="528" y="214"/>
    </contour>
  </outline>
</glyph>
<glyph name="oe" format="1">
  <advance width="1661"/>
  <unicode hex="0153"/>
  <outline>
    <contour>
      <point x="68" y="494" type="line" smooth="yes"/>
      <point x="68" y="642"/>
      <point x="182" y="867"/>
      <point x="288" y="929" type="qcurve" smooth="yes" name="inserted"/>
      <point x="341" y="959" name="inserted"/>
      <point x="466" y="990"/>
      <point x="537" y="990" type="qcurve" smooth="yes"/>
      <point x="635" y="990" name="inserted"/>
      <point x="796" y="934"/>
      <point x="859" y="878" type="qcurve"/>
      <point x="918" y="935" name="inserted"/>
      <point x="1071" y="991"/>
      <point x="1165" y="990" type="qcurve" smooth="yes"/>
      <point x="1363" y="990"/>
      <point x="1588" y="753"/>
      <point x="1588" y="544" type="qcurve" smooth="yes"/>
      <point x="1588" y="390" type="line"/>
      <point x="1024" y="390" type="line"/>
      <point x="1040" y="306"/>
      <point x="1148" y="214"/>
      <point x="1229" y="214" type="qcurve" smooth="yes"/>
      <point x="1286" y="214" name="inserted"/>
      <point x="1386" y="230"/>
      <point x="1428" y="246" type="qcurve" smooth="yes"/>
      <point x="1497" y="274" type="line"/>
      <point x="1569" y="89" type="line"/>
      <point x="1505" y="41"/>
      <point x="1299" y="-20"/>
      <point x="1187" y="-20" type="qcurve" smooth="yes"/>
      <point x="1090" y="-20" name="inserted"/>
      <point x="928" y="38"/>
      <point x="864" y="95" type="qcurve"/>
      <point x="802" y="38" name="inserted"/>
      <point x="639" y="-20"/>
      <point x="539" y="-20" type="qcurve" smooth="yes"/>
      <point x="331" y="-20"/>
      <point x="78" y="228"/>
      <point x="68" y="443" type="qcurve" smooth="yes"/>
    </contour>
    <contour>
      <point x="371" y="475" type="line"/>
      <point x="371" y="345" name="inserted"/>
      <point x="455" y="214"/>
      <point x="539" y="214" type="qcurve" smooth="yes"/>
      <point x="620" y="214" name="inserted"/>
      <point x="703" y="338"/>
      <point x="706" y="462" type="qcurve" smooth="yes"/>
      <point x="706" y="494" type="line" smooth="yes"/>
      <point x="706" y="625" name="inserted"/>
      <point x="621" y="756"/>
      <point x="537" y="756" type="qcurve" smooth="yes"/>
      <point x="461" y="756" name="inserted"/>
      <point x="378" y="643"/>
      <point x="372" y="530" type="qcurve" smooth="yes"/>
    </contour>
    <contour>
      <point x="1165" y="756" type="qcurve" smooth="yes"/>
      <point x="1104" y="756" name="inserted"/>
      <point x="1034" y="668"/>
      <point x="1023" y="579" type="qcurve"/>
      <point x="1292" y="579" type="line"/>
      <point x="1292" y="603" type="line" smooth="yes"/>
      <point x="1292" y="679" name="inserted"/>
      <point x="1228" y="756"/>
    </contour>
  </outline>
</glyph>
<glyph name="Uogonek" format="1">
  <advance width="1225"/>
  <unicode hex="0172"/>
  <outline>
    <contour>
      <point x="1127" y="1276" type="line"/>
      <point x="1127" y="419" type="line"/>
      <point x="1126" y="289" name="inserted"/>
      <point x="1034" y="97"/>
      <point x="942" y="35" type="qcurve"/>
      <point x="946" y="34" type="line"/>
      <point x="876" y="-1"/>
      <point x="815" y="-65"/>
      <point x="815" y="-111" type="qcurve" smooth="yes"/>
      <point x="815" y="-138" name="inserted"/>
      <point x="842" y="-166"/>
      <point x="869" y="-166" type="qcurve" smooth="yes"/>
      <point x="883" y="-166" name="inserted"/>
      <point x="914" y="-158"/>
      <point x="932" y="-150" type="qcurve"/>
      <point x="966" y="-301" type="line"/>
      <point x="933" y="-321" name="inserted"/>
      <point x="858" y="-341"/>
      <point x="816" y="-341" type="qcurve" smooth="yes"/>
      <point x="717" y="-341"/>
      <point x="598" y="-237"/>
      <point x="598" y="-148" type="qcurve" smooth="yes"/>
      <point x="598" y="-122" name="inserted"/>
      <point x="608" y="-74"/>
      <point x="617" y="-52" type="qcurve"/>
      <point x="370" y="-52"/>
      <point x="95" y="201"/>
      <point x="95" y="423" type="qcurve" smooth="yes"/>
      <point x="95" y="1276" type="line"/>
      <point x="412" y="1276" type="line"/>
      <point x="412" y="406" type="line" smooth="yes"/>
      <point x="415" y="298" name="inserted"/>
      <point x="515" y="191"/>
      <point x="612" y="191" type="qcurve" smooth="yes"/>
      <point x="710" y="191"/>
      <point x="811" y="299"/>
      <point x="811" y="420" type="qcurve" smooth="yes"/>
      <point x="811" y="1276" type="line"/>
    </contour>
  </outline>
</glyph>
<glyph name="uogonek" format="1">
  <advance width="1040"/>
  <unicode hex="0173"/>
  <outline>
    <contour>
      <point x="920" y="-42" type="line"/>
      <point x="850" y="-77"/>
      <point x="789" y="-141"/>
      <point x="789" y="-187" type="qcurve" smooth="yes"/>
      <point x="789" y="-215" name="inserted"/>
      <point x="816" y="-242"/>
      <point x="843" y="-242" type="qcurve" smooth="yes"/>
      <point x="857" y="-242" name="inserted"/>
      <point x="888" y="-234"/>
      <point x="905" y="-226" type="qcurve"/>
      <point x="940" y="-377" type="line"/>
      <point x="907" y="-397" name="inserted"/>
      <point x="832" y="-417"/>
      <point x="790" y="-417" type="qcurve" smooth="yes"/>
      <point x="691" y="-417"/>
      <point x="572" y="-313"/>
      <point x="572" y="-224" type="qcurve" smooth="yes"/>
      <point x="572" y="-165" name="inserted"/>
      <point x="622" y="-70"/>
      <point x="673" y="-33" type="qcurve"/>
      <point x="665" y="64" type="line"/>
      <point x="617" y="2" name="inserted"/>
      <point x="487" y="-60"/>
      <point x="405" y="-60" type="qcurve" smooth="yes"/>
      <point x="245" y="-60"/>
      <point x="80" y="127"/>
      <point x="80" y="301" type="qcurve" smooth="yes"/>
      <point x="80" y="932" type="line"/>
      <point x="383" y="932" type="line"/>
      <point x="383" y="299" type="line" smooth="yes"/>
      <point x="383" y="237" name="inserted"/>
      <point x="444" y="174"/>
      <point x="505" y="174" type="qcurve" smooth="yes"/>
      <point x="557" y="174" name="inserted"/>
      <point x="631" y="212"/>
      <point x="653" y="249" type="qcurve"/>
      <point x="653" y="932" type="line"/>
      <point x="959" y="932" type="line"/>
      <point x="959" y="-42" type="line"/>
    </contour>
  </outline>
</glyph>
<glyph name="florin" format="1">
  <advance width="682"/>
  <unicode hex="0192"/>
  <outline>
    <contour>
      <point x="648" y="720" type="line"/>
      <point x="455" y="720" type="line"/>
      <point x="454" y="-78" type="line" smooth="yes"/>
      <point x="453" y="-249"/>
      <point x="272" y="-437"/>
      <point x="106" y="-437" type="qcurve" smooth="yes"/>
      <point x="66" y="-437" name="inserted"/>
      <point x="-6" y="-429"/>
      <point x="-38" y="-422" type="qcurve"/>
      <point x="-24" y="-192" type="line"/>
      <point x="-8" y="-198" name="inserted"/>
      <point x="31" y="-203"/>
      <point x="54" y="-203" type="qcurve" smooth="yes"/>
      <point x="107" y="-203"/>
      <point x="150" y="-147"/>
      <point x="150" y="-78" type="qcurve" smooth="yes"/>
      <point x="150" y="720" type="line"/>
      <point x="10" y="720" type="line"/>
      <point x="10" y="930" type="line"/>
      <point x="150" y="930" type="line"/>
      <point x="150" y="1008" type="line" smooth="yes"/>
      <point x="150" y="1176"/>
      <point x="350" y="1358"/>
      <point x="536" y="1358" type="qcurve" smooth="yes"/>
      <point x="567" y="1358" name="inserted"/>
      <point x="642" y="1348"/>
      <point x="687" y="1339" type="qcurve"/>
      <point x="664" y="1115" type="line"/>
      <point x="644" y="1119" name="inserted"/>
      <point x="598" y="1124"/>
      <point x="573" y="1124" type="qcurve" smooth="yes"/>
      <point x="514" y="1124" name="inserted"/>
      <point x="455" y="1064"/>
      <point x="455" y="1005" type="qcurve" smooth="yes"/>
      <point x="455" y="930" type="line"/>
      <point x="648" y="930" type="line"/>
    </contour>
  </outline>
</glyph>
<glyph name="uni02BC" format="1">
  <advance width="650"/>
  <unicode hex="02BC"/>
  <outline>
    <contour>
      <point x="539" y="1466" type="line"/>
      <point x="376" y="1008" type="line"/>
      <point x="145" y="1008" type="line"/>
      <point x="240" y="1497" type="line"/>
      <point x="524" y="1497" type="line"/>
    </contour>
  </outline>
</glyph>
<glyph name="circumflex" format="1">
  <advance width="930"/>
  <unicode hex="02C6"/>
  <outline>
    <contour>
      <point x="847" y="1254" type="line"/>
      <point x="847" y="1242" type="line"/>
      <point x="608" y="1242" type="line"/>
      <point x="464" y="1364" type="line"/>
      <point x="321" y="1242" type="line"/>
      <point x="87" y="1242" type="line"/>
      <point x="87" y="1257" type="line"/>
      <point x="378" y="1507" type="line"/>
      <point x="552" y="1507" type="line"/>
    </contour>
  </outline>
</glyph>
<glyph name="caron" format="1">
  <advance width="887"/>
  <unicode hex="02C7"/>
  <outline>
    <contour>
      <point x="443" y="1387" type="line"/>
      <point x="575" y="1508" type="line"/>
      <point x="833" y="1508" type="line"/>
      <point x="833" y="1498" type="line"/>
      <point x="540" y="1243" type="line"/>
      <point x="345" y="1243" type="line"/>
      <point x="50" y="1500" type="line"/>
      <point x="50" y="1508" type="line"/>
      <point x="311" y="1508" type="line"/>
    </contour>
  </outline>
</glyph>
<glyph name="breve" format="1">
  <advance width="834"/>
  <unicode hex="02D8"/>
  <outline>
    <contour>
      <point x="751" y="1507" type="line"/>
      <point x="751" y="1384"/>
      <point x="569" y="1231"/>
      <point x="418" y="1231" type="qcurve" smooth="yes" name="inserted"/>
      <point x="266" y="1231"/>
      <point x="85" y="1384"/>
      <point x="85" y="1507" type="qcurve"/>
      <point x="291" y="1507" type="line"/>
      <point x="291" y="1453"/>
      <point x="358" y="1393"/>
      <point x="418" y="1393" type="qcurve" smooth="yes" name="inserted"/>
      <point x="477" y="1393"/>
      <point x="543" y="1452"/>
      <point x="543" y="1507" type="qcurve"/>
    </contour>
  </outline>
</glyph>
<glyph name="dotaccent" format="1">
  <advance width="507"/>
  <unicode hex="02D9"/>
  <outline>
    <contour>
      <point x="96" y="1363" type="qcurve" smooth="yes"/>
      <point x="96" y="1422"/>
      <point x="181" y="1496"/>
      <point x="246" y="1496" type="qcurve" smooth="yes"/>
      <point x="310" y="1496"/>
      <point x="394" y="1422"/>
      <point x="394" y="1363" type="qcurve" smooth="yes"/>
      <point x="394" y="1306"/>
      <point x="310" y="1232"/>
      <point x="246" y="1232" type="qcurve" smooth="yes"/>
      <point x="181" y="1232"/>
      <point x="96" y="1306"/>
    </contour>
  </outline>
</glyph>
<glyph name="ring" format="1">
  <advance width="607"/>
  <unicode hex="02DA"/>
  <outline>
    <contour>
      <point x="106" y="1274" type="qcurve" smooth="yes"/>
      <point x="106" y="1352"/>
      <point x="224" y="1457"/>
      <point x="309" y="1457" type="qcurve" smooth="yes"/>
      <point x="392" y="1457"/>
      <point x="510" y="1352"/>
      <point x="510" y="1274" type="qcurve" smooth="yes"/>
      <point x="510" y="1198"/>
      <point x="394" y="1095"/>
      <point x="309" y="1095" type="qcurve" smooth="yes"/>
      <point x="222" y="1095"/>
      <point x="106" y="1198"/>
    </contour>
    <contour>
      <point x="309" y="1181" type="qcurve" smooth="yes"/>
      <point x="352" y="1181"/>
      <point x="401" y="1235"/>
      <point x="401" y="1274" type="qcurve" smooth="yes" name="inserted"/>
      <point x="401" y="1314"/>
      <point x="352" y="1370"/>
      <point x="309" y="1370" type="qcurve" smooth="yes"/>
      <point x="265" y="1370"/>
      <point x="215" y="1314"/>
      <point x="215" y="1274" type="qcurve" smooth="yes" name="inserted"/>
      <point x="215" y="1235"/>
      <point x="265" y="1181"/>
    </contour>
  </outline>
</glyph>
<glyph name="ogonek" format="1">
  <advance width="581"/>
  <unicode hex="02DB"/>
  <outline>
    <contour>
      <point x="371" y="-42" type="line"/>
      <point x="301" y="-77"/>
      <point x="240" y="-141"/>
      <point x="240" y="-187" type="qcurve" smooth="yes"/>
      <point x="240" y="-215" name="inserted"/>
      <point x="267" y="-242"/>
      <point x="294" y="-242" type="qcurve" smooth="yes"/>
      <point x="308" y="-242" name="inserted"/>
      <point x="339" y="-234"/>
      <point x="356" y="-226" type="qcurve"/>
      <point x="391" y="-377" type="line"/>
      <point x="358" y="-397" name="inserted"/>
      <point x="283" y="-417"/>
      <point x="241" y="-417" type="qcurve" smooth="yes"/>
      <point x="142" y="-417"/>
      <point x="23" y="-313"/>
      <point x="23" y="-224" type="qcurve" smooth="yes"/>
      <point x="23" y="-147" name="inserted"/>
      <point x="113" y="-28"/>
      <point x="203" y="12" type="qcurve"/>
    </contour>
  </outline>
</glyph>
<glyph name="tilde" format="1">
  <advance width="888"/>
  <unicode hex="02DC"/>
  <outline>
    <contour>
      <point x="797" y="1504" type="line"/>
      <point x="797" y="1402"/>
      <point x="677" y="1258"/>
      <point x="589" y="1258" type="qcurve" smooth="yes"/>
      <point x="529" y="1258"/>
      <point x="383" y="1334"/>
      <point x="338" y="1334" type="qcurve" smooth="yes"/>
      <point x="310" y="1334"/>
      <point x="269" y="1294"/>
      <point x="269" y="1253" type="qcurve"/>
      <point x="101" y="1262" type="line"/>
      <point x="101" y="1362"/>
      <point x="221" y="1508"/>
      <point x="308" y="1508" type="qcurve" smooth="yes"/>
      <point x="353" y="1508"/>
      <point x="499" y="1442"/>
      <point x="518" y="1438" type="qcurve" smooth="yes" name="inserted"/>
      <point x="528" y="1435" name="inserted"/>
      <point x="548" y="1433"/>
      <point x="559" y="1433" type="qcurve" smooth="yes"/>
      <point x="588" y="1433"/>
      <point x="629" y="1473"/>
      <point x="629" y="1514" type="qcurve"/>
    </contour>
  </outline>
</glyph>
<glyph name="hungarumlaut" format="1">
  <advance width="795"/>
  <unicode hex="02DD"/>
  <outline>
    <contour>
      <point x="589" y="1505" type="line"/>
      <point x="839" y="1505" type="line"/>
      <point x="599" y="1235" type="line"/>
      <point x="386" y="1235" type="line"/>
    </contour>
    <contour>
      <point x="214" y="1505" type="line"/>
      <point x="466" y="1505" type="line"/>
      <point x="252" y="1235" type="line"/>
      <point x="36" y="1235" type="line"/>
    </contour>
  </outline>
</glyph>
<glyph name="pi" format="1">
  <advance width="1234"/>
  <unicode hex="03C0"/>
  <outline>
    <contour>
      <point x="1186" y="755" type="line"/>
      <point x="1021" y="755" type="line"/>
      <point x="1021" y="325" type="line" smooth="yes"/>
      <point x="1021" y="270"/>
      <point x="1060" y="227"/>
      <point x="1119" y="227" type="qcurve" smooth="yes"/>
      <point x="1141" y="227" name="inserted"/>
      <point x="1179" y="229"/>
      <point x="1194" y="232" type="qcurve"/>
      <point x="1194" y="15" type="line"/>
      <point x="1153" y="2" name="inserted"/>
      <point x="1068" y="-11"/>
      <point x="1023" y="-11" type="qcurve" smooth="yes"/>
      <point x="867" y="-11"/>
      <point x="716" y="138"/>
      <point x="716" y="287" type="qcurve" smooth="yes"/>
      <point x="716" y="755" type="line"/>
      <point x="521" y="755" type="line"/>
      <point x="521" y="-1" type="line"/>
      <point x="218" y="-1" type="line"/>
      <point x="218" y="755" type="line"/>
      <point x="54" y="755" type="line"/>
      <point x="54" y="973" type="line"/>
      <point x="1186" y="973" type="line"/>
    </contour>
  </outline>
</glyph>
<glyph name="invertedcandrabindu" format="1">
  <advance width="0"/>
  <unicode hex="0900"/>
  <outline>
    <component base="candrabindudeva" xScale="-1" yScale="-1" xOffset="-1163" yOffset="3294"/>
    <contour>
      <point x="-371" y="1279" type="move" name="_top"/>
    </contour>
  </outline>
</glyph>
<glyph name="adeva" format="1">
  <advance width="1523"/>
  <unicode hex="0905"/>
  <outline>
    <contour>
      <point x="204" y="573" type="qcurve"/>
      <point x="204" y="807" type="line"/>
      <point x="369" y="807"/>
      <point x="499" y="902"/>
      <point x="499" y="965" type="qcurve" smooth="yes"/>
      <point x="499" y="1010"/>
      <point x="435" y="1077"/>
      <point x="382" y="1077" type="qcurve" smooth="yes"/>
      <point x="335" y="1077"/>
      <point x="237" y="1044"/>
      <point x="176" y="1019" type="qcurve"/>
      <point x="133" y="1239" type="line"/>
      <point x="202" y="1274"/>
      <point x="339" y="1307"/>
      <point x="445" y="1307" type="qcurve" smooth="yes"/>
      <point x="603" y="1307"/>
      <point x="804" y="1130"/>
      <point x="804" y="987" type="qcurve" smooth="yes"/>
      <point x="804" y="803"/>
      <point x="495" y="573"/>
    </contour>
    <contour>
      <point x="436" y="786" type="line"/>
      <point x="584" y="786"/>
      <point x="841" y="612"/>
      <point x="841" y="433" type="qcurve" smooth="yes"/>
      <point x="841" y="251"/>
      <point x="623" y="47"/>
      <point x="458" y="47" type="qcurve" smooth="yes"/>
      <point x="340" y="47"/>
      <point x="161" y="90"/>
      <point x="75" y="137" type="qcurve"/>
      <point x="120" y="366" type="line"/>
      <point x="201" y="332"/>
      <point x="325" y="297"/>
      <point x="392" y="297" type="qcurve" smooth="yes"/>
      <point x="457" y="297"/>
      <point x="537" y="379"/>
      <point x="537" y="445" type="qcurve" smooth="yes"/>
      <point x="537" y="502"/>
      <point x="469" y="585"/>
      <point x="377" y="591" type="qcurve"/>
    </contour>
    <contour>
      <point x="1036" y="1103" type="line"/>
      <point x="1340" y="1103" type="line"/>
      <point x="1340" y="0" type="line"/>
      <point x="1036" y="0" type="line"/>
    </contour>
    <contour>
      <point x="1553" y="1076" type="line"/>
      <point x="881" y="1076" type="line"/>
      <point x="881" y="1293" type="line"/>
      <point x="1553" y="1293" type="line"/>
    </contour>
    <contour>
      <point x="597" y="697" type="line"/>
      <point x="1072" y="697" type="line"/>
      <point x="1072" y="461" type="line"/>
      <point x="625" y="461" type="line"/>
    </contour>
  </outline>
</glyph>
<glyph name="ideva" format="1">
  <advance width="1105"/>
  <unicode hex="0907"/>
  <outline>
    <contour>
      <point x="1135" y="1076" type="line"/>
      <point x="-30" y="1076" type="line"/>
      <point x="-30" y="1293" type="line"/>
      <point x="1135" y="1293" type="line"/>
    </contour>
    <contour>
      <point x="598" y="-262" type="line"/>
      <point x="345" y="57" type="line"/>
      <point x="486" y="-1" type="line"/>
      <point x="393" y="-1" type="line" smooth="yes"/>
      <point x="267" y="-1"/>
      <point x="115" y="86"/>
      <point x="115" y="163" type="qcurve" smooth="yes"/>
      <point x="115" y="229"/>
      <point x="206" y="325"/>
      <point x="292" y="325" type="qcurve" smooth="yes"/>
      <point x="382" y="325"/>
      <point x="539" y="229"/>
      <point x="601" y="167" type="qcurve"/>
      <point x="601" y="125" type="line"/>
      <point x="826" y="-154" type="line"/>
    </contour>
    <contour>
      <point x="459" y="961" type="qcurve" smooth="yes"/>
      <point x="674" y="961" type="line"/>
      <point x="624" y="909" type="line"/>
      <point x="624" y="1095" type="line"/>
      <point x="922" y="1095" type="line"/>
      <point x="922" y="742" type="line"/>
      <point x="473" y="742" type="line" smooth="yes"/>
      <point x="416" y="742"/>
      <point x="368" y="698"/>
      <point x="368" y="672" type="qcurve" smooth="yes"/>
      <point x="368" y="624"/>
      <point x="449" y="574"/>
      <point x="479" y="566" type="qcurve"/>
      <point x="297" y="566" type="line"/>
      <point x="369" y="613"/>
      <point x="560" y="657"/>
      <point x="650" y="657" type="qcurve" smooth="yes"/>
      <point x="816" y="657"/>
      <point x="1017" y="474"/>
      <point x="1017" y="346" type="qcurve" smooth="yes"/>
      <point x="1017" y="193"/>
      <point x="787" y="13"/>
      <point x="571" y="13" type="qcurve" smooth="yes"/>
      <point x="492" y="13"/>
      <point x="364" y="104"/>
      <point x="289" y="148" type="qcurve"/>
      <point x="325" y="263" type="line"/>
      <point x="379" y="249"/>
      <point x="462" y="233"/>
      <point x="542" y="233" type="qcurve" smooth="yes"/>
      <point x="622" y="233"/>
      <point x="713" y="301"/>
      <point x="713" y="346" type="qcurve" smooth="yes"/>
      <point x="713" y="382"/>
      <point x="668" y="423"/>
      <point x="625" y="425" type="qcurve" smooth="yes"/>
      <point x="558" y="428"/>
      <point x="457" y="399"/>
      <point x="403" y="360" type="qcurve"/>
      <point x="372" y="360" type="line"/>
      <point x="259" y="402"/>
      <point x="81" y="591"/>
      <point x="81" y="710" type="qcurve" smooth="yes"/>
      <point x="81" y="813"/>
      <point x="260" y="961"/>
    </contour>
  </outline>
</glyph>
<glyph name="udeva" format="1">
  <advance width="1004"/>
  <unicode hex="0909"/>
  <outline>
    <contour>
      <point x="-30" y="1076" type="line"/>
      <point x="-30" y="1293" type="line"/>
      <point x="1034" y="1293" type="line"/>
      <point x="1034" y="1076" type="line"/>
    </contour>
    <contour>
      <point x="209" y="561" type="line"/>
      <point x="209" y="795" type="line"/>
      <point x="249" y="795" type="line" smooth="yes"/>
      <point x="421" y="795"/>
      <point x="514" y="881"/>
      <point x="514" y="949" type="qcurve" smooth="yes"/>
      <point x="514" y="1005"/>
      <point x="436" y="1076"/>
      <point x="356" y="1076" type="qcurve" smooth="yes"/>
      <point x="160" y="1076" type="line"/>
      <point x="138" y="1260" type="line"/>
      <point x="391" y="1260" type="line" smooth="yes"/>
      <point x="597" y="1260"/>
      <point x="817" y="1084"/>
      <point x="817" y="931" type="qcurve" smooth="yes"/>
      <point x="817" y="783"/>
      <point x="550" y="561"/>
      <point x="254" y="561" type="qcurve" smooth="yes"/>
    </contour>
    <contour>
      <point x="441" y="804" type="line"/>
      <point x="629" y="804"/>
      <point x="901" y="571"/>
      <point x="901" y="402" type="qcurve" smooth="yes"/>
      <point x="901" y="220"/>
      <point x="664" y="19"/>
      <point x="460" y="19" type="qcurve" smooth="yes"/>
      <point x="342" y="19"/>
      <point x="156" y="61"/>
      <point x="60" y="116" type="qcurve"/>
      <point x="95" y="351" type="line"/>
      <point x="176" y="303"/>
      <point x="321" y="266"/>
      <point x="388" y="266" type="qcurve" smooth="yes"/>
      <point x="491" y="266"/>
      <point x="597" y="349"/>
      <point x="597" y="413" type="qcurve" smooth="yes"/>
      <point x="597" y="478"/>
      <point x="496" y="579"/>
      <point x="382" y="579" type="qcurve"/>
    </contour>
    <contour>
      <point x="421.0" y="1287.0" type="move" name="top"/>
    </contour>
  </outline>
</glyph>
<glyph name="uudeva" format="1">
  <advance width="1486"/>
  <unicode hex="090A"/>
  <outline>
    <contour>
      <point x="660" y="1076" type="line"/>
      <point x="660" y="1293" type="line"/>
      <point x="1516" y="1293" type="line"/>
      <point x="1516" y="1076" type="line"/>
    </contour>
    <contour>
      <point x="641" y="749" type="line"/>
      <point x="682" y="781"/>
      <point x="883" y="842"/>
      <point x="992" y="842" type="qcurve" smooth="yes"/>
      <point x="1164" y="842"/>
      <point x="1411" y="621"/>
      <point x="1411" y="437" type="qcurve" smooth="yes"/>
      <point x="1411" y="350"/>
      <point x="1357" y="172"/>
      <point x="1286" y="83" type="qcurve"/>
      <point x="996" y="142" type="line"/>
      <point x="1041" y="204"/>
      <point x="1108" y="359"/>
      <point x="1108" y="437" type="qcurve" smooth="yes"/>
      <point x="1108" y="509"/>
      <point x="1023" y="590"/>
      <point x="960" y="590" type="qcurve" smooth="yes"/>
      <point x="917" y="590"/>
      <point x="811" y="545"/>
      <point x="762" y="505" type="qcurve"/>
    </contour>
    <component base="udeva"/>
    <contour>
      <point x="444.0" y="1287.0" type="move" name="top"/>
    </contour>
  </outline>
</glyph>
<glyph name="rvocalicdeva" format="1">
  <advance width="1610"/>
  <unicode hex="090B"/>
  <outline>
    <contour>
      <point x="990" y="1076" type="line"/>
      <point x="990" y="1293" type="line"/>
      <point x="1640" y="1293" type="line"/>
      <point x="1640" y="1076" type="line"/>
    </contour>
    <contour>
      <point x="1367" y="746" type="line"/>
      <point x="1437" y="683"/>
      <point x="1530" y="486"/>
      <point x="1530" y="392" type="qcurve" smooth="yes"/>
      <point x="1530" y="248"/>
      <point x="1350" y="103"/>
      <point x="1198" y="103" type="qcurve" smooth="yes"/>
      <point x="1172" y="103"/>
      <point x="1106" y="106"/>
      <point x="1088" y="109" type="qcurve"/>
      <point x="1057" y="315" type="line"/>
      <point x="1079" y="313"/>
      <point x="1099" y="314"/>
      <point x="1129" y="314" type="qcurve" smooth="yes"/>
      <point x="1188" y="314"/>
      <point x="1253" y="371"/>
      <point x="1253" y="416" type="qcurve" smooth="yes"/>
      <point x="1253" y="462"/>
      <point x="1197" y="579"/>
      <point x="1141" y="631" type="qcurve"/>
    </contour>
    <contour>
      <point x="1441" y="667" type="qcurve" smooth="yes"/>
      <point x="1371" y="597"/>
      <point x="1080" y="476"/>
      <point x="854" y="476" type="qcurve"/>
      <point x="876" y="735" type="line"/>
      <point x="937" y="735"/>
      <point x="1115" y="759"/>
      <point x="1172" y="793" type="qcurve"/>
      <point x="1110" y="719" type="line"/>
      <point x="1089" y="754"/>
      <point x="1065" y="807"/>
      <point x="1065" y="850" type="qcurve" smooth="yes"/>
      <point x="1065" y="907"/>
      <point x="1164" y="980"/>
      <point x="1254" y="980" type="qcurve" smooth="yes"/>
      <point x="1354" y="980"/>
      <point x="1512" y="882"/>
      <point x="1512" y="807" type="qcurve" smooth="yes"/>
      <point x="1512" y="761"/>
      <point x="1475" y="701"/>
    </contour>
    <contour>
      <point x="879" y="455" type="line"/>
      <point x="292" y="79" type="line"/>
      <point x="129" y="313" type="line"/>
      <point x="769" y="692" type="line"/>
    </contour>
    <contour>
      <point x="-30" y="1076" type="line"/>
      <point x="-30" y="1293" type="line"/>
      <point x="1171" y="1293" type="line"/>
      <point x="1171" y="1076" type="line"/>
    </contour>
    <contour>
      <point x="10" y="874" type="line"/>
      <point x="59" y="903"/>
      <point x="222" y="951"/>
      <point x="317" y="951" type="qcurve" smooth="yes"/>
      <point x="399" y="951"/>
      <point x="544" y="902"/>
      <point x="632" y="855" type="qcurve" smooth="yes"/>
      <point x="803" y="759" type="line"/>
      <point x="803" y="471" type="line"/>
      <point x="591" y="597" type="line" smooth="yes"/>
      <point x="496" y="651"/>
      <point x="390" y="688"/>
      <point x="329" y="688" type="qcurve" smooth="yes"/>
      <point x="265" y="688"/>
      <point x="124" y="649"/>
      <point x="70" y="619" type="qcurve"/>
    </contour>
    <contour>
      <point x="654" y="1135" type="line"/>
      <point x="958" y="1135" type="line"/>
      <point x="958" y="0" type="line"/>
      <point x="654" y="0" type="line"/>
    </contour>
    <contour>
      <point x="804" y="1274" type="move" name="mark0"/>
    </contour>
  </outline>
</glyph>
<glyph name="lvocalicdeva" format="1">
  <advance width="1503"/>
  <unicode hex="090C"/>
  <outline>
    <contour>
      <point x="1016" y="1103" type="line"/>
      <point x="1320" y="1103" type="line"/>
      <point x="1320" y="700" type="line"/>
      <point x="1016" y="700" type="line"/>
    </contour>
    <contour>
      <point x="-30" y="1076" type="line"/>
      <point x="-30" y="1293" type="line"/>
      <point x="1533" y="1293" type="line"/>
      <point x="1533" y="1076" type="line"/>
    </contour>
    <contour>
      <point x="821" y="636" type="qcurve"/>
      <point x="609" y="428" type="line"/>
      <point x="607" y="527"/>
      <point x="526" y="635"/>
      <point x="470" y="635" type="qcurve" smooth="yes"/>
      <point x="408" y="635"/>
      <point x="335" y="537"/>
      <point x="335" y="446" type="qcurve" smooth="yes"/>
      <point x="335" y="361"/>
      <point x="413" y="190"/>
      <point x="481" y="92" type="qcurve"/>
      <point x="240" y="9" type="line"/>
      <point x="166" y="95"/>
      <point x="48" y="361"/>
      <point x="48" y="488" type="qcurve" smooth="yes"/>
      <point x="48" y="690"/>
      <point x="254" y="899"/>
      <point x="419" y="899" type="qcurve" smooth="yes"/>
      <point x="580" y="899"/>
      <point x="789" y="726"/>
    </contour>
    <contour>
      <point x="1307" y="440" type="line"/>
      <point x="1136" y="348" type="line"/>
      <point x="1139" y="364"/>
      <point x="1145" y="420"/>
      <point x="1145" y="463" type="qcurve" smooth="yes"/>
      <point x="1145" y="554"/>
      <point x="1082.0" y="642.0"/>
      <point x="1026.0" y="642.0" type="qcurve" smooth="yes"/>
      <point x="964.0" y="642.0"/>
      <point x="896.0" y="520.0"/>
      <point x="896.0" y="408.0" type="qcurve" smooth="yes"/>
      <point x="896.0" y="260.0" type="line"/>
      <point x="602.0" y="260.0" type="line"/>
      <point x="602.0" y="421.0" type="line" smooth="yes"/>
      <point x="602.0" y="631.0"/>
      <point x="818.0" y="898.0"/>
      <point x="1000.0" y="898.0" type="qcurve" smooth="yes"/>
      <point x="1209.0" y="898.0"/>
      <point x="1431.0" y="646.0"/>
      <point x="1431.0" y="454.0" type="qcurve" smooth="yes"/>
      <point x="1431.0" y="407.0"/>
      <point x="1414" y="310"/>
      <point x="1399" y="263" type="qcurve"/>
      <point x="1314" y="263" type="line" smooth="yes"/>
      <point x="1256" y="263"/>
      <point x="1187" y="208"/>
      <point x="1187" y="163" type="qcurve" smooth="yes"/>
      <point x="1187" y="122"/>
      <point x="1247" y="79"/>
      <point x="1290" y="79" type="qcurve" smooth="yes"/>
      <point x="1330" y="79"/>
      <point x="1424" y="100"/>
      <point x="1446" y="110" type="qcurve"/>
      <point x="1477" y="-72" type="line"/>
      <point x="1444" y="-88"/>
      <point x="1323" y="-111"/>
      <point x="1279" y="-111" type="qcurve" smooth="yes"/>
      <point x="1120" y="-111"/>
      <point x="932" y="46"/>
      <point x="932" y="173" type="qcurve" smooth="yes"/>
      <point x="932" y="289"/>
      <point x="1101" y="440"/>
      <point x="1255" y="440" type="qcurve" smooth="yes"/>
    </contour>
    <contour>
      <point x="910.0" y="1265.0" type="move" name="mark0"/>
    </contour>
  </outline>
</glyph>
<glyph name="edeva" format="1">
  <advance width="1183"/>
  <unicode hex="090F"/>
  <outline>
    <contour>
      <point x="1011" y="1105" type="line"/>
      <point x="1011" y="790" type="line" smooth="yes"/>
      <point x="1011" y="662"/>
      <point x="897" y="454"/>
      <point x="773" y="404" type="qcurve"/>
      <point x="590" y="574" type="line"/>
      <point x="645" y="609"/>
      <point x="707" y="737"/>
      <point x="707" y="820" type="qcurve" smooth="yes"/>
      <point x="707" y="1105" type="line"/>
    </contour>
    <contour>
      <point x="-30" y="1076" type="line"/>
      <point x="-30" y="1293" type="line"/>
      <point x="1213" y="1293" type="line"/>
      <point x="1213" y="1076" type="line"/>
    </contour>
    <contour>
      <point x="130" y="1105" type="line"/>
      <point x="434" y="1105" type="line"/>
      <point x="434" y="712" type="line" smooth="yes"/>
      <point x="434" y="450"/>
      <point x="701" y="233"/>
      <point x="975" y="233" type="qcurve"/>
      <point x="918" y="-5" type="line"/>
      <point x="547" y="-5"/>
      <point x="130" y="378"/>
      <point x="130" y="679" type="qcurve" smooth="yes"/>
    </contour>
    <contour>
      <point x="-39" y="2" type="move" name="x44"/>
    </contour>
  </outline>
</glyph>
<glyph name="kadeva" format="1">
  <advance width="1606"/>
  <unicode hex="0915"/>
  <outline>
    <contour>
      <point x="-30" y="1076" type="line"/>
      <point x="-30" y="1293" type="line"/>
      <point x="1636" y="1293" type="line"/>
      <point x="1636" y="1076" type="line"/>
    </contour>
    <contour>
      <point x="639" y="1103" type="line"/>
      <point x="943" y="1103" type="line"/>
      <point x="943" y="0" type="line"/>
      <point x="639" y="0" type="line"/>
    </contour>
    <contour>
      <point x="688" y="201" type="line"/>
      <point x="654" y="174"/>
      <point x="527" y="144"/>
      <point x="444" y="144" type="qcurve" smooth="yes"/>
      <point x="257" y="144"/>
      <point x="9" y="375"/>
      <point x="9" y="564" type="qcurve" smooth="yes"/>
      <point x="9" y="744"/>
      <point x="232" y="938"/>
      <point x="403" y="938" type="qcurve" smooth="yes"/>
      <point x="501" y="938"/>
      <point x="649" y="909"/>
      <point x="716" y="866" type="qcurve"/>
      <point x="716" y="604" type="line"/>
      <point x="665" y="649"/>
      <point x="553" y="695"/>
      <point x="472" y="695" type="qcurve" smooth="yes"/>
      <point x="404" y="695"/>
      <point x="315" y="616"/>
      <point x="315" y="538" type="qcurve" smooth="yes"/>
      <point x="315" y="466"/>
      <point x="400" y="387"/>
      <point x="463" y="387" type="qcurve" smooth="yes"/>
      <point x="538" y="387"/>
      <point x="647" y="439"/>
      <point x="688" y="493" type="qcurve"/>
    </contour>
    <contour>
      <point x="882" y="863" type="line"/>
      <point x="923" y="877"/>
      <point x="1033" y="902"/>
      <point x="1112" y="902" type="qcurve" smooth="yes"/>
      <point x="1284" y="902"/>
      <point x="1531" y="681"/>
      <point x="1531" y="497" type="qcurve" smooth="yes"/>
      <point x="1531" y="410"/>
      <point x="1477" y="232"/>
      <point x="1406" y="143" type="qcurve"/>
      <point x="1116" y="202" type="line"/>
      <point x="1161" y="264"/>
      <point x="1228" y="419"/>
      <point x="1228" y="497" type="qcurve" smooth="yes"/>
      <point x="1228" y="569"/>
      <point x="1143" y="650"/>
      <point x="1080" y="650" type="qcurve" smooth="yes"/>
      <point x="1037" y="650"/>
      <point x="931" y="605"/>
      <point x="882" y="565" type="qcurve"/>
    </contour>
    <contour>
      <point x="635.0" y="-6.0" type="move" name="btm"/>
    </contour>
    <contour>
      <point x="635.0" y="1287.0" type="move" name="top"/>
    </contour>
  </outline>
</glyph>
<glyph name="khadeva" format="1">
  <advance width="1815"/>
  <unicode hex="0916"/>
  <outline>
    <contour>
      <point x="1335" y="272" type="line"/>
      <point x="1297" y="256"/>
      <point x="1218" y="248"/>
      <point x="1158" y="248" type="qcurve" smooth="yes"/>
      <point x="1001" y="248"/>
      <point x="767" y="451"/>
      <point x="767" y="619" type="qcurve" smooth="yes"/>
      <point x="767" y="780"/>
      <point x="974" y="968"/>
      <point x="1128" y="968" type="qcurve" smooth="yes"/>
      <point x="1201" y="968"/>
      <point x="1291" y="954"/>
      <point x="1338" y="944" type="qcurve"/>
      <point x="1338" y="710" type="line"/>
      <point x="1296" y="729"/>
      <point x="1233" y="742"/>
      <point x="1187" y="742" type="qcurve" smooth="yes"/>
      <point x="1131" y="742"/>
      <point x="1051" y="671"/>
      <point x="1051" y="612" type="qcurve" smooth="yes"/>
      <point x="1051" y="545"/>
      <point x="1142" y="480"/>
      <point x="1185" y="480" type="qcurve" smooth="yes"/>
      <point x="1238" y="480"/>
      <point x="1303" y="506"/>
      <point x="1335" y="533" type="qcurve"/>
    </contour>
    <contour>
      <point x="870" y="1076" type="line"/>
      <point x="870" y="1293" type="line"/>
      <point x="1845" y="1293" type="line"/>
      <point x="1845" y="1076" type="line"/>
    </contour>
    <contour>
      <point x="1328" y="1103" type="line"/>
      <point x="1632" y="1103" type="line"/>
      <point x="1632" y="0" type="line"/>
      <point x="1328" y="0" type="line"/>
    </contour>
    <component base="radeva"/>
    <contour>
      <point x="1323" y="1287" type="move" name="top"/>
    </contour>
  </outline>
</glyph>
<glyph name="gadeva" format="1">
  <advance width="1292"/>
  <unicode hex="0917"/>
  <outline>
    <contour>
      <point x="805" y="1103" type="line"/>
      <point x="1109" y="1103" type="line"/>
      <point x="1109" y="0" type="line"/>
      <point x="805" y="0" type="line"/>
    </contour>
    <contour>
      <point x="1322" y="1076" type="line"/>
      <point x="-30" y="1076" type="line"/>
      <point x="-30" y="1293" type="line"/>
      <point x="1322" y="1293" type="line"/>
    </contour>
    <contour>
      <point x="524" y="1095" type="line"/>
      <point x="524" y="478" type="line" smooth="yes"/>
      <point x="524" y="395"/>
      <point x="429" y="303"/>
      <point x="347" y="303" type="qcurve" smooth="yes"/>
      <point x="232" y="303"/>
      <point x="30" y="486"/>
      <point x="30" y="594" type="qcurve" smooth="yes"/>
      <point x="30" y="665"/>
      <point x="115" y="753"/>
      <point x="192" y="753" type="qcurve" smooth="yes"/>
      <point x="270" y="753" type="line"/>
      <point x="220" y="639" type="line"/>
      <point x="220" y="1095" type="line"/>
    </contour>
    <contour>
      <point x="800" y="1287" type="move" name="top"/>
    </contour>
  </outline>
</glyph>
<glyph name="ghadeva" format="1">
  <advance width="1348"/>
  <unicode hex="0918"/>
  <outline>
    <contour>
      <point x="-30" y="1076" type="line"/>
      <point x="-30" y="1293" type="line"/>
      <point x="1378" y="1293" type="line"/>
      <point x="1378" y="1076" type="line"/>
    </contour>
    <contour>
      <point x="860" y="1103" type="line"/>
      <point x="1164" y="1103" type="line"/>
      <point x="1164" y="0" type="line"/>
      <point x="860" y="0" type="line"/>
    </contour>
    <contour>
      <point x="605" y="680" type="line"/>
      <point x="518" y="680" type="line" smooth="yes"/>
      <point x="317" y="680"/>
      <point x="97" y="855"/>
      <point x="97" y="984" type="qcurve" smooth="yes"/>
      <point x="97" y="1122"/>
      <point x="298" y="1290"/>
      <point x="463" y="1290" type="qcurve" smooth="yes"/>
      <point x="606" y="1290" type="line"/>
      <point x="606" y="1076" type="line"/>
      <point x="552" y="1076" type="line" smooth="yes"/>
      <point x="490" y="1076"/>
      <point x="420" y="1010"/>
      <point x="420" y="958" type="qcurve" smooth="yes"/>
      <point x="420" y="905"/>
      <point x="492" y="846"/>
      <point x="562" y="846" type="qcurve" smooth="yes"/>
      <point x="605" y="846" type="line"/>
    </contour>
    <contour>
      <point x="920" y="181" type="line"/>
      <point x="874" y="157"/>
      <point x="661" y="118"/>
      <point x="566" y="118" type="qcurve" smooth="yes"/>
      <point x="335" y="118"/>
      <point x="85" y="336"/>
      <point x="87" y="507" type="qcurve" smooth="yes"/>
      <point x="89" y="653"/>
      <point x="356" y="848"/>
      <point x="500" y="848" type="qcurve" smooth="yes"/>
      <point x="703" y="848" type="line"/>
      <point x="723" y="614" type="line"/>
      <point x="572" y="614" type="line" smooth="yes"/>
      <point x="488" y="614"/>
      <point x="415" y="544"/>
      <point x="415" y="493" type="qcurve" smooth="yes"/>
      <point x="415" y="434"/>
      <point x="513" y="371"/>
      <point x="592" y="369" type="qcurve" smooth="yes"/>
      <point x="685" y="367"/>
      <point x="867" y="438"/>
      <point x="920" y="487" type="qcurve"/>
    </contour>
    <contour>
      <point x="864" y="1287" type="move" name="top"/>
    </contour>
  </outline>
</glyph>
<glyph name="ngadeva" format="1">
  <advance width="1337.0"/>
  <unicode hex="0919"/>
  <outline>
    <contour>
      <point x="1030" y="1076" type="line"/>
      <point x="1030" y="1293" type="line"/>
      <point x="1367" y="1293" type="line"/>
      <point x="1367" y="1076" type="line"/>
    </contour>
    <contour>
      <point x="1265" y="555" type="line"/>
      <point x="996" y="555" type="line"/>
      <point x="996" y="763" type="line"/>
      <point x="1265" y="763" type="line"/>
    </contour>
    <component base="ddadeva"/>
    <contour>
      <point x="451.0" y="-20.0" type="move" name="btm"/>
    </contour>
    <contour>
      <point x="610.0" y="1287.0" type="move" name="top"/>
    </contour>
  </outline>
</glyph>
<glyph name="chadeva" format="1">
  <advance width="1495"/>
  <unicode hex="091B"/>
  <outline>
    <contour>
      <point x="1525" y="1076" type="line"/>
      <point x="-30" y="1076" type="line"/>
      <point x="-30" y="1293" type="line"/>
      <point x="1525" y="1293" type="line"/>
    </contour>
    <contour>
      <point x="602" y="640" type="line"/>
      <point x="515" y="640" type="line" smooth="yes"/>
      <point x="320" y="640"/>
      <point x="104" y="835"/>
      <point x="104" y="974" type="qcurve" smooth="yes"/>
      <point x="104" y="1122"/>
      <point x="295" y="1290"/>
      <point x="460" y="1290" type="qcurve" smooth="yes"/>
      <point x="603" y="1290" type="line"/>
      <point x="603" y="1076" type="line"/>
      <point x="549" y="1076" type="line" smooth="yes"/>
      <point x="487" y="1076"/>
      <point x="427" y="1008"/>
      <point x="427" y="946" type="qcurve" smooth="yes"/>
      <point x="427" y="886"/>
      <point x="499" y="796"/>
      <point x="559" y="796" type="qcurve" smooth="yes"/>
      <point x="602" y="796" type="line"/>
    </contour>
    <contour>
      <point x="1412" y="520" type="qcurve" smooth="yes"/>
      <point x="1411" y="310"/>
      <point x="1048" y="-8"/>
      <point x="737" y="-11" type="qcurve" smooth="yes"/>
      <point x="433" y="-14"/>
      <point x="117" y="237"/>
      <point x="117" y="424" type="qcurve" smooth="yes"/>
      <point x="117" y="601"/>
      <point x="379" y="796"/>
      <point x="533" y="796" type="qcurve" smooth="yes"/>
      <point x="676" y="796" type="line"/>
      <point x="696" y="562" type="line"/>
      <point x="593" y="562" type="line" smooth="yes"/>
      <point x="528" y="562"/>
      <point x="451" y="479"/>
      <point x="451" y="411" type="qcurve" smooth="yes"/>
      <point x="451" y="334"/>
      <point x="598" y="232"/>
      <point x="720" y="234" type="qcurve" smooth="yes"/>
      <point x="903" y="237"/>
      <point x="1118" y="416"/>
      <point x="1118" y="529" type="qcurve" smooth="yes"/>
      <point x="1118" y="619"/>
      <point x="1043" y="696"/>
      <point x="1001" y="696" type="qcurve" smooth="yes"/>
      <point x="961" y="696"/>
      <point x="895" y="676"/>
      <point x="856" y="655" type="qcurve"/>
      <point x="787" y="858" type="line"/>
      <point x="845" y="897"/>
      <point x="976" y="933"/>
      <point x="1049" y="933" type="qcurve" smooth="yes"/>
      <point x="1215" y="933"/>
      <point x="1413" y="704"/>
    </contour>
    <contour>
      <point x="1008" y="1104" type="line"/>
      <point x="1312" y="1104" type="line"/>
      <point x="1312" y="733" type="line"/>
      <point x="1008" y="733" type="line"/>
    </contour>
    <contour>
      <point x="562" y="-21" type="move" name="btm"/>
    </contour>
    <contour>
      <point x="904" y="1287" type="move" name="top"/>
    </contour>
  </outline>
</glyph>
<glyph name="jadeva" format="1">
  <advance width="1468"/>
  <unicode hex="091C"/>
  <outline>
    <contour>
      <point x="-30" y="1076" type="line"/>
      <point x="-30" y="1293" type="line"/>
      <point x="1498" y="1293" type="line"/>
      <point x="1498" y="1076" type="line"/>
    </contour>
    <contour>
      <point x="594" y="742" type="line"/>
      <point x="675" y="705"/>
      <point x="790" y="536"/>
      <point x="790" y="417" type="qcurve" smooth="yes"/>
      <point x="790" y="258"/>
      <point x="591" y="51"/>
      <point x="404" y="51" type="qcurve" smooth="yes"/>
      <point x="306" y="51"/>
      <point x="125" y="87"/>
      <point x="33" y="127" type="qcurve"/>
      <point x="79" y="351" type="line"/>
      <point x="147" y="323"/>
      <point x="268" y="296"/>
      <point x="322" y="296" type="qcurve" smooth="yes"/>
      <point x="390" y="296"/>
      <point x="483" y="380"/>
      <point x="483" y="463" type="qcurve" smooth="yes"/>
      <point x="483" y="536"/>
      <point x="335" y="653"/>
      <point x="218" y="653" type="qcurve" smooth="yes"/>
      <point x="165" y="653" type="line"/>
      <point x="165" y="883" type="line"/>
      <point x="1075" y="883" type="line"/>
      <point x="1075" y="649" type="line"/>
      <point x="595" y="649" type="line"/>
    </contour>
    <contour>
      <point x="987" y="1103" type="line"/>
      <point x="1285" y="1103" type="line"/>
      <point x="1285" y="0" type="line"/>
      <point x="987" y="0" type="line"/>
    </contour>
    <contour>
      <point x="971" y="1287" type="move" name="top"/>
    </contour>
  </outline>
</glyph>
<glyph name="jhadeva" format="1">
  <advance width="1700"/>
  <unicode hex="091D"/>
  <outline>
    <contour>
      <point x="900" y="519" type="line"/>
      <point x="1351" y="519" type="line"/>
      <point x="1351" y="283" type="line"/>
      <point x="795" y="283" type="line"/>
    </contour>
    <component base="ideva"/>
    <component base="aavowelsigndeva" xOffset="1084"/>
    <contour>
      <point x="1208" y="1287" type="move" name="top"/>
    </contour>
  </outline>
</glyph>
